<svg id="outline-contact_phone-24px" xmlns="http://www.w3.org/2000/svg" width="24" height="24" viewBox="0 0 24 24">
  <g id="Bounding_Boxes">
    <path id="Path_2718" data-name="Path 2718" d="M0,0H24V24H0Z" fill="none"/>
  </g>
  <g id="Outline">
    <g id="Group_177" data-name="Group 177">
      <path id="Path_2719" data-name="Path 2719" d="M22,3H2A2.006,2.006,0,0,0,0,5V19a2.006,2.006,0,0,0,2,2H22a2,2,0,0,0,1.99-2L24,5A2.006,2.006,0,0,0,22,3Zm0,16H2V5H22Z"/>
      <path id="Path_2720" data-name="Path 2720" d="M19.01,17.99,21,16l-1.51-2H17.85a5.889,5.889,0,0,1,0-4h1.64L21,8,19.01,6.01A7.474,7.474,0,0,0,16.28,10a7.283,7.283,0,0,0,0,4A7.512,7.512,0,0,0,19.01,17.99Z"/>
      <path id="Path_2721" data-name="Path 2721" d="M9,12A3,3,0,1,0,6,9,3.009,3.009,0,0,0,9,12ZM9,8A1,1,0,1,1,8,9,1,1,0,0,1,9,8Z"/>
      <path id="Path_2722" data-name="Path 2722" d="M15,16.59c0-2.5-3.97-3.58-6-3.58s-6,1.08-6,3.58V18H15ZM5.48,16A7.113,7.113,0,0,1,9,15a7.042,7.042,0,0,1,3.52,1Z"/>
    </g>
  </g>
</svg>
