<svg xmlns="http://www.w3.org/2000/svg" width="391" height="391" viewBox="0 0 391 391">
  <g id="outline-verified_user-24px" opacity="0.04">
    <g id="Bounding_Boxes">
      <path id="Path_2525" data-name="Path 2525" d="M0,0H391V391H0Z" fill="none"/>
    </g>
    <g id="Outline" transform="translate(48.875 16.292)">
      <g id="Group_121" data-name="Group 121">
        <path id="Path_2526" data-name="Path 2526" d="M149.625,1,3,66.167v97.75c0,90.419,62.56,174.972,146.625,195.5,84.065-20.528,146.625-105.081,146.625-195.5V66.167ZM263.667,163.917c0,73.638-48.549,141.575-114.042,161.776-65.492-20.2-114.042-88.138-114.042-161.776V87.346L149.625,36.679,263.667,87.346Z" transform="translate(-3 -1)"/>
        <path id="Path_2527" data-name="Path 2527" d="M24.638,60.586,6,79.224,58.874,132.1,164.621,26.35,145.983,7.58,58.874,94.689Z" transform="translate(73.314 109.094)"/>
      </g>
    </g>
  </g>
</svg>
