<svg width="94" height="59" viewBox="0 0 94 59" fill="none" xmlns="http://www.w3.org/2000/svg">
<path d="M28.6618 58.1544L1.31796 42.0824C0.410812 41.5575 0.0220337 40.8359 0.0220337 40.1143V36.1127L1.51234 37.9495C1.64192 37.8839 1.70672 37.8183 1.83631 37.7527L57.82 5.08381C60.023 3.7718 63.3924 3.6406 65.3363 4.75581L92.2913 20.6311C92.8097 20.0407 93.976 18.7287 93.976 18.7287V22.6647C94.0408 23.5831 93.3929 24.5015 92.1618 25.2231L36.1781 57.8264C33.9103 59.1384 30.6057 59.2696 28.6618 58.1544Z" fill="#396CAA"/>
<path d="M13.8237 48.3143L15.3788 49.2327C15.5732 49.3639 15.7676 49.2327 15.7676 48.9703C15.7676 48.7079 15.5732 48.3799 15.3788 48.2487L13.8237 47.3303C13.6293 47.1991 13.4349 47.3303 13.4349 47.5927C13.4997 47.8551 13.6293 48.1831 13.8237 48.3143Z" fill="#173D7A"/>
<path d="M57.8199 5.08381C60.023 3.7718 63.3924 3.6406 65.3363 4.75581L92.2913 20.6311C92.8097 20.0407 93.976 18.7287 93.976 18.7287V22.6647C94.0408 23.5831 93.3929 24.5015 92.1618 25.2231L36.1781 57.8264C35.0118 58.4824 33.5215 58.876 32.1608 58.876L32.2256 19.9751L57.8199 5.08381Z" fill="#5793CE"/>
<path d="M92.7445 16.8264L65.4007 0.754341C63.4568 -0.360864 60.0874 -0.229663 57.8843 1.08234L1.9007 33.6857C-0.302353 34.9977 -0.561539 36.9657 1.38233 38.0809L28.6614 54.0873C30.6053 55.2025 33.9747 55.0714 36.1777 53.7593L92.1613 21.156C94.3644 19.9096 94.6236 17.9416 92.7445 16.8264Z" fill="#D4ECFF"/>
<path d="M28.6618 54.5465L1.31794 38.4745C0.346001 37.8841 -0.107574 37.0969 0.0220184 36.2441C0.0868149 36.9001 0.475594 37.5561 1.31794 38.0153L28.6618 54.0873C30.6057 55.2025 33.9751 55.0714 36.1781 53.7593L92.1618 21.156C93.2633 20.5 93.8464 19.7128 93.976 18.9912C94.0408 19.9096 93.3929 20.828 92.1618 21.6152L36.1781 54.2185C33.9103 55.5305 30.5409 55.6618 28.6618 54.5465Z" fill="white"/>
<path d="M90.6064 17.4167L64.2992 2.00068C62.8737 1.14787 60.3467 1.27907 58.7268 2.19748L3.52071 34.4072C1.83602 35.3912 1.70642 36.8344 3.13194 37.6872L29.4391 53.1033C30.8646 53.9561 33.3916 53.8249 35.0115 52.9065L90.2176 20.7623C91.8375 19.7127 92.0319 18.2695 90.6064 17.4167Z" fill="#173D7A"/>
<path d="M36.0475 45.1003L17.4511 34.2107L18.6822 33.5547L37.2139 44.3787L36.0475 45.1003Z" fill="#D4ECFF"/>
<path d="M23.153 41.8862L13.7576 36.4413L14.9239 35.7197L24.3193 41.2301L23.153 41.8862Z" fill="#D4ECFF"/>
<path d="M27.6891 44.5758L24.6437 42.8046L25.8101 42.083L28.8555 43.8542L27.6891 44.5758Z" fill="#FF2C9C"/>
<path d="M32.2897 47.2653L29.2443 45.4941L30.4106 44.7725L33.4561 46.5437L32.2897 47.2653Z" fill="white"/>
<path d="M23.2181 39.7869L15.637 35.3261L16.8033 34.6045L24.4492 39.0653L23.2181 39.7869Z" fill="white"/>
<path d="M32.5495 45.2317L24.9036 40.7709L26.1347 40.0493L33.7158 44.5101L32.5495 45.2317Z" fill="#D4ECFF"/>
<path d="M26.9115 35.7195C26.5228 35.9163 25.9396 35.9163 25.5508 35.7195C25.1621 35.5227 25.1621 35.1291 25.5508 34.9323C25.9396 34.7355 26.5228 34.7355 26.9115 34.9323C27.3003 35.1291 27.3003 35.4571 26.9115 35.7195Z" fill="#FF2C9C"/>
<path d="M28.9848 36.9001C28.596 37.0969 28.0129 37.0969 27.6241 36.9001C27.2353 36.7033 27.2353 36.3097 27.6241 36.1129C28.0129 35.9161 28.596 35.9161 28.9848 36.1129C29.3736 36.3097 29.3736 36.7033 28.9848 36.9001Z" fill="white"/>
<path d="M31.0578 38.0813C30.669 38.2781 30.0859 38.2781 29.6971 38.0813C29.3083 37.8845 29.3083 37.4909 29.6971 37.2941C30.0859 37.0973 30.669 37.0973 31.0578 37.2941C31.3818 37.4909 31.3818 37.8845 31.0578 38.0813Z" fill="#D4ECFF"/>
<path d="M33.0668 39.3274C32.678 39.5242 32.0949 39.5242 31.7061 39.3274C31.3173 39.1306 31.3173 38.737 31.7061 38.5402C32.0949 38.3434 32.678 38.3434 33.0668 38.5402C33.4556 38.737 33.4556 39.065 33.0668 39.3274Z" fill="#FF2C9C"/>
<path d="M35.1401 40.5081C34.7513 40.7049 34.1681 40.7049 33.7793 40.5081C33.3906 40.3113 33.3906 39.9176 33.7793 39.7208C34.1681 39.524 34.7513 39.524 35.1401 39.7208C35.5288 39.9176 35.5288 40.3113 35.1401 40.5081Z" fill="white"/>
<path d="M76.6751 17.5482L73.5649 15.7113L74.7313 14.9897L77.9062 16.8266L76.6751 17.5482Z" fill="#FF2C9C"/>
<path d="M81.0159 20.1063L77.9057 18.2695L79.1369 17.5479L82.2471 19.3847L81.0159 20.1063Z" fill="white"/>
<path d="M62.7438 9.28236L59.5688 7.51115L60.8 6.78955L63.9102 8.62636L62.7438 9.28236Z" fill="white"/>
<path d="M75.9622 19.385L71.6209 16.8266L72.852 16.105L77.1934 18.6634L75.9622 19.385Z" fill="white"/>
<path d="M79.0716 21.2216L77.1925 20.1064L78.4237 19.3848L80.3027 20.5L79.0716 21.2216Z" fill="#D4ECFF"/>
<path d="M47.2577 25.6169L43.6939 23.5177C43.37 23.3209 42.8516 23.3209 42.4628 23.5833L39.0286 25.5513C38.6399 25.7481 38.6399 26.0761 38.9638 26.2729L42.5276 28.3721C42.8516 28.5689 43.3699 28.5689 43.7587 28.3065L47.1929 26.3385C47.5169 26.0761 47.5817 25.8137 47.2577 25.6169Z" fill="#FF2C9C"/>
<path d="M53.4784 29.2903L49.9146 27.1911C49.5907 26.9943 49.0723 26.9943 48.6835 27.2567L45.2493 29.2247C44.8605 29.4215 44.8606 29.7495 45.1845 29.9463L48.7483 32.0455C49.0723 32.2423 49.5906 32.2423 49.9794 31.9799L53.4136 30.0119C53.7376 29.8151 53.8024 29.4871 53.4784 29.2903Z" fill="#B3E0FF"/>
<path d="M53.3482 22.0745L49.7844 19.9752C49.4604 19.7784 48.9421 19.7784 48.5533 20.0408L45.1191 22.0089C44.7303 22.2057 44.7303 22.5337 45.0543 22.7305L48.6181 24.8297C48.9421 25.0265 49.4604 25.0265 49.8492 24.7641L53.2834 22.7961C53.6074 22.5993 53.6074 22.2713 53.3482 22.0745Z" fill="white"/>
<path d="M59.5682 25.7483L56.0045 23.6491C55.6805 23.4523 55.1621 23.4523 54.7734 23.7147L51.3392 25.6827C50.9504 25.8795 50.9504 26.2075 51.2744 26.4043L54.8382 28.5035C55.1621 28.7003 55.6805 28.7003 56.0693 28.4379L59.5035 26.4699C59.8274 26.2731 59.8922 25.9451 59.5682 25.7483Z" fill="#396CAA"/>
</svg>
