<svg width="81" height="91" viewBox="0 0 81 91" fill="none" xmlns="http://www.w3.org/2000/svg">
<path d="M23.031 77.8475C22.7815 77.8475 22.6152 77.6789 22.6152 77.4259V53.4816C22.6152 53.2287 22.7815 53.0601 23.031 53.0601C23.2804 53.0601 23.4467 53.2287 23.4467 53.4816V77.5102C23.4467 77.6789 23.1972 77.8475 23.031 77.8475Z" fill="#396CAA"/>
<path d="M25.0252 51.9644H20.9512V60.9856H25.0252V51.9644Z" fill="#5793CE"/>
<path d="M24.4438 61.8288C23.6123 62.3347 22.3652 62.3347 21.5337 61.8288C20.7023 61.3229 20.7023 60.5641 21.5337 60.1426C22.3652 59.6367 23.6123 59.6367 24.4438 60.1426C25.2752 60.5641 25.2752 61.3229 24.4438 61.8288Z" fill="#5793CE"/>
<path d="M26.2745 39.4019H19.623V53.4818H26.2745V39.4019Z" fill="#5793CE"/>
<path d="M20.9521 53.3975V56.4327C22.1993 57.0228 23.8622 57.0228 25.0262 56.4327V53.3975C23.8622 52.8916 22.1162 52.8916 20.9521 53.3975Z" fill="#396CAA"/>
<path d="M25.359 54.9153C24.0287 55.6741 21.9501 55.6741 20.6198 54.9153C19.2895 54.1565 19.2895 52.8919 20.6198 52.1331C21.9501 51.3743 24.0287 51.3743 25.359 52.1331C26.6893 52.8919 26.6893 54.1565 25.359 54.9153Z" fill="#5793CE"/>
<path d="M46.0602 91.0003C45.8108 91.0003 45.6445 90.8317 45.6445 90.5788V66.6344C45.6445 66.3815 45.8108 66.2129 46.0602 66.2129C46.3097 66.2129 46.476 66.3815 46.476 66.6344V90.6631C46.476 90.8317 46.3097 91.0003 46.0602 91.0003Z" fill="#396CAA"/>
<path d="M48.0555 65.1167H43.9814V74.138H48.0555V65.1167Z" fill="#5793CE"/>
<path d="M47.557 74.9811C46.7256 75.487 45.4785 75.487 44.647 74.9811C43.8156 74.4753 43.8156 73.7165 44.647 73.2949C45.4785 72.7891 46.7256 72.7891 47.557 73.2949C48.3053 73.7165 48.3053 74.4753 47.557 74.9811Z" fill="#5793CE"/>
<path d="M49.3859 52.5547H42.7344V66.6346H49.3859V52.5547Z" fill="#5793CE"/>
<path d="M43.9814 66.5503V69.5855C45.2286 70.1757 46.8915 70.1757 48.0555 69.5855V66.5503C46.8915 66.0444 45.2286 66.0444 43.9814 66.5503Z" fill="#396CAA"/>
<path d="M48.3883 68.0677C47.058 68.8265 44.9794 68.8265 43.6491 68.0677C42.3188 67.3089 42.3188 66.0442 43.6491 65.2854C44.9794 64.5266 47.058 64.5266 48.3883 65.2854C49.7186 66.0442 49.7186 67.3089 48.3883 68.0677Z" fill="#5793CE"/>
<path d="M68.5108 75.9926L77.4072 70.681L68.9265 59.8892L66.6816 63.5988L68.5108 75.9926Z" fill="#5793CE"/>
<path d="M3.65918 16.8907L17.8768 8.54395C17.8768 8.54395 17.3779 16.8064 17.3779 16.8907L9.22981 19.5044L3.65918 16.8907Z" fill="#5793CE"/>
<path d="M71.004 48.9288C69.9231 48.2543 68.8422 47.9171 67.9276 47.7484C66.5142 40.0761 61.2761 31.9823 54.9572 28.2726C53.0449 27.1766 51.2989 26.5864 49.636 26.4178C48.8046 17.1436 42.4025 6.60469 34.6702 2.0519C30.6793 -0.224496 27.0209 -0.56174 24.2772 0.871546L24.1109 0.955857C24.0278 0.955857 23.9446 1.04017 23.9446 1.04017L15.5471 6.09883L18.2908 8.37522C15.7965 9.47127 14.2168 12.3378 14.2168 16.5534C14.2168 24.31 19.6211 33.7528 26.2726 37.6311L71.004 70.0065C75.9926 72.9574 80.0666 70.5967 80.0666 64.6949C79.9835 58.9618 75.9926 51.7954 71.004 48.9288Z" fill="#5793CE"/>
<path d="M14.6328 13.0968L33.9222 1.71482C30.1807 -0.308645 26.8549 -0.477267 24.2775 0.871709L24.1112 0.95602C24.0281 0.95602 23.9449 1.04033 23.9449 1.04033L15.5474 6.09899L18.2911 8.37539C16.5451 9.13418 15.298 10.8204 14.6328 13.0968Z" fill="#5793CE"/>
<path d="M50.3014 46.7371L64.3527 38.3903C61.9415 34.1747 58.6158 30.465 54.9575 28.273C54.4586 28.02 53.9597 27.7671 53.544 27.5142L35.585 38.1373L50.3014 46.7371Z" fill="#5793CE"/>
<path d="M19.5391 7.11092L25.7748 10.8206L37.2487 3.99142C36.4172 3.31693 35.5858 2.72675 34.6712 2.22089C33.2578 1.37778 31.9275 0.871912 30.6803 0.534668L19.5391 7.11092Z" fill="#D4ECFF"/>
<path d="M62.7732 35.9453L51.5488 42.6902L55.4566 47.0744L65.6833 40.9197C64.8518 39.1491 63.9372 37.4629 62.7732 35.9453Z" fill="#D4ECFF"/>
<path d="M62.1915 54.1565C61.1106 53.482 60.0298 53.1447 59.1152 52.9761C57.7017 45.3038 52.4637 37.21 46.1448 33.5003C44.2325 32.4042 42.4864 31.8141 40.8236 31.6454C39.9921 22.3712 33.5901 11.8324 25.8577 7.27956C17.5433 2.47384 10.8087 6.43645 10.8087 16.2165C10.8087 16.5538 10.8087 16.891 10.8087 17.2283C4.73919 14.3617 0 17.5655 0 24.8162C0 32.5729 5.40434 42.0157 12.0558 45.894L62.1915 75.2342C67.1801 78.1851 71.2542 75.8244 71.2542 69.9226C71.171 64.1895 67.1801 57.1073 62.1915 54.1565Z" fill="#D4ECFF"/>
<path d="M10.8081 17.228C10.8081 16.8908 10.8081 16.5535 10.8081 16.2163C7.48236 14.8673 4.57233 15.4575 2.74316 17.5653C4.73861 15.8791 7.5655 15.6261 10.8081 17.228Z" fill="white"/>
<path d="M62.8561 53.4818C61.7753 52.8073 60.6944 52.4701 59.7798 52.3014C58.3664 44.6291 53.1283 36.5353 46.8094 32.8256C44.8971 31.7296 43.1511 31.1394 41.4882 30.9708C40.6568 21.6965 34.2547 11.1577 26.5223 6.60488C21.3674 3.56969 16.7945 3.99124 14.0508 7.02644C16.7945 4.66573 21.0349 4.58142 25.774 7.27937C33.5064 11.8322 39.9085 22.371 40.7399 31.6452C42.4028 31.8139 44.1488 32.3197 46.0611 33.5001C52.2969 37.2098 57.6181 45.3036 59.0315 52.9759C60.0293 53.1445 61.027 53.4818 62.1078 54.1563C67.0965 57.1072 71.1705 64.1893 71.1705 70.0067C71.1705 72.1145 70.6717 73.8007 69.7571 74.8968C71.0874 73.8007 71.9188 71.9459 71.9188 69.3322C71.9188 63.5148 67.8448 56.3484 62.8561 53.4818Z" fill="white"/>
<path d="M9.72764 19.5044L13.4691 21.275L13.3028 17.0594C13.3028 16.7222 13.3028 16.4692 13.3028 16.2163C13.3028 12.4223 14.3837 9.72437 16.4623 8.54401C18.4577 7.36366 21.3678 7.7009 24.6104 9.64005C31.5113 13.687 37.4976 23.5514 38.3291 32.0668L38.4954 34.1745L40.574 34.3432C41.9043 34.4275 43.3177 34.9333 44.8143 35.8608C50.3018 39.0646 55.2073 46.484 56.5376 53.5661L56.8701 55.3366L58.6162 55.5895C59.2813 55.6739 60.0296 56.0111 60.861 56.4327C65.1014 58.8777 68.5934 65.1167 68.5934 70.091C68.5934 71.9459 68.0945 73.2948 67.18 73.8007C66.2654 74.3066 64.8519 74.0536 63.3553 73.1262L13.3028 43.786C7.48276 40.3293 2.49414 31.6452 2.49414 24.816C2.49414 22.1181 3.24243 20.0946 4.65588 19.2515C5.23788 18.9143 5.90303 18.7456 6.65133 18.7456C7.56591 18.7456 8.64678 18.9986 9.72764 19.5044Z" fill="#173D7A"/>
<path d="M34.7539 51.3732L36.0842 50.6987L34.8371 49.687L34.7539 51.3732Z" fill="#5793CE"/>
<path d="M30.8467 33.2468L32.0938 32.5723V33.2468H30.8467Z" fill="#5793CE"/>
<path d="M38.5792 47.1579L39.9095 46.4834L37.332 43.9541L38.5792 47.1579Z" fill="#5793CE"/>
<path d="M35.7514 50.6144L29.5156 46.9047C29.183 46.7361 28.9336 46.2302 28.9336 45.8087V38.4736L36.3334 42.9421V50.2772C36.3334 50.6987 36.084 50.8673 35.7514 50.6144Z" fill="#5793CE"/>
<path d="M32.0934 32.5722L25.3587 36.9564C25.1093 37.125 25.2756 37.7995 25.7745 38.1367L32.6754 42.2679L39.5763 46.3992C39.992 46.6521 40.2415 46.2306 39.992 45.7247L33.2574 33.2467C32.9248 32.7408 32.3428 32.4036 32.0934 32.5722Z" fill="#5793CE"/>
<path d="M34.4223 51.3737L28.1865 47.664C27.8539 47.4954 27.6045 46.9895 27.6045 46.568V39.2329L35.0043 43.7014V51.0364C34.9211 51.3737 34.6717 51.5423 34.4223 51.3737Z" fill="#D4ECFF"/>
<path d="M30.7633 33.3311L24.0287 37.7152C23.7792 37.8839 23.9455 38.6427 24.4444 38.8956L31.3453 43.0268L38.2462 47.1581C38.662 47.411 38.9114 46.9894 38.662 46.4836L31.9273 34.0055C31.5947 33.4154 31.0127 33.0781 30.7633 33.3311Z" fill="#D4ECFF"/>
<path d="M22.3655 59.3833C22.3655 59.8049 22.116 59.9735 21.7003 59.7206C21.3677 59.552 21.0352 59.0461 21.0352 58.6245C21.0352 58.203 21.2846 58.0344 21.7003 58.2873C22.116 58.4559 22.3655 58.9618 22.3655 59.3833Z" fill="#D4ECFF"/>
<path d="M45.4787 72.7046C45.4787 73.1262 45.2293 73.2948 44.8136 73.0419C44.3979 72.7889 44.1484 72.3674 44.1484 71.9458C44.1484 71.5243 44.3979 71.3557 44.8136 71.6086C45.2293 71.8615 45.4787 72.2831 45.4787 72.7046Z" fill="#D4ECFF"/>
</svg>
