<svg width="92" height="68" viewBox="0 0 92 68" fill="none" xmlns="http://www.w3.org/2000/svg">
<path d="M91.7231 40.6072V26.8405H61.074L50.5834 20.5829C48.115 19.1228 44.0011 19.3313 41.1213 21L31.2477 26.8405H0.598633V40.8158C0.598633 41.8587 1.01003 42.693 2.24422 43.3188L41.9441 66.4719C44.4124 67.932 48.5264 67.7234 51.4062 66.0547L89.6662 43.736C91.106 42.9016 91.9288 41.6501 91.7231 40.6072Z" fill="#396CAA"/>
<path d="M46.2637 19.5405C44.4125 19.5405 42.5612 19.9577 41.1213 20.792L31.2477 26.6325H0.598633V40.8163C0.598633 41.8593 1.01003 42.6936 2.24422 43.3194L41.9441 66.4725C43.1783 67.0982 44.6182 67.5154 46.2637 67.5154V19.5405Z" fill="#396CAA"/>
<path d="M4.09551 26.6323H0.598633V40.8162C0.598633 41.8591 1.01003 42.6935 2.24422 43.3192L4.09551 44.3622V26.6323Z" fill="#5793CE"/>
<path d="M42.3555 66.8899C44.4125 67.7242 47.4979 67.7242 49.9663 66.8899V50.6201H42.3555V66.8899Z" fill="#5793CE"/>
<path d="M41.7377 52.4973L2.24358 29.3442C-0.224806 27.8841 0.18659 25.381 2.86067 23.7123L41.1206 1.39359C44.0004 -0.275098 48.1144 -0.483686 50.5828 0.976418L90.0769 24.1295C92.5453 25.5896 92.1339 28.0927 89.4598 29.7613L51.1999 52.0801C48.5258 53.7488 44.2061 53.9574 41.7377 52.4973Z" fill="#D4ECFF"/>
<path d="M89.4604 26.841L51.2005 49.3683C48.3207 51.037 44.2067 51.2456 41.7384 49.7855L2.24422 26.6324C1.62712 26.2152 1.21573 26.0066 1.01003 25.5894C0.187236 27.0496 0.59863 28.5097 2.24422 29.344L41.9441 52.4971C44.4124 53.9572 48.5264 53.7486 51.4062 52.0799L89.6662 29.7612C91.9288 28.5097 92.5459 26.6324 91.5174 25.3809C91.106 25.798 90.2832 26.4238 89.4604 26.841Z" fill="white"/>
<path d="M77.3244 44.1533C77.3244 45.1962 76.7073 46.4477 75.6788 46.8649C74.856 47.2821 74.0332 46.8649 74.0332 46.0305C74.0332 44.9876 74.6503 43.7361 75.6788 43.3189C76.5016 42.6932 77.3244 43.1103 77.3244 44.1533Z" fill="#D4ECFF"/>
<path d="M82.467 41.2333C82.467 42.2763 81.8499 43.5278 80.8214 43.945C79.9986 44.3621 79.1758 43.945 79.1758 43.1106C79.1758 42.0677 79.7929 40.8162 80.8214 40.399C81.6442 39.7732 82.467 40.1904 82.467 41.2333Z" fill="#D4ECFF"/>
<path d="M87.6096 38.1044C87.6096 39.1474 86.9924 40.3989 85.964 40.8161C85.1412 41.2332 84.3184 40.8161 84.3184 39.9817C84.3184 39.1474 84.9355 37.6873 85.964 37.2701C86.7867 36.6443 87.6096 37.0615 87.6096 38.1044Z" fill="#D4ECFF"/>
<path d="M44.2071 38.1059L25.6942 27.2594C24.46 26.6336 24.6657 25.3821 26.1056 24.7563L44.0014 14.327C45.2355 13.4927 47.2925 13.4927 48.5267 14.1184L67.0396 24.9649C68.2738 25.5907 68.0681 26.8422 66.6282 27.4679L48.7324 37.8973C47.2925 38.7316 45.2356 38.7316 44.2071 38.1059Z" fill="#5793CE"/>
<path d="M45.8531 28.9274L43.3847 27.4673C43.179 27.4673 43.179 27.2587 43.3847 27.0501L45.8531 25.59C46.0588 25.3814 46.2645 25.3814 46.4702 25.59L48.9386 27.0501C49.1443 27.0501 49.1443 27.2587 48.9386 27.4673L46.4702 28.9274C46.2645 29.136 46.0588 29.136 45.8531 28.9274Z" fill="#D4ECFF"/>
<path d="M25.4896 27.2585C25.6953 27.2585 25.6953 27.2585 25.901 27.0499L43.7968 16.6206C45.0309 15.7862 47.0879 15.7862 48.3221 16.412L66.835 27.2585C67.8635 26.4241 67.8635 25.3812 66.835 24.7554L48.3221 13.9089C47.0879 13.2832 45.2366 13.2832 43.7968 14.1175L25.901 24.5469C24.6668 25.3812 24.4611 26.6327 25.4896 27.2585Z" fill="#396CAA"/>
</svg>
