<svg width="108" height="69" viewBox="0 0 108 69" fill="none" xmlns="http://www.w3.org/2000/svg">
<path d="M82.767 36.5011L77.0285 33.0737L98.1065 20.3926C99.0997 19.8214 99.0997 18.7932 98.1065 18.222L76.5871 5.31236C75.5939 4.74114 73.9386 4.74114 72.9454 5.31236L51.7571 17.9935L46.0186 14.5662L67.2069 1.88503C71.4004 -0.628344 78.1321 -0.628344 82.3256 1.88503L103.955 14.7946C108.149 17.308 108.149 21.3066 103.955 23.82L82.767 36.5011Z" fill="#173D7A"/>
<path d="M91.9273 37.9863C91.9273 34.7875 90.0512 31.1316 87.7338 29.7607L49.5507 6.91183C48.5575 6.34061 47.5643 6.22637 46.9021 6.68334L1.10449 34.102L45.3571 68.6038L90.3823 41.5279C90.4926 41.4136 90.603 41.4136 90.8237 41.2994C91.4859 40.7282 91.9273 39.5857 91.9273 37.9863Z" fill="#D4ECFF"/>
<path d="M45.3567 68.6038L90.3818 41.5279C90.4922 41.4136 90.6025 41.4136 90.8232 41.2994C91.5957 40.7281 92.0372 39.5857 92.0372 37.9863C92.0372 36.5011 91.5957 34.7874 90.9336 33.4165L39.5078 64.034L45.3567 68.6038Z" fill="#396CAA"/>
<path d="M42.487 68.4895L4.19352 45.6406C1.87605 44.2697 0 40.6138 0 37.415C0 34.2161 1.87605 32.731 4.19352 34.1019L42.487 56.9508C44.8044 58.3217 46.6805 61.9775 46.6805 65.1764C46.5701 68.3752 44.6941 69.8604 42.487 68.4895Z" fill="#173D7A"/>
<path d="M42.9283 56.8363L4.63487 33.9874C3.53131 33.3019 2.64847 33.3019 1.87598 33.7589C2.53811 33.5304 3.3106 33.6447 4.19345 34.2159L42.4869 57.0648C44.8044 58.4357 46.6804 62.0915 46.6804 65.2904C46.6804 67.004 46.1286 68.2607 45.2458 68.7177C46.3493 68.375 47.1218 67.004 47.1218 65.0619C47.0115 61.863 45.2458 58.2072 42.9283 56.8363Z" fill="white"/>
<path d="M36.7483 60.7208L32.1133 57.979C31.6719 57.7505 31.2305 56.9508 31.2305 56.3795C31.2305 55.6941 31.5615 55.4656 32.1133 55.6941L36.7483 58.4359C37.1897 58.6644 37.6311 59.4641 37.6311 60.0354C37.5207 60.7208 37.1897 61.0636 36.7483 60.7208Z" fill="#FF2C9C"/>
<path d="M42.5981 28.6183C43.812 27.9328 43.812 26.6761 42.5981 25.9907C41.3842 25.3052 39.3978 25.3052 38.1839 25.9907C36.97 26.6761 36.97 27.9328 38.1839 28.6183C39.3978 29.418 41.3842 29.418 42.5981 28.6183Z" fill="#5793CE"/>
<path d="M49.2192 32.5021C50.4331 31.8166 50.4331 30.5599 49.2192 29.8745C48.0053 29.189 46.0189 29.189 44.805 29.8745C43.5911 30.5599 43.5911 31.8166 44.805 32.5021C46.1292 33.3018 48.1156 33.3018 49.2192 32.5021Z" fill="white"/>
<path d="M55.9497 36.3868C57.1636 35.7014 57.1636 34.4447 55.9497 33.7592C54.7357 33.0738 52.7493 33.0738 51.5354 33.7592C50.3215 34.4447 50.3215 35.7014 51.5354 36.3868C52.7493 37.1865 54.7357 37.1865 55.9497 36.3868Z" fill="white"/>
</svg>
