<svg width="106" height="105" viewBox="0 0 106 105" fill="none" xmlns="http://www.w3.org/2000/svg">
<path d="M103.795 29.6974L53.5667 0.338431C52.9826 0 52.3986 -0.0846078 51.8979 0.0846078H51.8145L49.9789 0.846078L51.6476 1.69216V1.77676L42.7199 42.6424C42.3027 44.5037 43.1371 46.7035 44.5555 47.5496L93.6162 76.2317L93.4493 78.3469L95.4518 77.5854C96.1193 77.247 96.6199 76.5701 96.8702 75.5548L105.631 34.6892C106.048 32.7432 105.214 30.5434 103.795 29.6974Z" fill="#173D7A"/>
<path d="M103.794 29.6974L53.5656 0.338431C52.9815 0 52.3975 -0.0846079 51.8968 0.0846079H51.8134L49.9778 0.846079L51.6465 1.69216V1.77676L45.5557 29.8666L70.1694 49.2418L105.546 31.8126C105.046 30.8819 104.545 30.1204 103.794 29.6974Z" fill="#396CAA"/>
<path d="M101.959 35.5353L105.797 33.8431C105.881 32.3202 105.213 30.7973 104.212 29.9512L98.1211 32.574L101.959 35.5353Z" fill="#274F89"/>
<path d="M91.6134 78.1777L41.3846 48.8187C39.9662 47.9726 39.1318 45.7728 39.549 43.9115L48.3933 2.96126C48.8105 1.09989 50.3123 0.253813 51.7307 1.01528L101.96 30.4588C103.378 31.3049 104.212 33.5047 103.795 35.3661L94.9508 76.3163C94.5337 78.1777 93.0318 79.0237 91.6134 78.1777Z" fill="#D4ECFF"/>
<path d="M102.46 30.2898L52.231 0.846317C51.5635 0.423277 50.8126 0.423277 50.2285 0.761709C50.7291 0.677101 51.2297 0.761709 51.7304 1.01553L101.959 30.4591C103.378 31.3051 104.212 33.5049 103.795 35.3663L94.9505 76.3165C94.7001 77.3318 94.1995 78.0087 93.6155 78.3471C94.4498 78.1779 95.2008 77.4164 95.4511 76.1473L104.295 35.1971C104.713 33.3357 103.878 31.0513 102.46 30.2898Z" fill="white"/>
<path d="M90.5286 75.3859L43.3036 47.7191C41.9686 46.9576 41.2177 44.927 41.6348 43.2349L49.8116 5.49977C50.1454 3.80761 51.5638 2.96154 52.8153 3.72301L100.04 31.3898C101.375 32.1512 102.126 34.1818 101.709 35.874L93.5323 73.6091C93.1986 75.3859 91.8636 76.1473 90.5286 75.3859Z" fill="white"/>
<path d="M90.5286 75.3859L43.3036 47.7191C41.9686 46.9576 41.2177 44.927 41.6348 43.2349L49.8116 5.49977C50.1454 3.80761 51.5638 2.96154 52.8153 3.72301L100.04 31.3898C101.375 32.1512 102.126 34.1818 101.709 35.874L93.5323 73.6091C93.1986 75.3859 91.8636 76.1473 90.5286 75.3859Z" fill="#173D7A"/>
<path d="M90.9459 75.2162L43.7209 47.5494C42.3859 46.788 41.635 44.7574 42.0521 43.0652L50.2289 5.33012C50.3958 4.48404 50.8964 3.80718 51.397 3.46875C50.6461 3.63797 50.062 4.39944 49.8117 5.49934L41.635 43.2344C41.3012 44.9266 42.0521 46.9572 43.3037 47.7187L90.5287 75.3854C91.1962 75.7239 91.8637 75.7239 92.3643 75.47C91.9472 75.5546 91.4465 75.5546 90.9459 75.2162Z" fill="#5793CE"/>
<path d="M92.2807 79.531L85.439 78.6003L41.1342 52.6257C39.7158 51.7796 37.2127 51.8642 35.6274 52.8795L4.17182 71.2394L0 70.6472V73.0162C0 73.6084 0.25031 74.1161 0.917802 74.4545L51.23 103.983C52.6484 104.829 55.1515 104.744 56.7368 103.729L90.9458 83.6768C91.8636 83.1691 92.3642 82.4077 92.2807 81.8154V79.531Z" fill="#173D7A"/>
<path d="M58.9896 63.1172L55.819 61.2559H21.2763L4.17182 71.2396L0 70.6473V73.0164C0 73.6086 0.25031 74.1163 0.917802 74.4547L51.23 103.983C51.9809 104.406 53.0656 104.575 54.0668 104.49L58.9896 63.1172Z" fill="#396CAA"/>
<path d="M1.8356 70.9013L0 70.6475V73.0165C0 73.6087 0.25031 74.1164 0.917802 74.4548L1.8356 74.9625V70.9013Z" fill="#5793CE"/>
<path d="M51.7305 104.153C53.0655 104.66 54.9845 104.576 56.4029 103.814V98.4839H51.7305V104.153Z" fill="#274F89"/>
<path d="M51.2292 101.529L1.00046 72.1703C-0.417964 71.3243 -0.251091 69.8859 1.41764 68.9552L35.6266 48.9032C37.2953 47.9725 39.715 47.8033 41.1334 48.6494L91.3622 78.0929C92.7806 78.939 92.6137 80.3773 90.945 81.308L56.736 101.36C55.1507 102.291 52.6476 102.375 51.2292 101.529Z" fill="#D4ECFF"/>
<path d="M90.9466 80.462L56.7376 100.514C55.0689 101.445 52.6492 101.614 51.2308 100.768L1.00203 71.3244C0.501408 71.0706 0.2511 70.7321 0.0842269 70.3091C-0.166083 70.9859 0.167662 71.6628 1.00203 72.1705L51.2308 101.529C52.6492 102.375 55.1523 102.291 56.7376 101.276L90.9466 81.2235C92.0312 80.5466 92.4484 79.7006 92.1981 78.9391C92.1147 79.5313 91.6141 80.039 90.9466 80.462Z" fill="white"/>
<path d="M22.3613 62.4405L20.1085 61.0868C19.9416 61.0022 19.9416 60.833 20.1919 60.6637L22.8619 59.0562C23.1122 58.9716 23.3625 58.887 23.6128 59.0562L25.8656 60.4099C26.0325 60.4945 26.0325 60.6637 25.7822 60.833L23.1122 62.4405C22.8619 62.5251 22.5281 62.5251 22.3613 62.4405Z" fill="#5793CE"/>
<path d="M25.8662 64.4713L23.6134 63.1175C23.4465 63.0329 23.4465 62.8637 23.6968 62.6945L26.3668 61.087C26.6171 61.0023 26.8674 60.9177 27.1177 61.087L29.3705 62.4407C29.5374 62.5253 29.5374 62.6945 29.2871 62.8637L26.6171 64.4713C26.3668 64.5559 26.033 64.5559 25.8662 64.4713Z" fill="#5793CE"/>
<path d="M29.3701 66.502L27.1173 65.1483C26.9504 65.0637 26.9504 64.8945 27.2007 64.7253L29.8707 63.1177C30.121 63.0331 30.3713 62.9485 30.6216 63.1177L32.8744 64.4714C33.0413 64.556 33.0413 64.7253 32.791 64.8945L30.121 66.502C29.8707 66.5866 29.5369 66.6712 29.3701 66.502Z" fill="#5793CE"/>
<path d="M34.2099 64.8097L31.9571 63.456C31.7902 63.3714 31.7902 63.2022 32.0406 63.033L34.2933 61.6792C34.5437 61.5946 34.794 61.51 35.0443 61.6792L37.2971 63.033C37.4639 63.1176 37.4639 63.2868 37.2136 63.456L34.9608 64.8097C34.7105 64.8943 34.3768 64.9789 34.2099 64.8097Z" fill="#5793CE"/>
<path d="M37.7138 66.9255L35.461 65.5717C35.2942 65.4871 35.2942 65.3179 35.5445 65.1487L37.7973 63.795C38.0476 63.7104 38.2979 63.6257 38.5482 63.795L40.801 65.1487C40.9678 65.2333 40.9678 65.4025 40.7175 65.5717L38.4647 66.8408C38.2144 67.0101 37.8807 67.0101 37.7138 66.9255Z" fill="#5793CE"/>
<path d="M41.2177 68.9557L38.9649 67.602C38.7981 67.5174 38.7981 67.3482 39.0484 67.179L41.3012 65.8252C41.5515 65.7406 41.8018 65.656 42.0521 65.8252L44.3049 67.179C44.4717 67.2636 44.4717 67.4328 44.2214 67.602L41.9686 68.9557C41.7183 69.0403 41.3846 69.0403 41.2177 68.9557Z" fill="#5793CE"/>
<path d="M44.7226 70.9865L42.4698 69.6328C42.3029 69.5482 42.3029 69.3789 42.5533 69.2097L44.806 67.856C45.0563 67.7714 45.3067 67.6868 45.557 67.856L47.8098 69.2097C47.9766 69.2943 47.9766 69.4636 47.7263 69.6328L45.4735 70.9865C45.2232 71.0711 44.8895 71.0711 44.7226 70.9865Z" fill="#5793CE"/>
<path d="M48.2265 73.0173L45.9737 71.6635C45.8068 71.5789 45.8069 71.4097 46.0572 71.2405L48.3099 69.8868C48.5603 69.8022 48.8106 69.7175 49.0609 69.8868L51.3137 71.2405C51.4805 71.3251 51.4805 71.4943 51.2302 71.6635L48.9774 73.0173C48.7271 73.1865 48.4768 73.1865 48.2265 73.0173Z" fill="#5793CE"/>
<path d="M51.7314 75.132L49.4786 73.7783C49.3117 73.6937 49.3117 73.5244 49.562 73.3552L51.8148 72.0015C52.0651 71.9169 52.3154 71.8323 52.5658 72.0015L54.8185 73.3552C54.9854 73.4398 54.9854 73.6091 54.7351 73.7783L52.4823 75.132C52.232 75.2166 51.9817 75.2166 51.7314 75.132Z" fill="#5793CE"/>
<path d="M55.2363 77.1623L52.9835 75.8085C52.8166 75.7239 52.8166 75.5547 53.0669 75.3855L55.3197 74.0318C55.57 73.9472 55.8203 73.8626 56.0706 74.0318L58.3234 75.3855C58.4903 75.4701 58.4903 75.6393 58.24 75.8085L55.9872 77.1623C55.7369 77.2469 55.4866 77.2469 55.2363 77.1623Z" fill="#5793CE"/>
<path d="M58.8232 79.1935L56.5704 77.8398C56.4035 77.7552 56.4035 77.586 56.6538 77.4168L58.9066 76.063C59.1569 75.9784 59.4072 75.8938 59.6575 76.063L61.9103 77.4168C62.0772 77.5014 62.0772 77.6706 61.8269 77.8398L59.5741 79.1935C59.3238 79.2781 58.9901 79.3627 58.8232 79.1935Z" fill="#5793CE"/>
<path d="M62.3281 81.3083L60.0753 79.9545C59.9084 79.8699 59.9084 79.7007 60.1587 79.5315L62.4115 78.1778C62.6618 78.0932 62.9121 78.0086 63.1624 78.1778L65.4152 79.5315C65.5821 79.6161 65.5821 79.7853 65.3318 79.9545L62.9956 81.2237C62.8287 81.3929 62.4949 81.3929 62.3281 81.3083Z" fill="#5793CE"/>
<path d="M65.831 83.339L63.5782 81.9853C63.4113 81.9007 63.4113 81.7315 63.6617 81.5623L65.9144 80.2085C66.1647 80.1239 66.4151 80.0393 66.6654 80.2085L68.9181 81.5623C69.085 81.6469 69.085 81.8161 68.8347 81.9853L66.5819 83.339C66.3316 83.4236 65.9979 83.4236 65.831 83.339Z" fill="#5793CE"/>
<path d="M39.3828 63.8791L37.13 62.5253C36.9631 62.4407 36.9631 62.2715 37.2134 62.1023L39.4662 60.7486C39.7165 60.664 39.9668 60.5794 40.2171 60.7486L42.4699 62.1023C42.6368 62.1869 42.6368 62.3561 42.3865 62.5253L40.1337 63.8791C39.8834 63.9637 39.5496 63.9637 39.3828 63.8791Z" fill="#5793CE"/>
<path d="M35.7939 61.7638L33.5411 60.4101C33.3742 60.3255 33.3742 60.1563 33.6245 59.9871L35.8773 58.6333C36.1276 58.5487 36.3779 58.4641 36.6283 58.6333L38.881 59.9871C39.0479 60.0717 39.0479 60.2409 38.7976 60.4101L36.5448 61.7638C36.2945 61.8484 36.0442 61.8484 35.7939 61.7638Z" fill="#5793CE"/>
<path d="M32.29 59.6491L27.3673 56.7724C27.2004 56.6878 27.2004 56.5186 27.4507 56.3494L29.7035 54.9956C29.9538 54.911 30.2041 54.8264 30.4544 54.9956L35.3772 57.8723C35.5441 57.9569 35.5441 58.1261 35.2937 58.2954L33.041 59.6491C32.7906 59.8183 32.4569 59.8183 32.29 59.6491Z" fill="#5793CE"/>
<path d="M34.7101 57.1105L30.7052 54.8261C30.5383 54.7415 30.5383 54.5723 30.7886 54.4031L33.0414 53.0494C33.2917 52.9647 33.542 52.8801 33.7923 53.0494L37.7973 55.3338C37.9641 55.4184 37.9641 55.5876 37.7138 55.7568L35.461 57.1105C35.2942 57.2797 34.9604 57.2797 34.7101 57.1105Z" fill="#5793CE"/>
<path d="M42.8857 65.9098L40.6329 64.5561C40.466 64.4715 40.466 64.3023 40.7163 64.1331L42.9691 62.7793C43.2194 62.6947 43.4697 62.6101 43.72 62.7793L45.9728 64.1331C46.1397 64.2177 46.1397 64.3869 45.8894 64.5561L43.6366 65.9098C43.3863 65.9944 43.0526 65.9944 42.8857 65.9098Z" fill="#5793CE"/>
<path d="M46.3906 67.9401L44.1378 66.5864C43.9709 66.5018 43.9709 66.3326 44.2212 66.1633L46.474 64.8096C46.7243 64.725 46.9746 64.6404 47.2249 64.8096L49.4777 66.1633C49.6446 66.2479 49.6446 66.4172 49.3943 66.5864L47.1415 67.9401C46.8912 68.1093 46.5574 68.1093 46.3906 67.9401Z" fill="#5793CE"/>
<path d="M49.8955 70.0558L47.6427 68.7021C47.4758 68.6175 47.4758 68.4483 47.7261 68.2791L49.9789 66.9253C50.2292 66.8407 50.4795 66.7561 50.7298 66.9253L52.9826 68.2791C53.1495 68.3637 53.1495 68.5329 52.8992 68.7021L50.6464 70.0558C50.3961 70.1404 50.0623 70.1404 49.8955 70.0558Z" fill="#5793CE"/>
<path d="M53.3994 72.0861L51.1466 70.7324C50.9797 70.6478 50.9797 70.4785 51.23 70.3093L53.4828 68.9556C53.7331 68.871 53.9834 68.7864 54.2337 68.9556L56.4865 70.3093C56.6534 70.3939 56.6534 70.5632 56.4031 70.7324L54.1503 72.0861C53.9 72.1707 53.6497 72.1707 53.3994 72.0861Z" fill="#5793CE"/>
<path d="M56.9042 74.1169L54.6515 72.7631C54.4846 72.6785 54.4846 72.5093 54.7349 72.3401L56.9877 70.9864C57.238 70.9018 57.4883 70.8172 57.7386 70.9864L59.9914 72.3401C60.1583 72.4247 60.1583 72.5939 59.908 72.7631L57.6552 74.1169C57.4049 74.2015 57.1546 74.2861 56.9042 74.1169Z" fill="#5793CE"/>
<path d="M60.4081 76.2321L58.1554 74.8784C57.9885 74.7938 57.9885 74.6245 58.2388 74.4553L60.4916 73.1016C60.7419 73.017 60.9922 72.9324 61.2425 73.1016L63.4953 74.4553C63.6622 74.5399 63.6622 74.7092 63.4119 74.8784L61.1591 76.1475C60.9088 76.3167 60.6585 76.3167 60.4081 76.2321Z" fill="#5793CE"/>
<path d="M63.996 78.2624L61.7433 76.9086C61.5764 76.824 61.5764 76.6548 61.8267 76.4856L64.0795 75.1319C64.3298 75.0473 64.5801 74.9627 64.8304 75.1319L67.0832 76.4856C67.2501 76.5702 67.2501 76.7394 66.9998 76.9086L64.747 78.2624C64.4967 78.347 64.1629 78.347 63.996 78.2624Z" fill="#5793CE"/>
<path d="M67.4999 80.2931L65.2472 78.9394C65.0803 78.8548 65.0803 78.6856 65.3306 78.5164L67.5834 77.1626C67.8337 77.078 68.084 76.9934 68.3343 77.1626L70.5871 78.5164C70.754 78.601 70.754 78.7702 70.5037 78.9394L68.2509 80.2931C68.0006 80.3777 67.6668 80.3777 67.4999 80.2931Z" fill="#5793CE"/>
<path d="M71.0038 82.3234L68.7511 80.9697C68.5842 80.8851 68.5842 80.7159 68.8345 80.5466L71.0873 79.1929C71.3376 79.1083 71.5879 79.0237 71.8382 79.1929L74.091 80.5466C74.2579 80.6312 74.2579 80.8005 74.0076 80.9697L71.7548 82.3234C71.5045 82.4926 71.1707 82.4926 71.0038 82.3234Z" fill="#5793CE"/>
<path d="M77.1787 86.0465L72.2559 83.1699C72.0891 83.0853 72.0891 82.9161 72.3394 82.7468L74.5922 81.3931C74.8425 81.3085 75.0928 81.2239 75.3431 81.3931L80.2659 84.2698C80.4327 84.3544 80.4327 84.5236 80.1824 84.6928L77.9296 86.0465C77.6793 86.1311 77.429 86.1311 77.1787 86.0465Z" fill="#5793CE"/>
<path d="M84.0205 81.9853L79.8487 79.5317C79.6818 79.4471 79.6818 79.2779 79.9322 79.1086L82.1849 77.7549C82.4352 77.6703 82.6856 77.5857 82.9359 77.7549L87.1077 80.2086C87.2746 80.2932 87.2746 80.4624 87.0243 80.6316L84.7715 81.9853C84.5212 82.0699 84.2709 82.1545 84.0205 81.9853Z" fill="#5793CE"/>
<path d="M49.0605 65.487L46.8077 64.1333C46.6408 64.0486 46.6408 63.8794 46.8911 63.7102L49.1439 62.3565C49.3942 62.2719 49.6445 62.1873 49.8949 62.3565L52.1476 63.7102C52.3145 63.7948 52.3145 63.964 52.0642 64.1333L49.8114 65.487C49.5611 65.5716 49.2274 65.6562 49.0605 65.487Z" fill="#5793CE"/>
<path d="M45.4736 63.3717L43.2208 62.018C43.0539 61.9334 43.0539 61.7642 43.3042 61.595L45.557 60.2413C45.8073 60.1566 46.0576 60.072 46.3079 60.2413L48.5607 61.595C48.7276 61.6796 48.7276 61.8488 48.4773 62.018L46.2245 63.3717C45.9742 63.541 45.6404 63.541 45.4736 63.3717Z" fill="#5793CE"/>
<path d="M41.8851 61.341L39.5489 59.9873C39.382 59.9026 39.382 59.7334 39.6324 59.5642L41.8851 58.2105C42.1355 58.1259 42.3858 58.0413 42.6361 58.2105L44.8889 59.5642C45.0557 59.6488 45.0557 59.818 44.8054 59.9873L42.5526 61.341C42.3858 61.4256 42.052 61.4256 41.8851 61.341Z" fill="#5793CE"/>
<path d="M38.2148 59.2257L35.962 57.872C35.7951 57.7874 35.7951 57.6182 36.0454 57.449L38.2982 56.0953C38.5485 56.0106 38.7988 55.926 39.0492 56.0953L41.3019 57.449C41.4688 57.5336 41.4688 57.7028 41.2185 57.872L38.9657 59.2257C38.7154 59.3104 38.4651 59.3104 38.2148 59.2257Z" fill="#5793CE"/>
<path d="M52.5654 67.6017L50.3126 66.248C50.1457 66.1634 50.1457 65.9942 50.396 65.825L52.6488 64.4712C52.8991 64.3866 53.1494 64.302 53.3997 64.4712L55.6525 65.825C55.8194 65.9096 55.8194 66.0788 55.5691 66.248L53.3163 67.6017C53.066 67.6863 52.7322 67.6863 52.5654 67.6017Z" fill="#5793CE"/>
<path d="M56.0703 69.6325L53.8175 68.2788C53.6506 68.1941 53.6506 68.0249 53.9009 67.8557L56.1537 66.502C56.404 66.4174 56.6543 66.3328 56.9046 66.502L59.1574 67.8557C59.3243 67.9403 59.3243 68.1095 59.074 68.2788L56.8212 69.6325C56.5709 69.7171 56.2371 69.7171 56.0703 69.6325Z" fill="#5793CE"/>
<path d="M59.5732 71.6632L57.3204 70.3095C57.1535 70.2249 57.1535 70.0557 57.4038 69.8865L59.6566 68.5328C59.9069 68.4481 60.1572 68.3635 60.4075 68.5328L62.6603 69.8865C62.8272 69.9711 62.8272 70.1403 62.5769 70.3095L60.3241 71.6632C60.0738 71.7479 59.7401 71.7479 59.5732 71.6632Z" fill="#5793CE"/>
<path d="M63.0781 73.778L60.8253 72.4243C60.6584 72.3397 60.6584 72.1704 60.9087 72.0012L63.1615 70.6475C63.4118 70.5629 63.6621 70.4783 63.9124 70.6475L66.1652 72.0012C66.3321 72.0858 66.3321 72.255 66.0818 72.4243L63.829 73.778C63.5787 73.8626 63.2449 73.8626 63.0781 73.778Z" fill="#5793CE"/>
<path d="M66.583 75.8092L64.3302 74.4555C64.1633 74.3709 64.1633 74.2017 64.4136 74.0325L66.6664 72.6788C66.9167 72.5941 67.167 72.5095 67.4173 72.6788L69.6701 74.0325C69.837 74.1171 69.837 74.2863 69.5867 74.4555L67.3339 75.8092C67.0836 75.8938 66.7498 75.8938 66.583 75.8092Z" fill="#5793CE"/>
<path d="M70.0869 77.839L67.8341 76.4853C67.6672 76.4007 67.6672 76.2315 67.9175 76.0623L70.1703 74.7085C70.4206 74.6239 70.6709 74.5393 70.9212 74.7085L73.174 76.0623C73.3409 76.1469 73.3409 76.3161 73.0906 76.4853L70.8378 77.839C70.5875 77.9236 70.2537 77.9236 70.0869 77.839Z" fill="#5793CE"/>
<path d="M73.5917 79.8703L71.339 78.5166C71.1721 78.4319 71.1721 78.2627 71.4224 78.0935L73.6752 76.7398C73.9255 76.6552 74.1758 76.5706 74.4261 76.7398L76.6789 78.0935C76.8458 78.1781 76.8458 78.3473 76.5955 78.5166L74.3427 79.8703C74.0924 79.9549 73.7586 80.0395 73.5917 79.8703Z" fill="#5793CE"/>
<path d="M77.0956 81.985L74.8429 80.6313C74.676 80.5467 74.676 80.3775 74.9263 80.2083L77.1791 78.8545C77.4294 78.7699 77.6797 78.6853 77.93 78.8545L80.1828 80.2083C80.3497 80.2929 80.3497 80.4621 80.0994 80.6313L77.8466 81.985C77.5963 82.0696 77.346 82.0696 77.0956 81.985Z" fill="#5793CE"/>
<path d="M80.5996 84.0158L78.3468 82.6621C78.1799 82.5775 78.1799 82.4082 78.4302 82.239L80.683 80.8853C80.9333 80.8007 81.1836 80.7161 81.4339 80.8853L83.6867 82.239C83.8536 82.3236 83.8536 82.4928 83.6033 82.6621L81.3505 84.0158C81.1002 84.1004 80.8499 84.1004 80.5996 84.0158Z" fill="#5793CE"/>
<path d="M47.2246 60.4103L44.9718 59.0566C44.8049 58.972 44.8049 58.8028 45.0552 58.6336L47.308 57.2798C47.5583 57.1952 47.8086 57.1106 48.0589 57.2798L50.3117 58.6336C50.4786 58.7182 50.4786 58.8874 50.2283 59.0566L47.892 60.4103C47.7252 60.4949 47.3914 60.5795 47.2246 60.4103Z" fill="#5793CE"/>
<path d="M43.7206 58.3796L41.4679 57.0258C41.301 56.9412 41.301 56.772 41.5513 56.6028L43.8041 55.2491C44.0544 55.1645 44.3047 55.0798 44.555 55.2491L46.8078 56.6028C46.9747 56.6874 46.9747 56.8566 46.7244 57.0258L44.3881 58.3796C44.2213 58.4642 43.8875 58.4642 43.7206 58.3796Z" fill="#5793CE"/>
<path d="M40.2167 56.3493L37.964 54.9956C37.7971 54.9109 37.7971 54.7417 38.0474 54.5725L40.3002 53.2188C40.5505 53.1342 40.8008 53.0496 41.0511 53.2188L43.3039 54.5725C43.4708 54.6571 43.4708 54.8263 43.2205 54.9956L40.9677 56.3493C40.7174 56.4339 40.3836 56.4339 40.2167 56.3493Z" fill="#5793CE"/>
<path d="M36.7119 54.3185L34.4591 52.9648C34.2922 52.8802 34.2922 52.711 34.5425 52.5418L36.7953 51.188C37.0456 51.1034 37.2959 51.0188 37.5462 51.188L39.799 52.5418C39.9659 52.6264 39.9659 52.7956 39.7156 52.9648L37.4628 54.3185C37.2125 54.4031 36.8787 54.4031 36.7119 54.3185Z" fill="#5793CE"/>
<path d="M40.2998 52.2033L38.047 50.8495C37.8802 50.7649 37.8802 50.5957 38.047 50.4265L38.798 50.0035C39.0483 49.9189 39.2986 49.8342 39.5489 50.0035L41.8017 51.3572C41.9685 51.4418 41.9685 51.611 41.7182 51.7802L40.9673 52.2033C40.8004 52.2879 40.4667 52.2879 40.2998 52.2033Z" fill="#5793CE"/>
<path d="M44.8896 54.8258L42.6368 53.4721C42.4699 53.3875 42.4699 53.2183 42.7202 53.0491L43.4712 52.626C43.7215 52.5414 43.9718 52.4568 44.2221 52.626L46.4749 53.9797C46.6418 54.0643 46.6418 54.2336 46.3914 54.4028L45.6405 54.8258C45.3902 54.995 45.0565 54.995 44.8896 54.8258Z" fill="#5793CE"/>
<path d="M48.3095 56.9415L46.0567 55.5878C45.8899 55.5032 45.8899 55.334 46.1402 55.1648L46.8911 54.7417C47.1414 54.6571 47.3917 54.5725 47.642 54.7417L49.8948 56.0955C50.0617 56.1801 50.0617 56.3493 49.8114 56.5185L49.0604 56.9415C48.8101 57.0262 48.5598 57.0262 48.3095 56.9415Z" fill="#5793CE"/>
<path d="M51.8144 58.9718L49.5616 57.6181C49.3947 57.5335 49.3947 57.3643 49.645 57.1951L50.396 56.772C50.6463 56.6874 50.8966 56.6028 51.1469 56.772L53.3997 58.1257C53.5666 58.2103 53.5666 58.3796 53.3163 58.5488L52.5653 58.9718C52.315 59.0564 51.9813 59.0564 51.8144 58.9718Z" fill="#5793CE"/>
<path d="M55.3183 61.0026L53.0655 59.6489C52.8986 59.5642 52.8986 59.395 53.149 59.2258L53.8999 58.8028C54.1502 58.7182 54.4005 58.6336 54.6508 58.8028L56.9036 60.1565C57.0705 60.2411 57.0705 60.4103 56.8202 60.5795L55.9858 60.918C55.8189 61.0872 55.4852 61.0872 55.3183 61.0026Z" fill="#5793CE"/>
<path d="M74.6757 72.34L72.4229 70.9863C72.2561 70.9016 72.2561 70.7324 72.5064 70.5632L73.2573 70.1402C73.5076 70.0556 73.7579 69.971 74.0082 70.1402L76.261 71.4939C76.4279 71.5785 76.4279 71.7477 76.1776 71.9169L75.4267 72.34C75.2598 72.4246 74.926 72.4246 74.6757 72.34Z" fill="#5793CE"/>
<path d="M78.1806 74.3703L75.9278 73.0165C75.761 72.9319 75.7609 72.7627 76.0113 72.5935L76.7622 72.1705C77.0125 72.0858 77.2628 72.0012 77.5131 72.1705L79.7659 73.5242C79.9328 73.6088 79.9328 73.778 79.6825 73.9472L78.9315 74.3703C78.6812 74.4549 78.3475 74.4549 78.1806 74.3703Z" fill="#5793CE"/>
<path d="M81.6845 76.401L79.4317 75.0473C79.2649 74.9627 79.2649 74.7935 79.5152 74.6243L80.2661 74.2012C80.5164 74.1166 80.7667 74.032 81.017 74.2012L83.2698 75.5549C83.4367 75.6396 83.4367 75.8088 83.1864 75.978L82.4354 76.401C82.1851 76.4856 81.8514 76.4856 81.6845 76.401Z" fill="#5793CE"/>
<path d="M85.1884 78.4318L82.9356 77.0781C82.7688 76.9934 82.7688 76.8242 83.0191 76.655L83.77 76.232C84.0203 76.1474 84.2706 76.0628 84.5209 76.232L86.7737 77.5857C86.9406 77.6703 86.9406 77.8395 86.6903 78.0087L85.9393 78.4318C85.689 78.5164 85.3553 78.5164 85.1884 78.4318Z" fill="#5793CE"/>
<path d="M50.7294 62.5256L48.4766 61.1718C48.3098 61.0872 48.3098 60.918 48.5601 60.7488L50.8129 59.3951C51.0632 59.3105 51.3135 59.2258 51.5638 59.3951L53.8166 60.7488C53.9835 60.8334 53.9835 61.0026 53.7332 61.1718L51.4804 62.5256C51.2301 62.6102 50.8963 62.6102 50.7294 62.5256Z" fill="#5793CE"/>
<path d="M54.2343 64.5563L51.9815 63.2026C51.8147 63.118 51.8147 62.9488 52.065 62.7795L54.3178 61.4258C54.5681 61.3412 54.8184 61.2566 55.0687 61.4258L57.3215 62.7795C57.4883 62.8642 57.4883 63.0334 57.238 63.2026L54.9852 64.5563C54.7349 64.6409 54.4012 64.6409 54.2343 64.5563Z" fill="#5793CE"/>
<path d="M57.7382 66.5866L55.4854 65.2329C55.3186 65.1483 55.3186 64.979 55.5689 64.8098L57.8217 63.4561C58.072 63.3715 58.3223 63.2869 58.5726 63.4561L60.8254 64.8098C60.9923 64.8944 60.9923 65.0636 60.7419 65.2329L58.4892 66.5866C58.2388 66.6712 57.9051 66.6712 57.7382 66.5866Z" fill="#5793CE"/>
<path d="M61.2421 68.6173L58.9893 67.2636C58.8225 67.179 58.8225 67.0098 59.0728 66.8406L61.3256 65.4869C61.5759 65.4022 61.8262 65.3176 62.0765 65.4869L64.3293 66.8406C64.4962 66.9252 64.4962 67.0944 64.2458 67.2636L61.9931 68.6173C61.7428 68.7866 61.409 68.7866 61.2421 68.6173Z" fill="#5793CE"/>
<path d="M64.747 70.7326L62.4942 69.3789C62.3274 69.2942 62.3274 69.125 62.5777 68.9558L64.8305 67.6021C65.0808 67.5175 65.3311 67.4329 65.5814 67.6021L67.8342 68.9558C68.001 69.0404 68.001 69.2096 67.7507 69.3789L65.4979 70.7326C65.2476 70.8172 64.9139 70.8172 64.747 70.7326Z" fill="#5793CE"/>
<path d="M68.2509 72.7629L65.9981 71.4091C65.8313 71.3245 65.8313 71.1553 66.0816 70.9861L68.3344 69.6324C68.5847 69.5478 68.835 69.4631 69.0853 69.6324L71.3381 70.9861C71.5049 71.0707 71.5049 71.2399 71.2546 71.4091L69.0019 72.7629C68.7515 72.8475 68.4178 72.8475 68.2509 72.7629Z" fill="#5793CE"/>
<path d="M71.7558 74.7936L69.503 73.4399C69.3361 73.3553 69.3361 73.1861 69.5865 73.0169L71.8392 71.6631C72.0895 71.5785 72.3399 71.4939 72.5902 71.6631L74.843 73.0169C75.0098 73.1015 75.0098 73.2707 74.7595 73.4399L72.5067 74.7936C72.2564 74.8782 71.9227 74.9628 71.7558 74.7936Z" fill="#5793CE"/>
<path d="M75.2597 76.9089L73.0069 75.5551C72.8401 75.4705 72.8401 75.3013 73.0904 75.1321L75.3431 73.7784C75.5935 73.6938 75.8438 73.6091 76.0941 73.7784L78.3469 75.1321C78.5137 75.2167 78.5137 75.3859 78.2634 75.5551L76.0106 76.9089C75.7603 76.9935 75.4266 76.9935 75.2597 76.9089Z" fill="#5793CE"/>
<path d="M78.7646 78.9396L76.5118 77.5859C76.3449 77.5013 76.3449 77.3321 76.5952 77.1628L78.848 75.8091C79.0983 75.7245 79.3486 75.6399 79.599 75.8091L81.8517 77.1628C82.0186 77.2475 82.0186 77.4167 81.7683 77.5859L79.5155 78.9396C79.2652 79.0242 78.9315 79.0242 78.7646 78.9396Z" fill="#5793CE"/>
<path d="M30.6213 62.7791L23.9464 58.8872C23.7795 58.8025 23.7795 58.6333 24.0298 58.4641L26.2826 57.1104C26.5329 57.0258 26.7832 56.9412 27.0335 57.1104L33.7084 61.0024C33.8753 61.087 33.8753 61.2562 33.625 61.4254L31.3722 62.7791C31.1219 62.8637 30.7882 62.8637 30.6213 62.7791Z" fill="#5793CE"/>
<path d="M73.758 87.9925L67.0831 84.1005C66.9162 84.0159 66.9162 83.8467 67.1665 83.6775L69.4193 82.3238C69.6696 82.2392 69.9199 82.1546 70.1702 82.3238L76.8452 86.2157C77.012 86.3003 77.012 86.4696 76.7617 86.6388L74.5089 87.9925C74.2586 88.0771 73.9249 88.0771 73.758 87.9925Z" fill="#5793CE"/>
<path d="M59.7412 84.2696L57.4884 82.9159C57.3215 82.8313 57.3215 82.6621 57.5718 82.4928L60.2418 80.8853C60.4921 80.8007 60.7424 80.7161 60.9927 80.8853L63.2455 82.239C63.4124 82.3236 63.4124 82.4928 63.1621 82.6621L60.4086 84.2696C60.2418 84.4388 59.908 84.4388 59.7412 84.2696Z" fill="#5793CE"/>
<path d="M34.2094 69.3787L30.5382 67.2635C30.3713 67.1789 30.3713 67.0097 30.6216 66.8405L33.2916 65.233C33.5419 65.1483 33.7922 65.0637 34.0425 65.233L37.7137 67.3481C37.8806 67.4328 37.8806 67.602 37.6303 67.7712L34.9603 69.3787C34.71 69.4633 34.3763 69.4633 34.2094 69.3787Z" fill="#5793CE"/>
<path d="M56.3197 82.3236L52.6485 80.2084C52.4817 80.1238 52.4817 79.9545 52.732 79.7853L55.4019 78.1778C55.6522 78.0932 55.9026 78.0086 56.1529 78.1778L59.8241 80.293C59.9909 80.3776 59.9909 80.5468 59.7406 80.716L57.0707 82.3236C56.8204 82.4082 56.4866 82.4082 56.3197 82.3236Z" fill="#5793CE"/>
<path d="M39.2982 72.3397L35.627 70.2245C35.4602 70.1399 35.4602 69.9707 35.7105 69.8014L38.3804 68.1939C38.6308 68.1093 38.8811 68.0247 39.1314 68.1939L42.8026 70.3091C42.9695 70.3937 42.9695 70.5629 42.7191 70.7321L40.0492 72.3397C39.7989 72.4243 39.4651 72.4243 39.2982 72.3397Z" fill="#5793CE"/>
<path d="M39.1328 68.1943L54.9023 77.4166C55.0692 77.5012 55.0692 77.755 54.9023 77.8396L52.2323 79.5318C52.0655 79.6164 51.7317 79.6164 51.4814 79.5318L35.7119 70.2249L39.1328 68.1943Z" fill="#5793CE"/>
<path d="M69.5032 87.9922L72.0063 89.5151C72.1732 89.5997 72.1732 89.769 71.9229 89.8536L70.8382 90.5304C70.6713 90.615 70.421 90.615 70.2542 90.5304L67.7511 89.0075C67.5842 88.9229 67.5842 88.7537 67.8345 88.6691L68.9192 87.9922C69.086 87.9922 69.4198 87.9076 69.5032 87.9922Z" fill="#5793CE"/>
<path d="M65.9993 85.9619L68.5024 87.4848C68.6693 87.5694 68.6693 87.7387 68.419 87.8233L67.3343 88.5001C67.1674 88.5847 66.9171 88.5847 66.7503 88.5001L64.2472 86.9772C64.0803 86.8926 64.0803 86.7234 64.3306 86.6388L65.4153 85.9619C65.5821 85.8773 65.8325 85.8773 65.9993 85.9619Z" fill="#5793CE"/>
<path d="M62.4944 83.9311L64.9975 85.4541C65.1644 85.5387 65.1644 85.7079 64.9141 85.7925L63.8294 86.4694C63.6626 86.554 63.4122 86.554 63.2454 86.4694L60.7423 84.9464C60.5754 84.8618 60.5754 84.6926 60.8257 84.608L61.9104 83.9311C62.0773 83.8465 62.3276 83.8465 62.4944 83.9311Z" fill="#5793CE"/>
<path d="M67.9173 84.8618L70.4204 86.3847C70.5873 86.4693 70.5873 86.6386 70.337 86.7232L69.2523 87.4C69.0854 87.4846 68.8351 87.4846 68.6682 87.4L66.1651 85.8771C65.9983 85.7925 65.9983 85.6233 66.2486 85.5387L67.3332 84.8618C67.5001 84.7772 67.7504 84.7772 67.9173 84.8618Z" fill="#5793CE"/>
<path d="M60.9095 22.7597L55.1523 19.46L55.4027 18.1909L61.1598 21.5752L60.9095 22.7597Z" fill="#D4ECFF"/>
<path d="M60.2411 25.7208L54.5674 22.3365L54.8177 21.0674L60.4914 24.4517L60.2411 25.7208Z" fill="white"/>
<path d="M88.2762 65.8252L82.6025 62.5255L82.7694 61.2563L88.5265 64.6407L88.2762 65.8252Z" fill="#D4ECFF"/>
<path d="M58.9901 31.4746L53.3164 28.1749L53.5667 26.9058L59.2404 30.2055L58.9901 31.4746Z" fill="#D4ECFF"/>
<path d="M70.5872 37.6503L64.83 34.266C64.3294 33.9276 63.9957 33.2507 64.1625 32.5738L65.4141 26.9051C65.581 26.3129 66.0816 26.059 66.5822 26.3129L72.3393 29.6972C72.8399 30.0356 73.1737 30.7125 73.0068 31.3893L71.7553 37.058C71.6718 37.6503 71.0878 37.9041 70.5872 37.6503Z" fill="#FF2C9C"/>
<path d="M80.6838 43.4882L74.9267 40.1039C74.4261 39.7655 74.0924 39.0886 74.2592 38.4117L75.5108 32.743C75.6776 32.1507 76.1783 31.8969 76.6789 32.1507L82.436 35.5351C82.9366 35.8735 83.2704 36.5504 83.1035 37.2272L81.8519 42.8959C81.6851 43.5728 81.1845 43.8266 80.6838 43.4882Z" fill="#B3E0FF"/>
<path d="M68.4182 47.7187L62.6611 44.3344C62.1605 43.9959 61.8267 43.3191 61.9936 42.6422L63.2452 36.9735C63.412 36.3812 63.9126 36.1274 64.4133 36.3812L70.1704 39.7655C70.671 40.104 71.0047 40.7808 70.8379 41.4577L69.5863 47.1264C69.4195 47.8033 68.9188 48.0571 68.4182 47.7187Z" fill="white"/>
<path d="M78.4299 53.641L72.6728 50.2567C72.1722 49.9183 71.8385 49.2414 72.0053 48.5646L73.2569 42.8958C73.4237 42.3036 73.9244 42.0498 74.425 42.3036L80.1821 45.6879C80.6827 46.0263 81.0165 46.7032 80.8496 47.38L79.598 53.0488C79.4312 53.641 78.9305 53.8949 78.4299 53.641Z" fill="#396CAA"/>
</svg>
