<svg width="130" height="124" viewBox="0 0 130 124" fill="none" xmlns="http://www.w3.org/2000/svg">
<path d="M53.1615 99.4627L126.823 56.2997C127.536 55.8984 127.851 55.3458 127.818 54.8356L127.821 52.1358L126.941 53.2575C126.759 53.1511 126.612 52.9834 126.37 52.8416L82.2891 27.0342C80.5331 26.0061 77.9406 25.8801 76.4449 26.8055L2.85328 69.8457L1.69595 68.7588L1.72773 71.3972C1.75082 72.0656 2.20712 72.824 3.11538 73.3557L47.2568 99.1986C49.0128 100.227 51.6053 100.353 53.1615 99.4627Z" fill="#396CAA"/>
<path d="M1.75439 71.4943C1.77747 72.1627 2.26873 72.8597 3.23754 73.4269L47.2579 99.1988C48.0451 99.6597 49.0326 99.9104 49.969 99.9674L49.9359 42.3132L2.81938 69.9073L1.66206 68.8204L1.75439 71.4943Z" fill="#173D7A"/>
<path d="M2.78753 67.2689L76.4491 24.1059C78.0054 23.2159 80.5978 23.342 82.3538 24.37L126.435 50.1774C128.191 51.2055 128.384 52.7101 126.827 53.6001L53.1657 96.7631C51.67 97.6885 49.017 97.527 47.3216 96.5344L3.24066 70.727C1.48469 69.699 1.32679 68.1329 2.78753 67.2689Z" fill="#D4ECFF"/>
<path d="M53.0511 97.1049L126.773 53.9773C127.391 53.602 127.731 53.1462 127.733 52.5746C127.584 52.9785 127.314 53.3114 126.827 53.5994L53.1654 96.7624C51.6697 97.6878 49.0166 97.5263 47.3212 96.5337L3.24033 70.7263C2.27151 70.1591 1.75465 69.3653 1.82708 68.6709C1.52867 69.4786 1.97562 70.3952 3.18663 71.1042L47.207 96.8762C48.9024 97.8688 51.5554 98.0303 53.0511 97.1049Z" fill="white"/>
<path d="M4.13564 68.3035L78.2492 24.914C78.771 24.5646 79.7074 24.6216 80.3129 24.9761L125.302 51.3152C125.908 51.6697 126.001 52.2154 125.418 52.5293L51.3046 95.9189C50.7828 96.2683 49.8464 96.2113 49.2409 95.8568L4.25172 69.5177C3.64621 69.1632 3.61376 68.6529 4.13564 68.3035Z" fill="#173D7A"/>
<path d="M65.43 60.6708L70.2642 57.8521C70.7161 57.6255 71.4359 57.6376 71.9203 57.9212L76.5221 60.6154C77.0065 60.899 77.074 61.3478 76.622 61.5744L71.7878 64.393C71.3358 64.6196 70.6161 64.6076 70.1317 64.324L65.5298 61.6298C65.106 61.3817 65.0036 60.9943 65.43 60.6708Z" fill="#FF2C9C"/>
<path d="M57.0208 65.6532L61.855 62.8346C62.307 62.608 63.0267 62.62 63.5111 62.9036L68.113 65.5978C68.5974 65.8814 68.6648 66.3302 68.2128 66.5568L63.3786 69.3755C62.9267 69.6021 62.2069 69.59 61.7225 69.3064L57.1207 66.6122C56.6362 66.3286 56.5688 65.8798 57.0208 65.6532Z" fill="#B3E0FF"/>
<path d="M57.3157 55.9198L62.1499 53.1012C62.6019 52.8746 63.3216 52.8866 63.806 53.1702L68.4079 55.8644C68.8923 56.148 68.9597 56.5968 68.5077 56.8234L63.6735 59.6421C63.2216 59.8687 62.5018 59.8566 62.0174 59.573L57.4156 56.8788C56.9312 56.5952 56.8288 56.2078 57.3157 55.9198Z" fill="white"/>
<path d="M48.8479 60.8676L53.6821 58.0489C54.1341 57.8223 54.8538 57.8344 55.3383 58.118L59.9401 60.8121C60.4245 61.0957 60.4919 61.5445 60.04 61.7711L55.2058 64.5898C54.7538 64.8164 54.0341 64.8044 53.5497 64.5208L48.9478 61.8266C48.5239 61.5784 48.4565 61.1296 48.8479 60.8676Z" fill="#396CAA"/>
</svg>
