<svg width="640" height="481" viewBox="0 0 640 481" fill="none" xmlns="http://www.w3.org/2000/svg">
<path d="M476.105 238.009L418.78 271.074L361.647 238.201L418.972 205.136L476.105 238.009ZM480.337 238.009L418.972 202.637L357.415 238.201L418.78 273.573L480.337 238.009Z" fill="#45108A"/>
<path d="M410.316 278.187L349.144 242.815L351.644 241.47L412.817 276.649L410.316 278.187Z" fill="#45108A"/>
<path d="M403.198 282.224L342.026 247.044L344.527 245.506L405.699 280.878L403.198 282.224Z" fill="#45108A"/>
<path d="M367.418 269.921L334.716 251.082L337.217 249.736L369.919 268.575L367.418 269.921Z" fill="#45108A"/>
<path d="M555.359 283.762L498.034 316.827L440.902 283.954L498.227 250.889L555.359 283.762ZM559.591 283.762L498.227 248.198L436.67 283.762L498.034 319.134L559.591 283.762Z" fill="#45108A"/>
<path d="M489.57 323.94L428.398 288.568L430.899 287.222L492.071 322.402L489.57 323.94Z" fill="#45108A"/>
<path d="M482.453 327.977L421.281 292.605L423.781 291.259L484.953 326.631L482.453 327.977Z" fill="#45108A"/>
<path d="M446.673 315.674L413.971 296.834L416.471 295.489L449.174 314.136L446.673 315.674Z" fill="#45108A"/>
<path d="M369.727 299.334L312.402 332.399L255.269 299.526L312.594 266.461L369.727 299.334ZM373.959 299.334L312.594 263.962L251.037 299.526L312.402 334.898L373.959 299.334Z" fill="#45108A"/>
<path d="M303.746 339.512L242.573 304.332L245.074 302.794L306.246 338.166L303.746 339.512Z" fill="#45108A"/>
<path d="M296.82 343.741L235.648 308.369L237.956 307.023L299.129 342.203L296.82 343.741Z" fill="#45108A"/>
<path d="M261.04 331.438L228.338 312.598L230.839 311.061L263.349 329.9L261.04 331.438Z" fill="#45108A"/>
<path d="M448.981 345.087L391.656 378.152L334.524 345.279L391.849 312.214L448.981 345.087ZM453.213 345.087L391.849 309.715L330.292 345.279L391.656 380.651L453.213 345.087Z" fill="#45108A"/>
<path d="M383 385.265L321.828 350.085L324.329 348.547L385.501 383.919L383 385.265Z" fill="#45108A"/>
<path d="M375.882 389.302L314.903 354.122L317.211 352.584L378.383 387.956L375.882 389.302Z" fill="#45108A"/>
<path d="M340.295 376.999L307.593 358.351L310.094 356.813L342.603 375.653L340.295 376.999Z" fill="#45108A"/>
<path d="M262.771 361.042L205.446 394.108L148.313 361.235L205.638 328.169L262.771 361.042ZM267.003 361.042L205.638 325.67L144.081 361.235L205.446 396.607L267.003 361.042Z" fill="#45108A"/>
<path d="M196.982 401.221L135.81 366.041L138.311 364.503L199.483 399.875L196.982 401.221Z" fill="#45108A"/>
<path d="M189.864 405.257L128.692 370.077L131.193 368.54L192.365 403.912L189.864 405.257Z" fill="#45108A"/>
<path d="M154.084 392.954L121.382 374.115L123.883 372.769L156.585 391.608L154.084 392.954Z" fill="#45108A"/>
<path d="M342.025 406.795L284.701 439.861L227.568 406.988L284.893 373.922L342.025 406.795ZM346.257 406.795L284.893 371.423L223.336 406.988L284.701 442.36L346.257 406.795Z" fill="#45108A"/>
<path d="M276.237 446.974L215.064 411.602L217.565 410.256L278.737 445.628L276.237 446.974Z" fill="#45108A"/>
<path d="M269.119 451.01L207.947 415.83L210.448 414.292L271.62 449.665L269.119 451.01Z" fill="#45108A"/>
<path d="M233.339 438.707L200.637 419.868L203.138 418.522L235.84 437.361L233.339 438.707Z" fill="#45108A"/>
<path d="M450.328 176.493L471.296 188.604C472.065 189.181 473.604 189.181 474.374 188.604C475.143 188.027 475.143 187.258 474.374 186.874L453.406 174.763C452.637 174.186 451.098 174.186 450.328 174.763C449.559 175.147 449.559 175.916 450.328 176.493ZM469.18 189.757L448.212 177.646C447.443 177.069 445.904 177.069 445.134 177.646C444.365 178.223 444.365 178.992 445.134 179.376L466.102 191.487C466.872 192.064 468.41 192.064 469.18 191.487C469.949 191.103 469.949 190.334 469.18 189.757ZM463.986 192.833L443.018 180.722C442.249 180.145 440.71 180.145 439.94 180.722C439.171 181.299 439.171 182.068 439.94 182.452L460.908 194.563C461.678 195.14 463.217 195.14 463.986 194.563C464.756 194.179 464.756 193.41 463.986 192.833Z" fill="#45108A"/>
<path d="M233.917 476.771L84.4486 390.455C74.638 384.688 74.638 375.653 84.2562 369.886L436.093 166.881C445.903 161.306 461.87 161.306 471.68 166.881L621.148 253.196C630.959 258.963 630.959 267.999 621.341 273.766L269.504 476.771C259.694 482.346 243.727 482.346 233.917 476.771ZM470.334 167.842C461.293 162.652 446.673 162.652 437.632 167.842L85.7952 370.847C76.754 376.037 76.754 384.496 85.9875 389.686L235.456 476.002C244.497 481.192 259.116 481.192 268.158 476.002L619.994 272.997C629.035 267.806 629.035 259.348 619.802 254.158L470.334 167.842Z" fill="#45108A"/>
<path d="M593.256 263.577C593.256 264.154 592.294 264.731 591.332 264.731C590.178 264.731 589.408 264.154 589.408 263.577C589.408 263.001 590.37 262.424 591.332 262.424C592.486 262.424 593.256 262.808 593.256 263.577Z" fill="#45108A"/>
<path d="M590.177 254.158C589.985 254.158 589.985 254.158 589.792 254.158V255.311C589.985 255.311 589.985 255.311 590.177 255.311C598.449 255.311 605.374 259.156 605.374 263.962H607.297C607.297 258.579 599.603 254.158 590.177 254.158Z" fill="#45108A"/>
<path d="M590.177 258.771C589.985 258.771 589.985 258.771 589.792 258.771V259.925C589.985 259.925 589.985 259.925 590.177 259.925C594.024 259.925 597.295 261.847 597.295 263.962H599.218C599.411 261.271 595.178 258.771 590.177 258.771Z" fill="#45108A"/>
<path d="M590.177 256.465C589.985 256.465 589.985 256.465 589.792 256.465V257.618C589.985 257.618 589.985 257.618 590.177 257.618C596.333 257.618 601.334 260.502 601.334 263.962H603.258C603.45 259.925 597.487 256.465 590.177 256.465Z" fill="#45108A"/>
<path d="M551.319 242.047L491.109 207.251L494.956 205.137L555.359 239.932L551.319 242.047Z" fill="#45108A"/>
<path d="M411.47 348.932L386.463 334.514L364.726 347.009L389.733 361.427L411.47 348.932ZM389.733 359.889L367.419 347.009L386.463 336.052L408.777 348.932L389.733 359.889ZM425.513 342.395L397.812 326.44C394.927 324.902 390.503 324.902 387.617 326.44L353.376 346.24L391.08 367.963L425.321 348.163C428.206 346.625 428.206 343.933 425.513 342.395ZM391.272 366.233L356.261 346.048L385.309 329.323L420.319 349.508L391.272 366.233ZM421.666 348.739L386.655 328.554L389.156 327.209C391.08 326.055 394.35 326.055 396.466 327.209L424.167 343.164C426.09 344.318 426.283 346.24 424.167 347.394L421.666 348.739ZM418.396 342.011C417.626 341.434 416.087 341.434 415.318 342.011C414.548 342.588 414.548 343.357 415.318 343.741C416.087 344.318 417.626 344.318 418.396 343.741C419.165 343.164 419.357 342.395 418.396 342.011ZM411.855 338.166C411.086 337.589 409.547 337.589 408.777 338.166C408.008 338.743 408.008 339.512 408.777 339.896C409.547 340.473 411.086 340.473 411.855 339.896C412.625 339.32 412.625 338.551 411.855 338.166ZM405.122 334.321C404.353 333.745 402.814 333.745 402.044 334.321C401.275 334.898 401.275 335.667 402.044 336.052C402.814 336.628 404.353 336.628 405.122 336.052C405.892 335.475 405.892 334.706 405.122 334.321ZM398.39 330.477C397.62 329.9 396.081 329.9 395.312 330.477C394.542 331.053 394.542 331.822 395.312 332.207C396.081 332.783 397.62 332.783 398.39 332.207C399.351 331.63 399.351 330.861 398.39 330.477Z" fill="#A56EF4"/>
<path d="M302.014 416.792L307.592 413.524C310.285 411.986 310.285 409.487 307.592 407.949L282.969 393.723C280.276 392.185 275.852 392.185 273.351 393.723L267.773 396.991C265.079 396.607 262.194 396.991 260.27 398.145L247.189 405.642L248.536 406.411L254.307 403.143L291.433 424.674L285.663 427.942L287.009 428.711L300.09 421.213C302.014 419.868 302.591 418.33 302.014 416.792ZM274.698 394.492C276.621 393.339 279.699 393.339 281.623 394.492L306.246 408.718C308.169 409.871 308.169 411.602 306.246 412.755L301.052 415.639C300.667 415.254 300.282 415.062 299.898 414.677L299.513 414.485L300.475 413.908C302.398 412.755 302.398 411.025 300.475 409.871L293.55 405.834C292.011 404.873 289.51 404.681 287.586 405.258C288.548 404.104 288.356 402.759 286.817 401.797L279.892 397.76C277.968 396.607 274.698 396.607 272.774 397.76L271.812 398.337L271.427 398.145C270.85 397.76 270.273 397.568 269.696 397.376L274.698 394.492ZM284.316 405.642L272.966 399.106L273.928 398.529C275.082 397.76 277.198 397.76 278.353 398.529L285.278 402.566C286.432 403.335 286.432 404.489 285.278 405.065L284.316 405.642ZM298.166 413.716L286.817 407.18L287.779 406.603C288.933 405.834 291.049 405.834 292.203 406.603L299.128 410.64C300.282 411.409 300.282 412.563 299.128 413.139L298.166 413.716ZM255.461 402.374L261.424 398.914C263.733 397.568 267.58 397.568 269.889 398.914L298.743 415.446C301.052 416.792 301.052 418.907 298.743 420.252L292.78 423.713L255.461 402.374Z" fill="#A56EF4"/>
<path d="M523.618 289.337L521.502 273.766C521.31 271.843 518.232 270.113 514.962 269.921L488.031 268.768C485.915 268.768 483.991 269.152 482.452 269.921L460.33 282.609L499.38 305.101L521.502 292.413C523.041 291.836 523.811 290.683 523.618 289.337ZM511.115 290.683L485.722 276.073L487.454 275.111L512.846 289.722L511.115 290.683ZM484.376 276.842L509.768 291.452L493.994 300.487L468.602 285.877L484.376 276.842ZM499.573 303.755L495.341 301.256L515.539 289.529L487.454 273.381L467.255 285.108L463.023 282.609L483.799 270.69C484.953 270.113 486.299 269.729 487.838 269.729L514.769 270.882C517.27 271.074 519.386 272.228 519.579 273.766L521.695 289.337C521.887 290.298 521.31 291.067 520.156 291.644L499.573 303.755Z" fill="#A56EF4"/>
<g opacity="0.69">
<path opacity="0.090909" d="M401.055 67.2248L27.7148 281.7C18.2822 287.161 13 295.634 13 305.049C13 315.406 19.4141 325.009 30.7332 331.412L184.484 420.102C184.672 420.29 192.218 424.621 192.596 424.621C202.028 429.705 213.913 432.341 225.421 431.965C234.665 431.965 245.229 428.763 251.832 424.997L623.285 211.652C632.718 206.191 638 197.718 638 188.303C638 177.946 631.586 168.343 620.267 161.94L460.102 69.6728C456.707 67.7897 452.179 65.7184 448.217 64.4003C441.803 62.329 434.823 61.1992 427.843 61.0109C417.656 60.8226 408.412 63.0822 401.055 67.2248Z" fill="black"/>
</g>
<path d="M178.131 361.997L24.6232 273.375C7.31029 263.378 9.42631 245.885 29.4323 234.35L390.502 26.1551C410.508 14.6208 440.71 13.2751 458.023 23.2715L611.723 111.894C629.036 121.89 626.919 139.384 606.914 150.918L245.651 359.113C225.645 370.648 195.444 371.993 178.131 361.997Z" fill="url(#paint0_linear)"/>
<path d="M178.131 359.306L24.623 270.683C16.9283 266.262 13.081 260.302 12.8887 253.959C12.8887 253.382 12.8887 241.463 12.8887 240.886C13.4658 233.581 19.0444 237.618 29.4321 231.659L390.502 23.4637C410.508 11.9294 440.71 10.5837 458.022 20.5801L611.722 109.202C619.417 113.624 623.264 105.742 623.457 112.086C623.457 112.663 623.457 126.888 623.457 127.465C622.88 134.77 617.301 142.268 606.913 148.227L245.651 356.614C225.645 368.149 195.443 369.302 178.131 359.306Z" fill="url(#paint1_linear)"/>
<path d="M178.131 346.233L24.6232 257.611C7.31029 247.615 9.42631 230.121 29.4323 218.587L390.502 10.3914C410.508 -1.14291 440.71 -2.48859 458.023 7.50785L611.723 96.1301C629.036 106.127 626.919 123.62 606.914 135.155L245.651 343.35C225.645 354.884 195.444 356.23 178.131 346.233Z" fill="url(#paint2_linear)"/>
<path d="M24.6228 255.881L178.13 344.503C195.443 354.5 225.645 353.154 245.651 341.62L606.721 133.232C617.301 127.081 622.88 119.391 623.264 112.086C623.649 119.968 618.07 128.426 606.721 134.962L245.651 343.35C225.645 354.884 195.443 356.23 178.13 346.233L24.6228 257.611C16.3511 252.805 12.5038 246.461 12.8885 239.733C13.2732 245.884 17.1206 251.652 24.6228 255.881Z" fill="url(#paint3_radial)"/>
<path d="M33.4712 221.278L394.926 12.6981C412.431 2.50943 438.978 1.54824 454.174 10.199L606.913 98.2446C622.109 107.088 620.186 122.274 602.681 132.463L241.226 341.043C223.721 351.231 197.174 352.193 181.977 343.542L29.2391 255.496C14.0423 246.653 15.9659 231.274 33.4712 221.278Z" fill="url(#paint4_linear)"/>
<path d="M40.5896 224.161L400.313 16.5429C414.933 8.08439 437.247 7.12319 449.943 14.4283L599.411 100.744C612.107 108.049 610.569 120.929 595.756 129.387L236.033 337.006C221.413 345.464 199.099 346.425 186.403 339.12L36.9347 252.805C24.2386 245.5 25.7775 232.62 40.5896 224.161Z" fill="#1F0D3D"/>
<path d="M448.596 17.312C436.67 10.3914 417.241 10.3914 405.314 17.312L41.7434 227.045C29.8167 233.966 29.8167 245.116 41.9357 252.036L187.749 336.237C199.675 343.158 219.104 343.158 231.031 336.237L594.602 126.504C606.528 119.583 606.528 108.433 594.409 101.513L448.596 17.312Z" fill="#3D065F"/>
<path d="M209.486 338.544C217.18 338.544 224.298 336.813 229.492 333.738L593.062 124.005C597.871 121.313 600.565 117.661 600.565 114.2C600.565 110.548 597.871 107.088 593.062 104.204L447.057 20.0032C441.671 16.9274 434.553 15.1973 426.859 15.1973C419.164 15.1973 412.046 16.9274 406.853 20.0032L43.2818 229.736C38.4727 232.428 35.7795 236.08 35.7795 239.54C35.7795 243.193 38.4727 246.653 43.2818 249.537L189.287 333.738C194.673 336.813 201.791 338.544 209.486 338.544Z" fill="url(#paint5_linear)"/>
<path d="M538.623 185.906L555.359 176.294C557.475 175.14 559.206 171.872 559.206 168.989C559.206 166.297 557.475 164.952 555.359 166.105L538.623 175.717C536.507 176.871 534.776 180.139 534.776 183.022C534.776 185.906 536.507 187.251 538.623 185.906Z" fill="url(#paint6_linear)"/>
<path d="M538.623 185.906L555.359 176.294C557.475 175.14 559.206 171.872 559.206 168.989C559.206 166.297 557.475 164.952 555.359 166.105L538.623 175.717C536.507 176.871 534.776 180.139 534.776 183.022C534.776 185.906 536.507 187.251 538.623 185.906Z" fill="url(#paint7_linear)"/>
<path d="M537.084 185.329C537.469 185.329 537.661 185.137 538.046 184.945L554.782 175.333C556.513 174.372 558.052 171.296 558.052 168.989C558.052 167.836 557.667 166.682 556.706 166.682C556.321 166.682 556.129 166.874 555.744 167.067L539.008 176.679C537.277 177.64 535.738 180.716 535.738 183.022C535.738 184.176 536.123 185.329 537.084 185.329Z" fill="url(#paint8_linear)"/>
<path d="M508.807 203.208L525.543 193.596C527.659 192.442 529.39 189.174 529.39 186.29C529.39 183.599 527.659 182.253 525.543 183.407L508.807 193.019C506.691 194.172 504.959 197.44 504.959 200.324C504.959 203.208 506.691 204.361 508.807 203.208Z" fill="url(#paint9_linear)"/>
<path d="M508.807 203.208L525.543 193.596C527.659 192.442 529.39 189.174 529.39 186.29C529.39 183.599 527.659 182.253 525.543 183.407L508.807 193.019C506.691 194.172 504.959 197.44 504.959 200.324C504.959 203.208 506.691 204.361 508.807 203.208Z" fill="url(#paint10_linear)"/>
<path d="M507.268 202.631C507.652 202.631 507.845 202.438 508.23 202.246L524.965 192.634C526.697 191.673 528.236 188.597 528.236 186.29C528.236 185.137 527.851 183.983 526.889 183.983C526.504 183.983 526.312 184.176 525.927 184.368L509.191 193.98C507.46 194.941 505.921 198.017 505.921 200.324C505.921 201.477 506.306 202.631 507.268 202.631Z" fill="url(#paint11_linear)"/>
<path d="M362.801 276.066L606.72 134.77C617.108 128.811 622.494 121.314 623.264 114.008C623.264 113.816 623.264 110.933 623.264 107.665C623.264 107.665 623.264 122.659 623.264 123.236C622.687 130.541 617.108 138.038 606.72 143.998L362.801 276.066Z" fill="#3D065F"/>
<path d="M124.461 266.839L77.7158 239.925C73.099 237.234 73.6761 232.62 79.0623 229.544L122.922 204.361C128.308 201.285 136.387 200.9 141.004 203.592L187.749 230.505C192.366 233.197 191.789 237.81 186.402 240.886L142.351 266.07C137.157 269.145 129.077 269.53 124.461 266.839Z" fill="url(#paint12_linear)"/>
<path d="M186.21 239.156L142.35 264.34C136.964 267.415 128.885 267.8 124.268 265.109L77.523 238.195C75.7917 237.234 74.8299 235.888 74.4452 234.543C74.0604 236.465 75.0223 238.387 77.523 239.733L124.268 266.647C128.885 269.338 136.964 268.953 142.35 265.878L186.21 240.694C189.48 238.772 191.019 236.273 190.442 233.966C190.249 235.888 188.71 237.618 186.21 239.156Z" fill="url(#paint13_radial)"/>
<path d="M87.3342 305.863L114.842 321.627C114.842 316.628 111.765 310.861 108.11 308.554L94.2594 300.48C90.4121 298.558 87.3342 300.865 87.3342 305.863Z" fill="black"/>
<path d="M289.125 254.728L263.733 240.118C260.847 238.387 260.847 235.888 263.733 234.158L283.354 222.816C286.047 221.278 290.279 221.278 293.165 222.624L300.282 218.587C305.861 215.319 314.902 215.319 320.481 218.587L326.829 222.239C332.407 225.507 332.407 230.698 326.829 233.774L319.711 237.811C322.019 239.541 321.827 241.848 319.134 243.386L299.513 254.728C296.627 256.458 292.01 256.458 289.125 254.728ZM291.818 223.777C289.894 222.624 286.817 222.624 284.893 223.777L265.272 235.119C263.348 236.273 263.348 238.003 265.272 239.156L290.664 253.767C292.588 254.92 295.665 254.92 297.589 253.767L317.21 242.424C319.134 241.271 319.134 239.541 317.21 238.387L316.056 237.618L324.905 232.62C329.522 229.929 329.522 225.7 324.905 223.008L318.557 219.356C313.94 216.664 306.438 216.664 301.821 219.356L292.972 224.354L291.818 223.777ZM312.401 235.696L296.627 226.469L303.745 222.239C307.015 220.317 312.594 220.317 315.864 222.239L319.519 224.354C322.981 226.276 322.981 229.544 319.519 231.467L312.401 235.696ZM300.09 226.661L312.401 233.774L317.787 230.698C320.096 229.352 320.096 227.045 317.787 225.7L314.132 223.585C311.632 222.239 307.784 222.239 305.476 223.585L300.09 226.661Z" fill="#A56EF4"/>
<path d="M286.047 244.731L281.046 241.848L286.047 238.964C285.47 237.811 286.24 236.465 287.778 235.504C290.279 233.966 294.511 233.966 297.012 235.504C299.513 237.042 299.513 239.349 297.012 240.887C295.473 241.848 293.165 242.232 291.049 241.848L286.047 244.731Z" fill="#A56EF4"/>
<path d="M241.803 270.299L238.533 268.377C235.647 266.647 230.838 266.647 227.953 268.377L206.023 281.065C200.637 280.488 195.058 281.449 191.211 283.756C184.671 287.601 184.671 293.752 191.211 297.597C197.751 301.442 208.524 301.442 215.064 297.597C218.912 295.29 220.643 292.214 219.681 289.139L241.611 276.451C244.689 274.721 244.689 272.029 241.803 270.299ZM240.072 275.49L217.18 288.754L217.373 289.139C218.335 291.83 216.988 294.714 213.525 296.828C207.947 300.096 198.713 300.096 193.135 296.828C187.556 293.56 187.364 288.177 193.135 285.102C196.597 283.179 201.599 282.218 206.408 282.795H206.985L229.876 269.53C231.8 268.377 235.07 268.377 236.994 269.53L240.264 271.453C241.995 272.414 241.995 274.336 240.072 275.49Z" fill="#A56EF4"/>
<path d="M230.069 277.028L226.798 275.105C226.029 274.721 224.875 274.721 224.298 275.105L207.947 284.525L205.638 284.141C201.791 283.756 197.944 284.333 195.25 285.871C190.826 288.37 190.826 292.599 195.25 295.098C199.675 297.597 206.792 297.597 211.217 295.098C213.91 293.56 215.064 291.253 214.295 289.139L213.718 287.793L230.069 278.373C230.838 278.181 230.838 277.412 230.069 277.028Z" fill="#A56EF4"/>
<path d="M244.112 177.832L241.611 176.294L243.343 175.333C244.497 174.564 244.497 173.411 243.343 172.642L239.495 170.527C238.149 169.758 236.225 169.758 235.071 170.527L233.34 171.488L229.685 169.374C227.376 168.028 223.144 168.22 220.451 169.758L190.827 186.867C189.288 187.829 188.326 189.174 188.326 190.328C188.326 191.481 189.096 192.635 190.25 193.211L192.751 194.749L190.827 195.903C189.673 196.672 189.673 197.825 190.827 198.594L194.674 200.709C196.021 201.478 197.944 201.478 199.099 200.709L201.022 199.555L204.677 201.67C205.831 202.246 207.178 202.631 208.717 202.631C210.641 202.631 212.372 202.246 213.911 201.285L243.535 184.176C245.074 183.215 246.036 181.869 246.036 180.716C246.036 179.562 245.266 178.601 244.112 177.832ZM242.381 182.446L212.757 199.555C210.641 200.709 207.37 200.901 205.639 199.94L191.212 191.673C190.827 191.481 190.25 191.097 190.25 190.52C190.25 189.943 190.827 189.174 191.789 188.79L221.413 171.68C222.567 171.104 224.106 170.719 225.453 170.719C226.607 170.719 227.761 170.911 228.531 171.488L242.958 179.754C243.343 179.947 243.92 180.331 243.92 180.908C243.92 181.292 243.343 182.061 242.381 182.446Z" fill="#A56EF4"/>
<path d="M208.14 181.869L216.989 187.06L200.638 191.481L226.992 188.021L218.913 183.407L233.917 179.947L208.14 181.869Z" fill="#A56EF4"/>
<path d="M216.219 221.278C212.949 221.278 210.063 220.509 207.947 219.355L161.203 192.442C158.894 191.096 157.548 189.174 157.548 187.059C157.548 184.56 159.279 182.061 162.357 180.331L206.216 155.147C209.102 153.417 213.141 152.456 216.989 152.456C220.259 152.456 223.144 153.225 225.26 154.378L272.005 181.292C274.313 182.638 275.66 184.56 275.66 186.675C275.66 189.174 273.929 191.673 270.851 193.403L226.992 218.586C223.914 220.316 220.066 221.278 216.219 221.278ZM216.796 154.378C213.334 154.378 209.679 155.34 206.986 156.878L163.126 182.061C160.625 183.599 159.279 185.329 159.279 187.059C159.279 188.405 160.241 189.75 161.972 190.712L208.717 217.625C210.64 218.779 213.141 219.355 216.027 219.355C219.489 219.355 223.144 218.394 225.837 216.856L269.697 191.673C272.197 190.135 273.544 188.405 273.544 186.675C273.544 185.329 272.582 183.983 270.851 183.022L224.106 156.109C222.375 154.955 219.682 154.378 216.796 154.378Z" fill="#A56EF4"/>
<path d="M299.513 268.953C296.243 268.953 293.357 268.184 291.241 267.031L244.304 240.117C241.995 238.771 240.649 236.849 240.649 234.734C240.649 232.235 242.38 229.736 245.458 228.006L289.317 202.823C292.203 201.093 296.243 200.131 300.09 200.131C303.36 200.131 306.246 200.9 308.362 202.054L355.106 228.967C357.415 230.313 358.761 232.235 358.761 234.35C358.761 236.849 357.03 239.348 353.952 241.078L310.093 266.262C307.207 267.992 303.36 268.953 299.513 268.953ZM300.09 202.054C296.627 202.054 292.972 203.015 290.279 204.553L246.42 229.736C243.919 231.274 242.573 233.004 242.573 234.734C242.573 236.08 243.534 237.426 245.266 238.387L292.011 265.3C293.934 266.454 296.435 267.031 299.32 267.031C302.783 267.031 306.438 266.069 309.131 264.531L352.99 239.348C355.491 237.81 356.838 236.08 356.838 234.35C356.838 233.004 355.876 231.659 354.145 230.697L307.4 203.784C305.668 202.63 302.975 202.054 300.09 202.054Z" fill="#A56EF4"/>
<path d="M215.449 317.205C212.179 317.205 209.294 316.436 207.178 315.283L160.433 288.37C158.124 287.024 156.778 285.101 156.778 282.987C156.778 280.488 158.509 277.989 161.587 276.258L205.446 251.075C208.332 249.345 212.371 248.384 216.219 248.384C219.489 248.384 222.374 249.153 224.49 250.306L271.235 277.22C273.544 278.565 274.89 280.488 274.89 282.602C274.89 285.101 273.159 287.601 270.081 289.331L226.222 314.514C223.144 316.244 219.297 317.205 215.449 317.205ZM216.219 250.306C212.756 250.306 209.101 251.267 206.408 252.805L162.549 277.989C160.048 279.527 158.701 281.257 158.701 282.987C158.701 284.333 159.663 285.678 161.395 286.639L208.139 313.553C210.063 314.706 212.564 315.283 215.449 315.283C218.912 315.283 222.567 314.322 225.26 312.784L269.119 287.601C271.62 286.063 272.967 284.333 272.967 282.602C272.967 281.257 272.005 279.911 270.273 278.95L223.529 252.036C221.605 250.883 219.104 250.306 216.219 250.306Z" fill="#A56EF4"/>
<path d="M116.381 214.742C115.996 214.742 115.804 214.742 115.419 214.742V218.01C115.804 218.01 115.996 218.01 116.381 218.01C140.042 218.01 159.279 229.16 159.471 242.809C159.471 242.809 159.471 242.809 159.471 243.001H165.242C165.242 243.001 165.242 243.001 165.242 242.809C165.049 227.429 143.312 214.742 116.381 214.742Z" fill="white"/>
<path d="M116.573 227.814C116.188 227.814 115.996 227.814 115.611 227.814V231.082C115.996 231.082 116.188 231.082 116.573 231.082C127.538 231.082 136.579 236.272 136.579 242.616H142.35V242.424C142.35 234.542 130.616 228.006 116.573 227.814Z" fill="white"/>
<path d="M116.573 221.278C116.188 221.278 115.996 221.278 115.611 221.278V224.546C115.996 224.546 116.188 224.546 116.573 224.546C133.886 224.546 148.121 232.812 148.121 242.809C148.121 242.809 148.121 242.809 148.121 243.001H153.892C153.892 243.001 153.892 243.001 153.892 242.809C153.7 230.89 136.964 221.278 116.573 221.278Z" fill="white"/>
<path d="M125.229 241.079C125.229 242.809 122.729 244.347 119.458 244.347C116.381 244.347 113.688 242.809 113.688 241.079C113.688 239.348 116.188 237.811 119.458 237.811C122.536 237.811 125.229 239.348 125.229 241.079Z" fill="white"/>
<path d="M137.541 229.544C136.964 229.544 136.58 229.16 136.58 228.583V228.391C136.58 227.814 136.964 227.429 137.541 227.429C138.119 227.429 138.503 227.814 138.503 228.391V228.583C138.503 229.16 138.119 229.544 137.541 229.544ZM137.541 225.507C136.964 225.507 136.58 225.123 136.58 224.546V220.701C136.58 220.124 136.964 219.74 137.541 219.74C138.119 219.74 138.503 220.124 138.503 220.701V224.546C138.503 225.123 138.119 225.507 137.541 225.507ZM137.541 217.817C136.964 217.817 136.58 217.433 136.58 216.856V213.012C136.58 212.435 136.964 212.05 137.541 212.05C138.119 212.05 138.503 212.435 138.503 213.012V216.856C138.503 217.433 138.119 217.817 137.541 217.817ZM137.541 210.128C136.964 210.128 136.58 209.743 136.58 209.167V205.322C136.58 204.745 136.964 204.361 137.541 204.361C138.119 204.361 138.503 204.745 138.503 205.322V209.167C138.503 209.743 138.119 210.128 137.541 210.128ZM137.541 202.438C136.964 202.438 136.58 202.054 136.58 201.477V197.632C136.58 197.056 136.964 196.671 137.541 196.671C138.119 196.671 138.503 197.056 138.503 197.632V201.477C138.503 202.054 138.119 202.438 137.541 202.438ZM137.541 194.749C136.964 194.749 136.58 194.364 136.58 193.788V189.943C136.58 189.366 136.964 188.982 137.541 188.982C138.119 188.982 138.503 189.366 138.503 189.943V193.788C138.503 194.364 138.119 194.749 137.541 194.749ZM137.541 187.059C136.964 187.059 136.58 186.675 136.58 186.098V182.253C136.58 181.677 136.964 181.292 137.541 181.292C138.119 181.292 138.503 181.677 138.503 182.253V186.098C138.503 186.675 138.119 187.059 137.541 187.059ZM137.541 179.37C136.964 179.37 136.58 178.985 136.58 178.408V174.564C136.58 173.987 136.964 173.602 137.541 173.602C138.119 173.602 138.503 173.987 138.503 174.564V178.408C138.503 178.985 138.119 179.37 137.541 179.37ZM137.541 171.68C136.964 171.68 136.58 171.296 136.58 170.719V166.874C136.58 166.297 136.964 165.913 137.541 165.913C138.119 165.913 138.503 166.297 138.503 166.874V170.719C138.503 171.296 138.119 171.68 137.541 171.68ZM137.541 163.991C136.964 163.991 136.58 163.606 136.58 163.029V159.185C136.58 158.608 136.964 158.223 137.541 158.223C138.119 158.223 138.503 158.608 138.503 159.185V163.029C138.503 163.606 138.119 163.991 137.541 163.991ZM137.541 156.301C136.964 156.301 136.58 155.916 136.58 155.34V151.495C136.58 150.918 136.964 150.534 137.541 150.534C138.119 150.534 138.503 150.918 138.503 151.495V155.34C138.503 155.916 138.119 156.301 137.541 156.301ZM137.541 148.611C136.964 148.611 136.58 148.227 136.58 147.65V143.805C136.58 143.229 136.964 142.844 137.541 142.844C138.119 142.844 138.503 143.229 138.503 143.805V147.65C138.503 148.227 138.119 148.611 137.541 148.611ZM137.541 140.922C136.964 140.922 136.58 140.537 136.58 139.961V136.116C136.58 135.539 136.964 135.155 137.541 135.155C138.119 135.155 138.503 135.539 138.503 136.116V139.961C138.503 140.537 138.119 140.922 137.541 140.922ZM137.541 133.232C136.964 133.232 136.58 132.848 136.58 132.271V128.426C136.58 127.85 136.964 127.465 137.541 127.465C138.119 127.465 138.503 127.85 138.503 128.426V132.271C138.503 132.848 138.119 133.232 137.541 133.232ZM137.541 125.543C136.964 125.543 136.58 125.158 136.58 124.581V120.737C136.58 120.16 136.964 119.776 137.541 119.776C138.119 119.776 138.503 120.16 138.503 120.737V124.581C138.503 125.158 138.119 125.543 137.541 125.543ZM137.541 117.853C136.964 117.853 136.58 117.469 136.58 116.892V113.047C136.58 112.47 136.964 112.086 137.541 112.086C138.119 112.086 138.503 112.47 138.503 113.047V116.892C138.503 117.469 138.119 117.853 137.541 117.853Z" fill="#7C1DC9"/>
<path d="M97.5295 95.1691C74.0609 81.5201 73.8685 59.4126 97.3371 45.9559C120.806 32.4991 158.894 32.4991 182.555 46.1481C206.024 59.7971 206.216 81.7124 182.747 95.1691C159.279 108.818 120.998 108.626 97.5295 95.1691ZM179.477 47.8783C157.548 35.1905 121.96 35.1905 100.03 47.686C78.2929 60.3738 78.2929 80.7512 100.223 93.439C122.152 106.127 157.74 106.127 179.67 93.6312C201.599 80.9434 201.599 60.3738 179.477 47.8783Z" fill="#1BB0D4"/>
<path opacity="0.4" d="M85.6026 102.09C55.4012 84.5959 55.2088 56.3368 85.2179 39.0352C115.227 21.7337 164.088 21.7337 194.289 39.2275C224.49 56.7212 224.683 84.9804 194.674 102.282C164.665 119.583 115.804 119.391 85.6026 102.09ZM190.057 41.7266C162.164 25.7707 117.151 25.5785 89.4499 41.5343C61.9416 57.4902 61.9416 83.4425 89.8346 99.5906C117.728 115.546 162.741 115.739 190.442 99.7828C217.95 83.827 217.95 57.6824 190.057 41.7266Z" fill="#1BB0D4"/>
<path opacity="0.1" d="M72.7143 109.395C35.3954 87.8638 35.203 53.0685 72.3296 31.73C109.456 10.3914 169.859 10.3914 207.178 31.9222C244.497 53.453 244.689 88.2483 207.563 109.587C170.436 130.925 110.033 130.925 72.7143 109.395ZM201.407 35.1903C167.358 15.3896 111.957 15.3896 78.1006 34.998C44.2442 54.4142 44.2442 86.3259 78.4853 106.127C112.534 125.735 167.935 125.927 201.792 106.319C235.648 86.7104 235.648 54.7987 201.407 35.1903Z" fill="#1BB0D4"/>
<path d="M130.039 76.5215C130.039 78.2517 127.538 79.7896 124.268 79.7896C121.19 79.7896 118.497 78.2517 118.497 76.5215C118.497 74.7913 120.998 73.2534 124.268 73.2534C127.346 73.2534 130.039 74.7913 130.039 76.5215Z" fill="#1BB0D4"/>
<path d="M121.19 50.1846C120.806 50.1846 120.613 50.1846 120.229 50.1846V53.4526C120.613 53.4526 120.806 53.4526 121.19 53.4526C144.851 53.4526 164.088 64.6025 164.28 78.2515C164.28 78.2515 164.28 78.2515 164.28 78.4438H170.051C170.051 78.4438 170.051 78.4438 170.051 78.2515C169.859 62.8724 148.122 50.1846 121.19 50.1846Z" fill="#1BB0D4"/>
<path d="M121.382 63.4492C120.998 63.4492 120.805 63.4492 120.421 63.4492V66.7173C120.805 66.7173 120.998 66.7173 121.382 66.7173C132.347 66.7173 141.389 71.9078 141.389 78.2516H147.159V78.0594C147.159 69.9853 135.425 63.4492 121.382 63.4492Z" fill="#1BB0D4"/>
<path d="M121.382 56.7207C120.998 56.7207 120.805 56.7207 120.421 56.7207V59.9888C120.805 59.9888 120.998 59.9888 121.382 59.9888C138.695 59.9888 152.93 68.2551 152.93 78.2515C152.93 78.2515 152.93 78.2515 152.93 78.4437H158.701C158.701 78.4437 158.701 78.4437 158.701 78.2515C158.509 66.5249 141.773 56.7207 121.382 56.7207Z" fill="#1BB0D4"/>
<defs>
<linearGradient id="paint0_linear" x1="623.338" y1="192.637" x2="12.9166" y2="192.637" gradientUnits="userSpaceOnUse">
<stop stop-color="#2F054A"/>
<stop offset="1" stop-color="#5824B0"/>
</linearGradient>
<linearGradient id="paint1_linear" x1="543.08" y1="190.007" x2="-67.3399" y2="190.007" gradientUnits="userSpaceOnUse">
<stop offset="0.0555556" stop-color="#2F0D5E"/>
<stop offset="0.2777" stop-color="#2F105F"/>
<stop offset="0.4697" stop-color="#311B61"/>
<stop offset="0.482" stop-color="#351F65"/>
<stop offset="0.4954" stop-color="#422C73"/>
<stop offset="0.5093" stop-color="#584188"/>
<stop offset="0.5235" stop-color="#765FA7"/>
<stop offset="0.5303" stop-color="#8770B8"/>
<stop offset="0.5366" stop-color="#7E67AE"/>
<stop offset="0.5617" stop-color="#5C468D"/>
<stop offset="0.5857" stop-color="#442E75"/>
<stop offset="0.6078" stop-color="#362066"/>
<stop offset="0.6263" stop-color="#311B61"/>
<stop offset="0.6724" stop-color="#2A1155"/>
<stop offset="0.7491" stop-color="#230446"/>
<stop offset="0.8131" stop-color="#200041"/>
<stop offset="1" stop-color="#200041"/>
</linearGradient>
<linearGradient id="paint2_linear" x1="623.338" y1="176.859" x2="12.9166" y2="176.859" gradientUnits="userSpaceOnUse">
<stop stop-color="#58098A"/>
<stop offset="1" stop-color="#9E3BDB"/>
</linearGradient>
<radialGradient id="paint3_radial" cx="0" cy="0" r="1" gradientUnits="userSpaceOnUse" gradientTransform="translate(277.268 244.332) scale(232.015 231.862)">
<stop stop-color="white"/>
<stop offset="1"/>
</radialGradient>
<linearGradient id="paint4_linear" x1="617.236" y1="176.859" x2="19.0155" y2="176.859" gradientUnits="userSpaceOnUse">
<stop stop-color="#2F054A"/>
<stop offset="1" stop-color="#5E1D9A"/>
</linearGradient>
<linearGradient id="paint5_linear" x1="348.572" y1="24.7302" x2="242.757" y2="554.157" gradientUnits="userSpaceOnUse">
<stop stop-color="#861EB2"/>
<stop offset="0.4293" stop-color="#5F27BD"/>
<stop offset="0.904" stop-color="#3D065F"/>
</linearGradient>
<linearGradient id="paint6_linear" x1="559.706" y1="168.735" x2="541.512" y2="162.429" gradientUnits="userSpaceOnUse">
<stop stop-color="#3D065F"/>
<stop offset="1" stop-color="#5F27BD"/>
</linearGradient>
<linearGradient id="paint7_linear" x1="559.706" y1="168.735" x2="541.512" y2="162.429" gradientUnits="userSpaceOnUse">
<stop stop-color="#2F054A"/>
<stop offset="1" stop-color="#5824B0"/>
</linearGradient>
<linearGradient id="paint8_linear" x1="543.862" y1="278.469" x2="556.652" y2="289.861" gradientUnits="userSpaceOnUse">
<stop offset="0.0555556" stop-color="#9F79B8"/>
<stop offset="0.2575" stop-color="#A17BBA"/>
<stop offset="0.3569" stop-color="#A783BF"/>
<stop offset="0.4338" stop-color="#B290C9"/>
<stop offset="0.4949" stop-color="#C1A1D5"/>
<stop offset="0.5067" stop-color="#C4A5D7"/>
<stop offset="0.5196" stop-color="#CDB3DD"/>
<stop offset="0.5329" stop-color="#DBC8E7"/>
<stop offset="0.5466" stop-color="#EFE7F4"/>
<stop offset="0.5556" stop-color="white"/>
<stop offset="0.5678" stop-color="#ECE0F3"/>
<stop offset="0.5801" stop-color="#DDC8EA"/>
<stop offset="0.5915" stop-color="#D4B9E5"/>
<stop offset="0.601" stop-color="#D1B4E3"/>
<stop offset="0.658" stop-color="#B395D6"/>
<stop offset="0.7155" stop-color="#9C7DCB"/>
<stop offset="0.7687" stop-color="#8E6EC5"/>
<stop offset="0.8131" stop-color="#8969C3"/>
<stop offset="1" stop-color="#B086CC"/>
</linearGradient>
<linearGradient id="paint9_linear" x1="529.826" y1="185.976" x2="511.632" y2="179.669" gradientUnits="userSpaceOnUse">
<stop stop-color="#3D065F"/>
<stop offset="1" stop-color="#5F27BD"/>
</linearGradient>
<linearGradient id="paint10_linear" x1="529.826" y1="185.976" x2="511.632" y2="179.669" gradientUnits="userSpaceOnUse">
<stop stop-color="#2F054A"/>
<stop offset="1" stop-color="#5824B0"/>
</linearGradient>
<linearGradient id="paint11_linear" x1="513.471" y1="312.585" x2="526.26" y2="323.977" gradientUnits="userSpaceOnUse">
<stop offset="0.0555556" stop-color="#9F79B8"/>
<stop offset="0.2575" stop-color="#A17BBA"/>
<stop offset="0.3569" stop-color="#A783BF"/>
<stop offset="0.4338" stop-color="#B290C9"/>
<stop offset="0.4949" stop-color="#C1A1D5"/>
<stop offset="0.5067" stop-color="#C4A5D7"/>
<stop offset="0.5196" stop-color="#CDB3DD"/>
<stop offset="0.5329" stop-color="#DBC8E7"/>
<stop offset="0.5466" stop-color="#EFE7F4"/>
<stop offset="0.5556" stop-color="white"/>
<stop offset="0.5678" stop-color="#ECE0F3"/>
<stop offset="0.5801" stop-color="#DDC8EA"/>
<stop offset="0.5915" stop-color="#D4B9E5"/>
<stop offset="0.601" stop-color="#D1B4E3"/>
<stop offset="0.658" stop-color="#B395D6"/>
<stop offset="0.7155" stop-color="#9C7DCB"/>
<stop offset="0.7687" stop-color="#8E6EC5"/>
<stop offset="0.8131" stop-color="#8969C3"/>
<stop offset="1" stop-color="#B086CC"/>
</linearGradient>
<linearGradient id="paint12_linear" x1="74.4779" y1="235.105" x2="190.596" y2="235.105" gradientUnits="userSpaceOnUse">
<stop offset="0.0353535" stop-color="#138BBD"/>
<stop offset="0.2257" stop-color="#169AC7"/>
<stop offset="0.5946" stop-color="#1FC3DF"/>
<stop offset="1" stop-color="#2AF6FF"/>
</linearGradient>
<radialGradient id="paint13_radial" cx="0" cy="0" r="1" gradientUnits="userSpaceOnUse" gradientTransform="translate(132.55 251.314) scale(42.8269 42.7988)">
<stop stop-color="white"/>
<stop offset="1"/>
</radialGradient>
</defs>
</svg>
