<svg width="280" height="175" viewBox="0 0 280 175" fill="none" xmlns="http://www.w3.org/2000/svg">
<path d="M85.1362 172.743L3.91382 125.002C1.21924 123.443 0.0644226 121.3 0.0644226 119.156V107.27L4.49121 112.726C4.87613 112.531 5.0686 112.336 5.45355 112.141L171.748 15.1015C178.292 11.2043 188.3 10.8146 194.074 14.1272L274.142 61.2832C275.682 59.5294 279.146 55.6322 279.146 55.6322V67.3238C279.338 70.0518 277.414 72.7799 273.757 74.9233L107.463 171.768C100.726 175.666 90.9103 176.055 85.1362 172.743Z" fill="#396CAA"/>
<path d="M41.0608 143.514L45.6802 146.242C46.2576 146.632 46.835 146.242 46.835 145.462C46.835 144.683 46.2576 143.709 45.6802 143.319L41.0608 140.591C40.4834 140.201 39.906 140.591 39.906 141.37C40.0985 142.15 40.4834 143.124 41.0608 143.514Z" fill="#173D7A"/>
<path d="M171.748 15.1015C178.292 11.2043 188.3 10.8146 194.074 14.1272L274.142 61.2832C275.682 59.5294 279.146 55.6322 279.146 55.6322V67.3238C279.338 70.0518 277.414 72.7799 273.757 74.9233L107.463 171.768C103.998 173.717 99.5714 174.886 95.5295 174.886L95.722 59.3346L171.748 15.1015Z" fill="#5793CE"/>
<path d="M275.488 49.9813L194.266 2.2407C188.492 -1.07191 178.484 -0.682193 171.94 3.215L5.64539 100.06C-0.89859 103.957 -1.66849 109.803 4.10562 113.116L85.1355 160.661C90.9096 163.974 100.918 163.584 107.462 159.687L273.756 62.842C280.3 59.1397 281.07 53.2939 275.488 49.9813Z" fill="#D4ECFF"/>
<path d="M85.1362 162.026L3.91376 114.285C1.0267 112.531 -0.320587 110.193 0.0643616 107.66C0.256805 109.609 1.41165 111.557 3.91376 112.921L85.1362 160.662C90.9102 163.974 100.919 163.585 107.463 159.687L273.757 62.8422C277.029 60.8936 278.761 58.5553 279.146 56.4119C279.338 59.1399 277.414 61.8679 273.757 64.2062L107.463 161.051C100.726 164.949 90.7178 165.338 85.1362 162.026Z" fill="white"/>
<path d="M269.138 51.7351L190.996 5.94313C186.761 3.40995 179.255 3.79967 174.443 6.5277L10.4586 102.204C5.45441 105.127 5.06946 109.413 9.3038 111.947L87.4467 157.739C91.681 160.272 99.1874 159.882 103.999 157.154L267.984 61.6729C272.795 58.5552 273.373 54.2683 269.138 51.7351Z" fill="#173D7A"/>
<path d="M107.077 133.966L51.8376 101.619L55.4946 99.6707L110.541 131.822L107.077 133.966Z" fill="#D4ECFF"/>
<path d="M68.7748 124.418L40.8666 108.244L44.3311 106.101L72.2393 122.469L68.7748 124.418Z" fill="#D4ECFF"/>
<path d="M82.2484 132.407L73.2023 127.146L76.6668 125.002L85.7129 130.264L82.2484 132.407Z" fill="#FF2C9C"/>
<path d="M95.9125 140.396L86.8664 135.135L90.3309 132.992L99.377 138.253L95.9125 140.396Z" fill="white"/>
<path d="M68.9681 118.182L46.4491 104.932L49.9135 102.788L72.625 116.039L68.9681 118.182Z" fill="white"/>
<path d="M96.684 134.356L73.9725 121.105L77.6294 118.962L100.148 132.212L96.684 134.356Z" fill="#D4ECFF"/>
<path d="M79.9386 106.1C78.7838 106.685 77.0515 106.685 75.8967 106.1C74.7419 105.516 74.7419 104.347 75.8967 103.762C77.0515 103.178 78.7838 103.178 79.9386 103.762C81.0934 104.347 81.0934 105.321 79.9386 106.1Z" fill="#FF2C9C"/>
<path d="M86.0978 109.608C84.9429 110.193 83.2107 110.193 82.0559 109.608C80.9011 109.023 80.9011 107.854 82.0559 107.27C83.2107 106.685 84.9429 106.685 86.0978 107.27C87.2526 107.854 87.2526 109.023 86.0978 109.608Z" fill="white"/>
<path d="M92.2548 113.116C91.1 113.7 89.3677 113.7 88.2129 113.116C87.0581 112.531 87.0581 111.362 88.2129 110.777C89.3677 110.193 91.1 110.193 92.2548 110.777C93.2172 111.362 93.2172 112.531 92.2548 113.116Z" fill="#D4ECFF"/>
<path d="M98.2237 116.818C97.0689 117.402 95.3367 117.402 94.1819 116.818C93.027 116.233 93.027 115.064 94.1819 114.479C95.3367 113.895 97.0689 113.895 98.2237 114.479C99.3785 115.064 99.3785 116.038 98.2237 116.818Z" fill="#FF2C9C"/>
<path d="M104.382 120.325C103.227 120.91 101.495 120.91 100.34 120.325C99.1852 119.741 99.1852 118.571 100.34 117.987C101.495 117.402 103.227 117.402 104.382 117.987C105.537 118.571 105.537 119.741 104.382 120.325Z" fill="white"/>
<path d="M227.757 52.1244L218.519 46.6684L221.983 44.5249L231.414 49.981L227.757 52.1244Z" fill="#FF2C9C"/>
<path d="M240.652 59.724L231.413 54.268L235.07 52.1245L244.309 57.5806L240.652 59.724Z" fill="white"/>
<path d="M186.375 27.5724L176.944 22.3112L180.601 20.1677L189.84 25.6238L186.375 27.5724Z" fill="white"/>
<path d="M225.639 57.5806L212.743 49.9811L216.4 47.8376L229.296 55.4372L225.639 57.5806Z" fill="white"/>
<path d="M234.877 63.0366L229.296 59.724L232.953 57.5806L238.534 60.8932L234.877 63.0366Z" fill="#D4ECFF"/>
<path d="M140.374 76.0924L129.788 69.8569C128.826 69.2723 127.286 69.2723 126.131 70.0517L115.93 75.8975C114.776 76.4821 114.776 77.4564 115.738 78.041L126.324 84.2765C127.286 84.8611 128.826 84.8611 129.981 84.0816L140.182 78.2358C141.144 77.4564 141.336 76.677 140.374 76.0924Z" fill="#FF2C9C"/>
<path d="M158.851 87.005L148.265 80.7695C147.302 80.1849 145.763 80.1849 144.608 80.9643L134.407 86.8101C133.252 87.3947 133.252 88.369 134.215 88.9536L144.8 95.1891C145.763 95.7736 147.302 95.7737 148.457 94.9942L158.658 89.1484C159.621 88.5639 159.813 87.5895 158.851 87.005Z" fill="#B3E0FF"/>
<path d="M158.466 65.5702L147.88 59.3347C146.918 58.7501 145.378 58.7501 144.223 59.5295L134.022 65.3753C132.868 65.9599 132.868 66.9342 133.83 67.5188L144.416 73.7543C145.378 74.3388 146.918 74.3388 148.073 73.5594L158.274 67.7136C159.236 67.129 159.236 66.1547 158.466 65.5702Z" fill="white"/>
<path d="M176.942 76.4825L166.357 70.247C165.394 69.6624 163.855 69.6624 162.7 70.4419L152.499 76.2877C151.344 76.8722 151.344 77.8465 152.306 78.4311L162.892 84.6666C163.855 85.2512 165.394 85.2512 166.549 84.4718L176.75 78.626C177.712 78.0414 177.905 77.0671 176.942 76.4825Z" fill="#396CAA"/>
</svg>
