<svg width="305" height="269" viewBox="0 0 305 269" fill="none" xmlns="http://www.w3.org/2000/svg">
<circle opacity="0.65" cx="259.5" cy="45.5" r="45.5" fill="#D4ECFF"/>
<circle cx="259.5" cy="45.5" r="19.5" fill="#D4ECFF"/>
<path d="M67.2958 230.479C66.567 230.479 66.0811 229.987 66.0811 229.247V159.279C66.0811 158.54 66.567 158.048 67.2958 158.048C68.0247 158.048 68.5106 158.54 68.5106 159.279V229.494C68.5106 229.987 67.7817 230.479 67.2958 230.479Z" fill="#396CAA"/>
<path d="M73.1255 154.845H61.2207V181.206H73.1255V154.845Z" fill="#5793CE"/>
<path d="M71.4252 183.67C68.9957 185.148 65.3513 185.148 62.9218 183.67C60.4922 182.192 60.4922 179.975 62.9218 178.743C65.3513 177.264 68.9957 177.264 71.4252 178.743C73.8548 179.975 73.8548 182.192 71.4252 183.67Z" fill="#5793CE"/>
<path d="M76.7733 118.137H57.3369V159.28H76.7733V118.137Z" fill="#5793CE"/>
<path d="M61.2217 159.033V167.902C64.866 169.627 69.7251 169.627 73.1265 167.902V159.033C69.7251 157.555 64.6231 157.555 61.2217 159.033Z" fill="#396CAA"/>
<path d="M74.0998 163.468C70.2126 165.686 64.1387 165.686 60.2514 163.468C56.3641 161.251 56.3641 157.556 60.2514 155.338C64.1387 153.121 70.2126 153.121 74.0998 155.338C77.9871 157.556 77.9871 161.251 74.0998 163.468Z" fill="#5793CE"/>
<path d="M134.594 268.912C133.865 268.912 133.379 268.419 133.379 267.68V197.712C133.379 196.973 133.865 196.48 134.594 196.48C135.323 196.48 135.808 196.973 135.808 197.712V267.927C135.808 268.419 135.323 268.912 134.594 268.912Z" fill="#396CAA"/>
<path d="M140.424 193.278H128.52V219.639H140.424V193.278Z" fill="#5793CE"/>
<path d="M138.966 222.103C136.537 223.581 132.892 223.581 130.463 222.103C128.033 220.624 128.033 218.407 130.463 217.175C132.892 215.697 136.537 215.697 138.966 217.175C141.153 218.407 141.153 220.624 138.966 222.103Z" fill="#5793CE"/>
<path d="M144.313 156.57H124.877V197.713H144.313V156.57Z" fill="#5793CE"/>
<path d="M128.52 197.466V206.335C132.164 208.06 137.023 208.06 140.424 206.335V197.466C137.023 195.988 132.164 195.988 128.52 197.466Z" fill="#396CAA"/>
<path d="M141.398 201.901C137.51 204.118 131.437 204.118 127.549 201.901C123.662 199.683 123.662 195.988 127.549 193.771C131.437 191.553 137.51 191.553 141.398 193.771C145.285 195.988 145.285 199.683 141.398 201.901Z" fill="#5793CE"/>
<path d="M200.196 225.059L226.192 209.538L201.41 178.003L194.851 188.844L200.196 225.059Z" fill="#5793CE"/>
<path d="M10.6914 52.3573L52.2367 27.967C52.2367 27.967 50.779 52.1109 50.779 52.3573L26.9694 59.9946L10.6914 52.3573Z" fill="#5793CE"/>
<path d="M207.482 145.976C204.324 144.005 201.165 143.019 198.493 142.527C194.363 120.107 179.057 96.4563 160.592 85.6162C155.004 82.4134 149.902 80.6889 145.043 80.1961C142.613 53.0959 123.906 22.3001 101.311 8.99634C89.6491 2.34446 78.959 1.35899 70.9415 5.54722L70.4556 5.79358C70.2127 5.79358 69.9697 6.03995 69.9697 6.03995L45.4312 20.8219L53.4487 27.4738C46.1601 30.6766 41.5439 39.053 41.5439 51.3713C41.5439 74.037 57.336 101.63 76.7724 112.963L207.482 207.567C222.06 216.19 233.964 209.292 233.964 192.046C233.722 175.293 222.06 154.352 207.482 145.976Z" fill="#5793CE"/>
<path d="M42.7588 41.2703L99.1244 8.01089C88.1914 2.0981 78.4732 1.60537 70.9416 5.54723L70.4557 5.7936C70.2127 5.7936 69.9698 6.03996 69.9698 6.03996L45.4313 20.8219L53.4488 27.4738C48.3468 29.6911 44.7024 34.6184 42.7588 41.2703Z" fill="#5793CE"/>
<path d="M146.987 139.57L188.047 115.18C181.001 102.862 171.283 92.0217 160.593 85.6162C159.135 84.8771 157.677 84.138 156.463 83.3989L103.984 114.441L146.987 139.57Z" fill="#5793CE"/>
<path d="M57.0947 23.7783L75.3164 34.6184L108.844 14.6628C106.415 12.6918 103.985 10.9673 101.313 9.48909C97.1823 7.02543 93.2951 5.54723 89.6507 4.56177L57.0947 23.7783Z" fill="#D4ECFF"/>
<path d="M183.431 108.036L150.632 127.745L162.051 140.556L191.934 122.571C189.505 117.398 186.832 112.47 183.431 108.036Z" fill="#D4ECFF"/>
<path d="M181.73 161.251C178.572 159.28 175.414 158.294 172.741 157.801C168.611 135.382 153.305 111.731 134.84 100.891C129.252 97.6881 124.15 95.9636 119.291 95.4708C116.861 68.3706 98.1539 37.5748 75.5591 24.271C51.2635 10.2282 31.5842 21.8074 31.5842 50.3858C31.5842 51.3713 31.5842 52.3568 31.5842 53.3422C13.8484 44.9658 0 54.3277 0 75.5152C0 98.1808 15.7921 125.774 35.2285 137.107L181.73 222.842C196.308 231.465 208.213 224.567 208.213 207.321C207.97 190.568 196.308 169.873 181.73 161.251Z" fill="#D4ECFF"/>
<path d="M31.5842 53.342C31.5842 52.3565 31.5842 51.371 31.5842 50.3856C21.866 46.4437 13.3626 48.1683 8.01758 54.3274C13.8485 49.4001 22.109 48.661 31.5842 53.342Z" fill="white"/>
<path d="M183.673 159.279C180.515 157.308 177.356 156.323 174.684 155.83C170.554 133.411 155.248 109.76 136.783 98.9197C131.195 95.717 126.093 93.9924 121.234 93.4997C118.804 66.3994 100.097 35.6036 77.5019 22.2999C62.4387 13.4307 49.0761 14.6625 41.0586 23.5317C49.0761 16.6335 61.4668 16.3871 75.3153 24.2708C97.9101 37.5746 116.618 68.3703 119.047 95.4706C123.906 95.9633 129.008 97.4415 134.596 100.891C152.818 111.731 168.367 135.382 172.497 157.801C175.413 158.294 178.328 159.279 181.487 161.25C196.064 169.873 207.969 190.568 207.969 207.567C207.969 213.726 206.511 218.654 203.839 221.856C207.726 218.654 210.155 213.234 210.155 205.596C210.155 188.597 198.251 167.656 183.673 159.279Z" fill="white"/>
<path d="M28.4262 59.9938L39.3591 65.1675L38.8732 52.8492C38.8732 51.8637 38.8732 51.1246 38.8732 50.3855C38.8732 39.2991 42.0317 31.4154 48.1055 27.9662C53.9365 24.5171 62.4399 25.5026 71.9151 31.169C92.0804 42.9946 109.573 71.8194 112.003 96.7024L112.489 102.862L118.563 103.354C122.45 103.601 126.58 105.079 130.953 107.789C146.988 117.151 161.323 138.831 165.21 159.526L166.182 164.699L171.284 165.438C173.227 165.685 175.414 166.67 177.844 167.902C190.234 175.047 200.438 193.278 200.438 207.813C200.438 213.233 198.981 217.175 196.308 218.654C193.636 220.132 189.505 219.393 185.132 216.683L38.8732 130.947C21.8664 120.846 7.28906 95.4705 7.28906 75.5149C7.28906 67.6312 9.47566 61.7184 13.6059 59.2547C15.3066 58.2693 17.2502 57.7765 19.4368 57.7765C22.1093 57.7765 25.2677 58.5156 28.4262 59.9938Z" fill="#173D7A"/>
<path d="M101.554 153.12L105.441 151.149L101.797 148.192L101.554 153.12Z" fill="#5793CE"/>
<path d="M90.1357 100.151L93.7801 98.1802V100.151H90.1357Z" fill="#5793CE"/>
<path d="M112.73 140.801L116.618 138.83L109.086 131.439L112.73 140.801Z" fill="#5793CE"/>
<path d="M104.467 150.902L86.2456 140.062C85.2738 139.57 84.5449 138.091 84.5449 136.86V115.426L106.168 128.483V149.917C106.168 151.149 105.439 151.642 104.467 150.902Z" fill="#5793CE"/>
<path d="M93.7789 98.1802L74.0995 110.991C73.3706 111.484 73.8566 113.455 75.3143 114.44L95.4796 126.512L115.645 138.584C116.86 139.323 117.588 138.091 116.86 136.613L97.1803 100.151C96.2084 98.6729 94.5077 97.6874 93.7789 98.1802Z" fill="#5793CE"/>
<path d="M100.582 153.121L82.3599 142.281C81.388 141.788 80.6592 140.31 80.6592 139.078V117.644L102.282 130.702V152.136C102.039 153.121 101.31 153.614 100.582 153.121Z" fill="#D4ECFF"/>
<path d="M89.8922 100.398L70.2128 113.209C69.4839 113.702 69.9698 115.919 71.4276 116.658L91.5929 128.73L111.758 140.802C112.973 141.541 113.702 140.309 112.973 138.831L93.2935 102.369C92.3217 100.644 90.621 99.6588 89.8922 100.398Z" fill="#D4ECFF"/>
<path d="M65.3541 176.525C65.3541 177.757 64.6252 178.25 63.4104 177.511C62.4386 177.018 61.4668 175.54 61.4668 174.308C61.4668 173.076 62.1957 172.583 63.4104 173.322C64.6252 173.815 65.3541 175.293 65.3541 176.525Z" fill="#D4ECFF"/>
<path d="M132.895 215.451C132.895 216.683 132.166 217.176 130.951 216.437C129.737 215.698 129.008 214.466 129.008 213.234C129.008 212.002 129.737 211.51 130.951 212.249C132.166 212.988 132.895 214.22 132.895 215.451Z" fill="#D4ECFF"/>
</svg>
