<svg width="271" height="245" viewBox="0 0 271 245" fill="none" xmlns="http://www.w3.org/2000/svg">
<path d="M224.237 99.9262V66.0494H148.817L123.001 50.6508C116.927 47.0578 106.804 47.5711 99.7173 51.6774L75.4207 66.0494H0V100.439C0 103.006 1.01235 105.059 4.04943 106.599L101.742 163.574C107.816 167.167 117.94 166.653 125.026 162.547L219.176 107.625C222.719 105.572 224.743 102.493 224.237 99.9262Z" fill="#396CAA"/>
<path d="M112.372 48.085C107.816 48.085 103.261 49.1115 99.7173 51.1647L75.4207 65.5367H0V100.44C0 103.006 1.01235 105.06 4.04943 106.599L101.742 163.574C104.779 165.114 108.322 166.141 112.372 166.141V48.085Z" fill="#396CAA"/>
<path d="M8.60505 65.5366H0V100.44C0 103.006 1.01235 105.06 4.04943 106.599L8.60505 109.166V65.5366Z" fill="#5793CE"/>
<path d="M102.754 164.601C107.816 166.654 115.408 166.654 121.483 164.601V124.564H102.754V164.601Z" fill="#5793CE"/>
<path d="M101.233 129.184L4.0471 72.2095C-2.02705 68.6165 -1.01469 62.4571 5.56563 58.3508L99.7149 3.42932C106.801 -0.676956 116.925 -1.19025 122.999 2.40275L220.186 59.3774C226.26 62.9704 225.247 69.1298 218.667 73.2361L124.518 128.158C117.937 132.264 107.308 132.777 101.233 129.184Z" fill="#D4ECFF"/>
<path d="M218.669 66.05L124.52 121.485C117.434 125.591 107.31 126.104 101.236 122.511L4.04943 65.5367C2.53089 64.5102 1.51854 63.9969 1.01236 62.9703C-1.01236 66.5633 -5.73242e-06 70.1563 4.04943 72.2094L101.742 129.184C107.816 132.777 117.94 132.264 125.026 128.158L219.176 73.236C224.743 70.1563 226.262 65.5367 223.731 62.457C222.719 63.4836 220.694 65.0235 218.669 66.05Z" fill="white"/>
<path d="M188.807 108.652C188.807 111.219 187.288 114.298 184.757 115.325C182.733 116.351 180.708 115.325 180.708 113.272C180.708 110.705 182.227 107.626 184.757 106.599C186.782 105.059 188.807 106.086 188.807 108.652Z" fill="#D4ECFF"/>
<path d="M201.462 101.467C201.462 104.033 199.944 107.113 197.413 108.14C195.388 109.166 193.363 108.14 193.363 106.087C193.363 103.52 194.882 100.44 197.413 99.4139C199.437 97.8741 201.462 98.9006 201.462 101.467Z" fill="#D4ECFF"/>
<path d="M214.116 93.7674C214.116 96.3338 212.598 99.4135 210.067 100.44C208.042 101.467 206.018 100.44 206.018 98.3869C206.018 96.3338 207.536 92.7408 210.067 91.7142C212.092 90.1744 214.116 91.2009 214.116 93.7674Z" fill="#D4ECFF"/>
<path d="M107.312 93.7695L61.7559 67.0786C58.7188 65.5388 59.225 62.4591 62.7683 60.9192L106.806 35.255C109.843 33.2018 114.905 33.2018 117.942 34.7417L163.498 61.4325C166.535 62.9724 166.029 66.0521 162.486 67.5919L118.448 93.2562C114.905 95.3093 109.843 95.3093 107.312 93.7695Z" fill="#5793CE"/>
<path d="M111.362 71.1835L105.288 67.5905C104.782 67.5905 104.782 67.0772 105.288 66.5639L111.362 62.9709C111.868 62.4576 112.374 62.4576 112.881 62.9709L118.955 66.5639C119.461 66.5639 119.461 67.0772 118.955 67.5905L112.881 71.1835C112.374 71.6967 111.868 71.6967 111.362 71.1835Z" fill="#D4ECFF"/>
<path d="M61.2504 67.0773C61.7565 67.0773 61.7565 67.0773 62.2627 66.564L106.3 40.8997C109.337 38.8466 114.399 38.8466 117.436 40.3864L162.992 67.0773C165.523 65.0241 165.523 62.4577 162.992 60.9178L117.436 34.227C114.399 32.6872 109.844 32.6872 106.3 34.7403L62.2627 60.4046C59.2256 62.4577 58.7195 65.5374 61.2504 67.0773Z" fill="#396CAA"/>
<path d="M199.107 243.702L268.74 202.945C270.02 202.166 270.788 201.128 270.788 199.83V181.139C270.788 181.139 268.228 183.216 266.948 184.514L222.915 159.074C219.331 156.997 213.955 156.737 210.883 158.555L144.323 197.494L139.203 194.379V213.069C139.203 214.367 140.227 215.925 142.019 216.963L186.819 243.182C190.659 245.259 196.035 245.519 199.107 243.702Z" fill="#5793CE"/>
<path d="M266.949 184.774L222.917 159.074C219.333 156.997 213.957 156.737 210.885 158.555L193.477 168.679V245C195.525 245 197.573 244.74 199.109 243.702L268.741 202.945C270.021 202.166 270.789 201.128 270.789 199.83V181.139C270.789 181.399 268.229 183.476 266.949 184.774Z" fill="#396CAA"/>
<path d="M141.252 191.263L210.884 150.507C213.956 148.69 219.332 148.949 222.916 151.026L267.716 177.245C271.3 179.322 271.556 182.437 268.484 184.254L199.108 225.01C196.036 226.828 190.66 226.568 187.076 224.491L142.276 198.272C138.692 196.195 138.18 193.08 141.252 191.263Z" fill="#D4ECFF"/>
<path d="M198.852 226.828L268.485 186.072C270.277 185.033 270.789 183.735 270.533 182.178C270.277 182.957 269.765 183.476 268.741 183.995L199.108 225.011C196.036 226.828 190.66 226.568 187.076 224.492L142.276 198.273C140.74 197.234 139.716 196.196 139.46 194.898C138.692 196.715 139.716 198.532 142.02 200.09L186.82 226.309C190.404 228.645 195.78 228.645 198.852 226.828Z" fill="white"/>
<path d="M214.725 180.1C212.165 178.543 212.165 176.206 214.725 174.649C217.285 173.091 221.637 173.091 224.197 174.649C226.757 176.206 226.757 178.543 224.197 180.1C221.381 181.658 217.285 181.658 214.725 180.1Z" fill="white"/>
<path d="M200.39 188.407C197.83 186.849 197.83 184.513 200.39 182.955C202.95 181.398 207.302 181.398 209.862 182.955C212.422 184.513 212.422 186.849 209.862 188.407C207.302 189.964 202.95 189.964 200.39 188.407Z" fill="#173D7A"/>
<path d="M186.309 196.713C183.749 195.156 183.749 192.819 186.309 191.262C188.869 189.704 193.221 189.704 195.781 191.262C198.341 192.819 198.341 195.156 195.781 196.713C192.965 198.271 188.869 198.271 186.309 196.713Z" fill="#396CAA"/>
</svg>
