<svg width="272" height="234" viewBox="0 0 272 234" fill="none" xmlns="http://www.w3.org/2000/svg">
<path d="M208.673 234L146.006 197.454L208.673 160.635L271.34 197.454L208.673 234ZM151.385 197.454L208.673 231L265.961 197.454L208.673 163.908L151.385 197.454Z" fill="white"/>
<path d="M249.822 185.181L208.672 209.455V161.181L249.822 136.908V185.181Z" fill="#173D7A"/>
<path d="M208.673 161.18L167.522 136.907L208.673 112.907L249.823 136.907L208.673 161.18Z" fill="#D4ECFF"/>
<path d="M208.673 209.455L167.522 185.181V136.908L208.673 161.181V209.455Z" fill="#5793CE"/>
<path d="M193.88 183.271L182.314 176.453V163.089L193.88 169.907V183.271Z" fill="white"/>
<path d="M199.995 86.394L186.129 78.2819L237.061 48.2671C239.461 46.9151 239.461 44.4814 237.061 43.1294L185.062 12.5738C182.662 11.2218 178.662 11.2218 176.262 12.5738L125.064 42.5886L111.197 34.4765L162.396 4.46166C172.529 -1.48722 188.795 -1.48722 198.928 4.46166L251.194 35.0173C261.327 40.9662 261.327 50.4303 251.194 56.3792L199.995 86.394Z" fill="#173D7A"/>
<path d="M222.128 89.9089C222.128 82.3376 217.595 73.6847 211.995 70.4399L119.731 16.3591C117.331 15.0071 114.931 14.7367 113.331 15.8183L2.66699 80.7152L109.598 162.377L218.395 98.2914C218.662 98.021 218.928 98.021 219.462 97.7506C221.062 96.3986 222.128 93.6946 222.128 89.9089Z" fill="#D4ECFF"/>
<path d="M109.597 162.377L218.394 98.2914C218.661 98.021 218.928 98.021 219.461 97.7506C221.327 96.3986 222.394 93.6946 222.394 89.9089C222.394 86.3937 221.327 82.3376 219.728 79.0928L95.4639 151.561L109.597 162.377Z" fill="#396CAA"/>
<path d="M102.664 162.106L10.1331 108.026C4.53322 104.781 0 96.1279 0 88.5566C0 80.9853 4.53322 77.47 10.1331 80.7149L102.664 134.796C108.264 138.04 112.797 146.693 112.797 154.265C112.531 161.836 107.997 165.351 102.664 162.106Z" fill="#173D7A"/>
<path d="M103.732 134.525L11.2007 80.4445C8.53408 78.8221 6.4008 78.8221 4.53418 79.9037C6.13414 79.3629 8.00076 79.6333 10.134 80.9853L102.665 135.066C108.265 138.311 112.798 146.964 112.798 154.535C112.798 158.591 111.465 161.566 109.332 162.647C111.998 161.836 113.865 158.591 113.865 153.994C113.598 146.423 109.332 137.77 103.732 134.525Z" fill="white"/>
<path d="M88.7979 143.72L77.5981 137.23C76.5315 136.689 75.4648 134.796 75.4648 133.444C75.4648 131.822 76.2648 131.281 77.5981 131.822L88.7979 138.312C89.8645 138.852 90.9311 140.745 90.9311 142.097C90.6645 143.72 89.8645 144.531 88.7979 143.72Z" fill="#FF2C9C"/>
<path d="M102.932 67.7359C105.865 66.1135 105.865 63.139 102.932 61.5166C99.9985 59.8942 95.1986 59.8942 92.2654 61.5166C89.3321 63.139 89.3321 66.1135 92.2654 67.7359C95.1986 69.6287 99.9985 69.6287 102.932 67.7359Z" fill="#5793CE"/>
<path d="M118.932 76.9293C121.865 75.3068 121.865 72.3324 118.932 70.71C115.999 69.0876 111.199 69.0876 108.265 70.71C105.332 72.3324 105.332 75.3068 108.265 76.9293C111.465 78.8221 116.265 78.8221 118.932 76.9293Z" fill="white"/>
<path d="M135.196 86.1236C138.13 84.5012 138.13 81.5267 135.196 79.9043C132.263 78.2819 127.463 78.2819 124.53 79.9043C121.597 81.5267 121.597 84.5012 124.53 86.1236C127.463 88.0164 132.263 88.0164 135.196 86.1236Z" fill="white"/>
</svg>
