<svg width="279" height="277" viewBox="0 0 279 277" fill="none" xmlns="http://www.w3.org/2000/svg">
<path d="M273.703 79.1517L141.252 1.73373C139.712 0.841309 138.172 0.618202 136.852 1.06442H136.632L131.792 3.07237L136.192 5.30344V5.52654L112.65 113.287C111.55 118.195 113.75 123.996 117.49 126.227L246.861 201.86L246.421 207.438L251.701 205.43C253.461 204.537 254.781 202.753 255.441 200.075L278.543 92.315C279.643 87.1835 277.443 81.3827 273.703 79.1517Z" fill="#173D7A"/>
<path d="M273.7 79.1517L141.25 1.73373C139.71 0.841309 138.169 0.618202 136.849 1.06442H136.629L131.789 3.07237L136.189 5.30344V5.52654L120.128 79.5979L185.033 130.689L278.321 84.7293C277.001 82.2752 275.68 80.2672 273.7 79.1517Z" fill="#396CAA"/>
<path d="M268.861 94.5458L278.982 90.0837C279.202 86.0678 277.442 82.0519 274.802 79.8208L258.74 86.7371L268.861 94.5458Z" fill="#274F89"/>
<path d="M241.58 206.991L109.129 129.573C105.389 127.342 103.189 121.542 104.289 116.633L127.611 8.64976C128.711 3.74141 132.671 1.51035 136.411 3.51831L268.862 81.1594C272.602 83.3904 274.802 89.1912 273.702 94.0995L250.38 202.083C249.28 206.991 245.32 209.223 241.58 206.991Z" fill="#D4ECFF"/>
<path d="M270.182 80.714L137.732 3.07292C135.971 1.95739 133.991 1.95739 132.451 2.84981C133.771 2.62671 135.091 2.84981 136.411 3.51913L268.862 81.1602C272.602 83.3912 274.803 89.192 273.702 94.1003L250.381 202.084C249.721 204.761 248.4 206.546 246.86 207.438C249.061 206.992 251.041 204.984 251.701 201.638L275.023 93.6541C276.123 88.7458 273.922 82.7219 270.182 80.714Z" fill="white"/>
<path d="M238.719 199.629L114.189 126.673C110.669 124.666 108.688 119.311 109.788 114.849L131.35 15.3433C132.23 10.8812 135.971 8.65013 139.271 10.6581L263.801 83.6139C267.321 85.6219 269.301 90.9764 268.201 95.4386L246.639 194.944C245.759 199.629 242.239 201.637 238.719 199.629Z" fill="white"/>
<path d="M238.719 199.629L114.189 126.673C110.669 124.666 108.688 119.311 109.788 114.849L131.35 15.3433C132.23 10.8812 135.971 8.65013 139.271 10.6581L263.801 83.6139C267.321 85.6219 269.301 90.9764 268.201 95.4386L246.639 194.944C245.759 199.629 242.239 201.637 238.719 199.629Z" fill="#173D7A"/>
<path d="M239.819 199.183L115.289 126.227C111.768 124.219 109.788 118.865 110.888 114.403L132.45 14.8971C132.89 12.666 134.21 10.8812 135.53 9.98877C133.55 10.435 132.01 12.4429 131.35 15.3433L109.788 114.849C108.908 119.311 110.888 124.666 114.189 126.673L238.719 199.629C240.479 200.522 242.239 200.522 243.559 199.852C242.459 200.075 241.139 200.076 239.819 199.183Z" fill="#5793CE"/>
<path d="M243.339 210.561L225.298 208.107L108.469 139.613C104.728 137.382 98.1279 137.605 93.9475 140.282L11.0009 188.696L0 187.135V193.382C0 194.943 0.660054 196.282 2.42019 197.174L135.091 275.039C138.831 277.27 145.432 277.047 149.612 274.369L239.819 221.493C242.239 220.154 243.56 218.146 243.339 216.585V210.561Z" fill="#173D7A"/>
<path d="M155.552 167.278L147.192 162.37H56.1045L11.0009 188.697L0 187.135V193.382C0 194.944 0.660054 196.282 2.42019 197.175L135.091 275.039C137.071 276.154 139.931 276.601 142.571 276.378L155.552 167.278Z" fill="#396CAA"/>
<path d="M4.84039 187.805L0 187.135V193.382C0 194.944 0.660054 196.283 2.42019 197.175L4.84039 198.514V187.805Z" fill="#5793CE"/>
<path d="M136.411 275.486C139.931 276.824 144.992 276.601 148.732 274.593V260.538H136.411V275.486Z" fill="#274F89"/>
<path d="M135.09 268.569L2.63937 191.151C-1.10093 188.92 -0.660896 185.127 3.73946 182.673L93.9467 129.797C98.347 127.343 104.728 126.897 108.468 129.128L240.918 206.769C244.659 209 244.219 212.793 239.818 215.247L149.611 268.123C145.431 270.577 138.83 270.8 135.09 268.569Z" fill="#D4ECFF"/>
<path d="M239.82 213.016L149.613 265.892C145.213 268.346 138.832 268.793 135.092 266.561L2.6414 188.92C1.3213 188.251 0.661248 187.359 0.221212 186.243C-0.438841 188.028 0.441227 189.813 2.6414 191.152L135.092 268.569C138.832 270.801 145.433 270.577 149.613 267.9L239.82 215.024C242.681 213.239 243.781 211.008 243.121 209C242.901 210.562 241.581 211.9 239.82 213.016Z" fill="white"/>
<path d="M58.9649 165.493L53.0245 161.924C52.5844 161.701 52.5844 161.254 53.2445 160.808L60.285 156.569C60.9451 156.346 61.6051 156.123 62.2652 156.569L68.2057 160.139C68.6457 160.362 68.6457 160.808 67.9856 161.254L60.9451 165.493C60.285 165.717 59.405 165.717 58.9649 165.493Z" fill="#5793CE"/>
<path d="M68.2061 170.848L62.2657 167.278C61.8256 167.055 61.8256 166.609 62.4857 166.163L69.5262 161.924C70.1863 161.701 70.8463 161.477 71.5064 161.924L77.4469 165.493C77.8869 165.716 77.8869 166.163 77.2269 166.609L70.1863 170.848C69.5262 171.071 68.6462 171.071 68.2061 170.848Z" fill="#5793CE"/>
<path d="M77.4473 176.203L71.5069 172.633C71.0668 172.41 71.0668 171.964 71.7269 171.518L78.7675 167.279C79.4275 167.056 80.0876 166.832 80.7476 167.279L86.6881 170.848C87.1281 171.071 87.1281 171.518 86.4681 171.964L79.4275 176.203C78.7675 176.426 77.8874 176.649 77.4473 176.203Z" fill="#5793CE"/>
<path d="M90.2091 171.741L84.2686 168.171C83.8286 167.948 83.8286 167.502 84.4886 167.055L90.4291 163.486C91.0891 163.263 91.7492 163.039 92.4092 163.486L98.3497 167.055C98.7898 167.278 98.7897 167.725 98.1297 168.171L92.1892 171.741C91.5292 171.964 90.6491 172.187 90.2091 171.741Z" fill="#5793CE"/>
<path d="M99.4493 177.319L93.5088 173.749C93.0688 173.526 93.0688 173.08 93.7288 172.634L99.6693 169.064C100.329 168.841 100.989 168.618 101.649 169.064L107.59 172.634C108.03 172.857 108.03 173.303 107.37 173.749L101.429 177.096C100.769 177.542 99.8893 177.542 99.4493 177.319Z" fill="#5793CE"/>
<path d="M108.689 182.673L102.748 179.103C102.308 178.88 102.308 178.434 102.968 177.987L108.909 174.418C109.569 174.195 110.229 173.972 110.889 174.418L116.829 177.987C117.269 178.211 117.269 178.657 116.609 179.103L110.669 182.673C110.009 182.896 109.129 182.896 108.689 182.673Z" fill="#5793CE"/>
<path d="M117.93 188.028L111.989 184.458C111.549 184.235 111.549 183.789 112.209 183.342L118.15 179.773C118.81 179.55 119.47 179.327 120.13 179.773L126.07 183.342C126.51 183.566 126.51 184.012 125.85 184.458L119.91 188.028C119.25 188.251 118.37 188.251 117.93 188.028Z" fill="#5793CE"/>
<path d="M127.171 193.383L121.23 189.813C120.79 189.59 120.79 189.144 121.451 188.697L127.391 185.128C128.051 184.905 128.711 184.682 129.371 185.128L135.312 188.697C135.752 188.921 135.752 189.367 135.092 189.813L129.151 193.383C128.491 193.829 127.831 193.829 127.171 193.383Z" fill="#5793CE"/>
<path d="M136.411 198.96L130.471 195.391C130.031 195.168 130.031 194.721 130.691 194.275L136.631 190.705C137.291 190.482 137.951 190.259 138.611 190.705L144.552 194.275C144.992 194.498 144.992 194.944 144.332 195.391L138.391 198.96C137.731 199.183 137.071 199.183 136.411 198.96Z" fill="#5793CE"/>
<path d="M145.653 204.314L139.713 200.744C139.273 200.521 139.273 200.075 139.933 199.629L145.873 196.059C146.533 195.836 147.194 195.613 147.854 196.059L153.794 199.629C154.234 199.852 154.234 200.298 153.574 200.744L147.634 204.314C146.974 204.537 146.313 204.537 145.653 204.314Z" fill="#5793CE"/>
<path d="M155.113 209.669L149.173 206.1C148.733 205.876 148.733 205.43 149.393 204.984L155.333 201.414C155.993 201.191 156.653 200.968 157.314 201.414L163.254 204.984C163.694 205.207 163.694 205.653 163.034 206.1L157.094 209.669C156.433 209.892 155.553 210.116 155.113 209.669Z" fill="#5793CE"/>
<path d="M164.355 215.246L158.414 211.677C157.974 211.454 157.974 211.007 158.634 210.561L164.575 206.992C165.235 206.768 165.895 206.545 166.555 206.992L172.495 210.561C172.935 210.784 172.935 211.231 172.275 211.677L166.115 215.023C165.675 215.47 164.795 215.47 164.355 215.246Z" fill="#5793CE"/>
<path d="M173.593 220.601L167.652 217.031C167.212 216.808 167.212 216.362 167.872 215.916L173.813 212.346C174.473 212.123 175.133 211.9 175.793 212.346L181.733 215.916C182.174 216.139 182.174 216.585 181.513 217.031L175.573 220.601C174.913 220.824 174.033 220.824 173.593 220.601Z" fill="#5793CE"/>
<path d="M103.851 169.286L97.9102 165.717C97.4702 165.494 97.4702 165.047 98.1302 164.601L104.071 161.032C104.731 160.808 105.391 160.585 106.051 161.032L111.991 164.601C112.431 164.824 112.431 165.271 111.771 165.717L105.831 169.286C105.171 169.51 104.291 169.51 103.851 169.286Z" fill="#5793CE"/>
<path d="M94.3868 163.709L88.4463 160.139C88.0063 159.916 88.0063 159.47 88.6663 159.024L94.6068 155.454C95.2669 155.231 95.9269 155.008 96.587 155.454L102.527 159.024C102.967 159.247 102.967 159.693 102.307 160.139L96.367 163.709C95.7069 163.932 95.0469 163.932 94.3868 163.709Z" fill="#5793CE"/>
<path d="M85.1471 158.132L72.1661 150.546C71.726 150.323 71.726 149.877 72.3861 149.43L78.3265 145.861C78.9866 145.638 79.6466 145.414 80.3067 145.861L93.2877 153.446C93.7278 153.669 93.7278 154.116 93.0677 154.562L87.1273 158.132C86.4672 158.578 85.5871 158.578 85.1471 158.132Z" fill="#5793CE"/>
<path d="M91.5277 151.438L80.9668 145.415C80.5268 145.191 80.5268 144.745 81.1868 144.299L87.1273 140.729C87.7874 140.506 88.4474 140.283 89.1075 140.729L99.6683 146.753C100.108 146.976 100.108 147.422 99.4483 147.869L93.5078 151.438C93.0678 151.885 92.1877 151.885 91.5277 151.438Z" fill="#5793CE"/>
<path d="M113.088 174.641L107.147 171.071C106.707 170.848 106.707 170.402 107.368 169.956L113.308 166.386C113.968 166.163 114.628 165.94 115.288 166.386L121.229 169.956C121.669 170.179 121.669 170.625 121.009 171.071L115.068 174.641C114.408 174.864 113.528 174.864 113.088 174.641Z" fill="#5793CE"/>
<path d="M122.33 179.995L116.39 176.426C115.95 176.203 115.95 175.756 116.61 175.31L122.55 171.741C123.21 171.517 123.87 171.294 124.53 171.741L130.471 175.31C130.911 175.533 130.911 175.98 130.251 176.426L124.31 179.995C123.65 180.442 122.77 180.442 122.33 179.995Z" fill="#5793CE"/>
<path d="M131.57 185.574L125.63 182.004C125.19 181.781 125.19 181.335 125.85 180.888L131.79 177.319C132.45 177.096 133.111 176.872 133.771 177.319L139.711 180.888C140.151 181.111 140.151 181.558 139.491 182.004L133.551 185.574C132.891 185.797 132.01 185.797 131.57 185.574Z" fill="#5793CE"/>
<path d="M140.812 190.928L134.871 187.358C134.431 187.135 134.431 186.689 135.091 186.242L141.032 182.673C141.692 182.45 142.352 182.226 143.012 182.673L148.952 186.242C149.392 186.465 149.392 186.912 148.732 187.358L142.792 190.928C142.132 191.151 141.472 191.151 140.812 190.928Z" fill="#5793CE"/>
<path d="M150.053 196.283L144.112 192.713C143.672 192.49 143.672 192.044 144.332 191.598L150.273 188.028C150.933 187.805 151.593 187.582 152.253 188.028L158.193 191.598C158.634 191.821 158.634 192.267 157.973 192.713L152.033 196.283C151.373 196.506 150.713 196.729 150.053 196.283Z" fill="#5793CE"/>
<path d="M159.292 201.86L153.352 198.291C152.912 198.067 152.912 197.621 153.572 197.175L159.512 193.605C160.172 193.382 160.832 193.159 161.492 193.605L167.433 197.175C167.873 197.398 167.873 197.844 167.213 198.291L161.272 201.637C160.612 202.083 159.952 202.083 159.292 201.86Z" fill="#5793CE"/>
<path d="M168.754 207.215L162.814 203.645C162.373 203.422 162.373 202.976 163.034 202.529L168.974 198.96C169.634 198.737 170.294 198.514 170.954 198.96L176.895 202.529C177.335 202.753 177.335 203.199 176.675 203.645L170.734 207.215C170.074 207.438 169.194 207.438 168.754 207.215Z" fill="#5793CE"/>
<path d="M177.992 212.569L172.052 209C171.612 208.776 171.612 208.33 172.272 207.884L178.212 204.314C178.872 204.091 179.532 203.868 180.192 204.314L186.133 207.884C186.573 208.107 186.573 208.553 185.913 209L179.972 212.569C179.312 212.792 178.432 212.792 177.992 212.569Z" fill="#5793CE"/>
<path d="M187.233 217.924L181.293 214.354C180.853 214.131 180.853 213.685 181.513 213.238L187.454 209.669C188.114 209.446 188.774 209.223 189.434 209.669L195.374 213.238C195.814 213.462 195.814 213.908 195.154 214.354L189.214 217.924C188.554 218.37 187.674 218.37 187.233 217.924Z" fill="#5793CE"/>
<path d="M203.516 227.74L190.535 220.155C190.095 219.932 190.095 219.485 190.755 219.039L196.696 215.47C197.356 215.246 198.016 215.023 198.676 215.47L211.657 223.055C212.097 223.278 212.097 223.724 211.437 224.171L205.496 227.74C204.836 227.963 204.176 227.963 203.516 227.74Z" fill="#5793CE"/>
<path d="M221.558 217.032L210.557 210.562C210.117 210.338 210.117 209.892 210.777 209.446L216.717 205.876C217.377 205.653 218.037 205.43 218.697 205.876L229.698 212.346C230.138 212.569 230.138 213.016 229.478 213.462L223.538 217.032C222.878 217.255 222.218 217.478 221.558 217.032Z" fill="#5793CE"/>
<path d="M129.37 173.526L123.43 169.956C122.99 169.733 122.99 169.287 123.65 168.841L129.59 165.271C130.25 165.048 130.91 164.825 131.57 165.271L137.511 168.841C137.951 169.064 137.951 169.51 137.291 169.956L131.35 173.526C130.69 173.749 129.81 173.972 129.37 173.526Z" fill="#5793CE"/>
<path d="M119.91 167.949L113.97 164.379C113.53 164.156 113.53 163.71 114.19 163.263L120.13 159.694C120.79 159.471 121.45 159.247 122.11 159.694L128.051 163.263C128.491 163.486 128.491 163.933 127.831 164.379L121.89 167.949C121.23 168.395 120.35 168.395 119.91 167.949Z" fill="#5793CE"/>
<path d="M110.449 162.593L104.288 159.023C103.848 158.8 103.848 158.354 104.508 157.908L110.449 154.338C111.109 154.115 111.769 153.892 112.429 154.338L118.369 157.908C118.809 158.131 118.809 158.577 118.149 159.023L112.209 162.593C111.769 162.816 110.889 162.816 110.449 162.593Z" fill="#5793CE"/>
<path d="M100.769 157.015L94.8282 153.446C94.3881 153.223 94.3881 152.776 95.0482 152.33L100.989 148.761C101.649 148.537 102.309 148.314 102.969 148.761L108.909 152.33C109.349 152.553 109.349 153 108.689 153.446L102.749 157.015C102.089 157.239 101.429 157.239 100.769 157.015Z" fill="#5793CE"/>
<path d="M138.611 179.103L132.671 175.534C132.231 175.311 132.231 174.864 132.891 174.418L138.831 170.848C139.491 170.625 140.152 170.402 140.812 170.848L146.752 174.418C147.192 174.641 147.192 175.087 146.532 175.534L140.592 179.103C139.932 179.326 139.051 179.326 138.611 179.103Z" fill="#5793CE"/>
<path d="M147.854 184.458L141.913 180.888C141.473 180.665 141.473 180.219 142.133 179.773L148.074 176.203C148.734 175.98 149.394 175.757 150.054 176.203L155.994 179.773C156.434 179.996 156.434 180.442 155.774 180.888L149.834 184.458C149.174 184.681 148.294 184.681 147.854 184.458Z" fill="#5793CE"/>
<path d="M157.092 189.812L151.151 186.243C150.711 186.02 150.711 185.573 151.371 185.127L157.312 181.557C157.972 181.334 158.632 181.111 159.292 181.557L165.233 185.127C165.673 185.35 165.673 185.796 165.013 186.243L159.072 189.812C158.412 190.035 157.532 190.035 157.092 189.812Z" fill="#5793CE"/>
<path d="M166.333 195.39L160.393 191.82C159.953 191.597 159.953 191.15 160.613 190.704L166.553 187.135C167.213 186.911 167.873 186.688 168.533 187.135L174.474 190.704C174.914 190.927 174.914 191.374 174.254 191.82L168.313 195.39C167.653 195.613 166.773 195.613 166.333 195.39Z" fill="#5793CE"/>
<path d="M175.574 200.745L169.634 197.175C169.194 196.952 169.194 196.506 169.854 196.06L175.794 192.49C176.454 192.267 177.114 192.044 177.774 192.49L183.715 196.06C184.155 196.283 184.155 196.729 183.495 197.175L177.554 200.745C176.894 200.968 176.014 200.968 175.574 200.745Z" fill="#5793CE"/>
<path d="M184.815 206.098L178.874 202.529C178.434 202.306 178.434 201.859 179.094 201.413L185.035 197.844C185.695 197.62 186.355 197.397 187.015 197.844L192.955 201.413C193.395 201.636 193.395 202.083 192.735 202.529L186.795 206.098C186.135 206.322 185.255 206.322 184.815 206.098Z" fill="#5793CE"/>
<path d="M194.057 211.454L188.116 207.885C187.676 207.662 187.676 207.215 188.336 206.769L194.277 203.2C194.937 202.976 195.597 202.753 196.257 203.2L202.197 206.769C202.637 206.992 202.637 207.439 201.977 207.885L196.037 211.454C195.377 211.678 194.497 211.901 194.057 211.454Z" fill="#5793CE"/>
<path d="M203.296 217.031L197.356 213.461C196.915 213.238 196.915 212.792 197.576 212.346L203.516 208.776C204.176 208.553 204.836 208.33 205.496 208.776L211.437 212.346C211.877 212.569 211.877 213.015 211.217 213.461L205.276 217.031C204.616 217.254 203.956 217.254 203.296 217.031Z" fill="#5793CE"/>
<path d="M212.537 222.386L206.597 218.816C206.157 218.593 206.157 218.147 206.817 217.7L212.757 214.131C213.417 213.908 214.077 213.684 214.737 214.131L220.678 217.7C221.118 217.923 221.118 218.37 220.458 218.816L214.517 222.386C213.857 222.609 213.197 222.609 212.537 222.386Z" fill="#5793CE"/>
<path d="M124.529 160.139L118.589 156.569C118.149 156.346 118.149 155.9 118.809 155.454L124.749 151.884C125.409 151.661 126.069 151.438 126.73 151.884L132.67 155.454C133.11 155.677 133.11 156.123 132.45 156.569L126.29 160.139C125.849 160.362 124.969 160.585 124.529 160.139Z" fill="#5793CE"/>
<path d="M115.288 154.785L109.348 151.215C108.908 150.992 108.908 150.546 109.568 150.099L115.508 146.53C116.168 146.306 116.828 146.083 117.488 146.53L123.429 150.099C123.869 150.322 123.869 150.769 123.209 151.215L117.048 154.785C116.608 155.008 115.728 155.008 115.288 154.785Z" fill="#5793CE"/>
<path d="M106.05 149.43L100.109 145.86C99.6694 145.637 99.6694 145.191 100.329 144.745L106.27 141.175C106.93 140.952 107.59 140.729 108.25 141.175L114.191 144.745C114.631 144.968 114.631 145.414 113.971 145.86L108.03 149.43C107.37 149.653 106.49 149.653 106.05 149.43Z" fill="#5793CE"/>
<path d="M96.8077 144.076L90.8672 140.506C90.4272 140.283 90.4272 139.837 91.0872 139.39L97.0277 135.821C97.6878 135.598 98.3478 135.374 99.0079 135.821L104.948 139.39C105.388 139.613 105.388 140.06 104.728 140.506L98.7879 144.076C98.1278 144.299 97.2477 144.299 96.8077 144.076Z" fill="#5793CE"/>
<path d="M106.268 138.498L100.327 134.928C99.8871 134.705 99.8871 134.259 100.327 133.813L102.307 132.697C102.967 132.474 103.627 132.251 104.287 132.697L110.228 136.267C110.668 136.49 110.668 136.936 110.008 137.382L108.028 138.498C107.588 138.721 106.708 138.721 106.268 138.498Z" fill="#5793CE"/>
<path d="M118.37 145.414L112.43 141.844C111.99 141.621 111.99 141.175 112.65 140.729L114.63 139.613C115.29 139.39 115.95 139.167 116.61 139.613L122.551 143.183C122.991 143.406 122.991 143.852 122.331 144.298L120.35 145.414C119.69 145.86 118.81 145.86 118.37 145.414Z" fill="#5793CE"/>
<path d="M127.39 150.992L121.449 147.422C121.009 147.199 121.009 146.753 121.669 146.307L123.649 145.191C124.309 144.968 124.97 144.745 125.63 145.191L131.57 148.761C132.01 148.984 132.01 149.43 131.35 149.876L129.37 150.992C128.71 151.215 128.05 151.215 127.39 150.992Z" fill="#5793CE"/>
<path d="M136.631 156.346L130.69 152.777C130.25 152.554 130.25 152.107 130.91 151.661L132.891 150.546C133.551 150.323 134.211 150.099 134.871 150.546L140.811 154.115C141.251 154.339 141.251 154.785 140.591 155.231L138.611 156.346C137.951 156.57 137.071 156.57 136.631 156.346Z" fill="#5793CE"/>
<path d="M145.872 161.701L139.932 158.131C139.492 157.908 139.492 157.462 140.152 157.016L142.132 155.9C142.792 155.677 143.452 155.454 144.112 155.9L150.052 159.47C150.493 159.693 150.493 160.139 149.832 160.585L147.632 161.478C147.192 161.924 146.312 161.924 145.872 161.701Z" fill="#5793CE"/>
<path d="M196.916 191.597L190.976 188.027C190.536 187.804 190.536 187.358 191.196 186.912L193.176 185.796C193.836 185.573 194.496 185.35 195.156 185.796L201.096 189.366C201.536 189.589 201.536 190.035 200.876 190.481L198.896 191.597C198.456 191.82 197.576 191.82 196.916 191.597Z" fill="#5793CE"/>
<path d="M206.158 196.951L200.218 193.382C199.778 193.159 199.778 192.712 200.438 192.266L202.418 191.151C203.078 190.928 203.738 190.704 204.398 191.151L210.339 194.72C210.779 194.943 210.779 195.39 210.119 195.836L208.138 196.951C207.478 197.175 206.598 197.175 206.158 196.951Z" fill="#5793CE"/>
<path d="M215.397 202.306L209.456 198.737C209.016 198.514 209.016 198.067 209.676 197.621L211.656 196.506C212.316 196.283 212.976 196.059 213.636 196.506L219.577 200.075C220.017 200.298 220.017 200.745 219.357 201.191L217.377 202.306C216.717 202.53 215.837 202.53 215.397 202.306Z" fill="#5793CE"/>
<path d="M224.638 207.661L218.697 204.092C218.257 203.869 218.257 203.422 218.917 202.976L220.897 201.861C221.558 201.638 222.218 201.414 222.878 201.861L228.818 205.43C229.258 205.653 229.258 206.1 228.598 206.546L226.618 207.661C225.958 207.885 225.078 207.885 224.638 207.661Z" fill="#5793CE"/>
<path d="M133.771 165.717L127.83 162.147C127.39 161.924 127.39 161.478 128.05 161.031L133.991 157.462C134.651 157.239 135.311 157.016 135.971 157.462L141.911 161.031C142.351 161.255 142.351 161.701 141.691 162.147L135.751 165.717C135.091 165.94 134.211 165.94 133.771 165.717Z" fill="#5793CE"/>
<path d="M143.012 171.072L137.071 167.502C136.631 167.279 136.631 166.833 137.291 166.387L143.232 162.817C143.892 162.594 144.552 162.371 145.212 162.817L151.152 166.387C151.592 166.61 151.592 167.056 150.932 167.502L144.992 171.072C144.332 171.295 143.452 171.295 143.012 171.072Z" fill="#5793CE"/>
<path d="M152.253 176.426L146.313 172.856C145.873 172.633 145.872 172.187 146.533 171.74L152.473 168.171C153.133 167.948 153.793 167.724 154.453 168.171L160.394 171.74C160.834 171.964 160.834 172.41 160.174 172.856L154.233 176.426C153.573 176.649 152.693 176.649 152.253 176.426Z" fill="#5793CE"/>
<path d="M161.492 181.781L155.552 178.211C155.112 177.988 155.112 177.542 155.772 177.096L161.712 173.526C162.372 173.303 163.032 173.08 163.692 173.526L169.633 177.096C170.073 177.319 170.073 177.765 169.413 178.211L163.472 181.781C162.812 182.227 161.932 182.227 161.492 181.781Z" fill="#5793CE"/>
<path d="M170.733 187.358L164.793 183.789C164.353 183.565 164.353 183.119 165.013 182.673L170.954 179.103C171.614 178.88 172.274 178.657 172.934 179.103L178.874 182.673C179.314 182.896 179.314 183.342 178.654 183.789L172.714 187.358C172.054 187.581 171.174 187.581 170.733 187.358Z" fill="#5793CE"/>
<path d="M179.974 192.713L174.033 189.143C173.593 188.92 173.593 188.474 174.253 188.028L180.194 184.458C180.854 184.235 181.514 184.012 182.174 184.458L188.114 188.028C188.554 188.251 188.554 188.697 187.894 189.143L181.954 192.713C181.294 192.936 180.414 192.936 179.974 192.713Z" fill="#5793CE"/>
<path d="M189.216 198.068L183.275 194.498C182.835 194.275 182.835 193.829 183.495 193.383L189.436 189.813C190.096 189.59 190.756 189.367 191.416 189.813L197.357 193.383C197.797 193.606 197.797 194.052 197.137 194.498L191.196 198.068C190.536 198.291 189.656 198.514 189.216 198.068Z" fill="#5793CE"/>
<path d="M198.456 203.645L192.516 200.076C192.076 199.853 192.076 199.406 192.736 198.96L198.676 195.39C199.336 195.167 199.996 194.944 200.656 195.39L206.597 198.96C207.037 199.183 207.037 199.629 206.377 200.076L200.436 203.645C199.776 203.868 198.896 203.868 198.456 203.645Z" fill="#5793CE"/>
<path d="M207.696 209L201.756 205.43C201.316 205.207 201.316 204.761 201.976 204.315L207.916 200.745C208.576 200.522 209.236 200.299 209.897 200.745L215.837 204.315C216.277 204.538 216.277 204.984 215.617 205.43L209.677 209C209.016 209.223 208.136 209.223 207.696 209Z" fill="#5793CE"/>
<path d="M80.746 166.386L63.1446 156.124C62.7045 155.9 62.7045 155.454 63.3646 155.008L69.3051 151.438C69.9651 151.215 70.6252 150.992 71.2852 151.438L88.8866 161.701C89.3267 161.924 89.3267 162.37 88.6666 162.817L82.7261 166.386C82.0661 166.61 81.186 166.61 80.746 166.386Z" fill="#5793CE"/>
<path d="M194.495 232.872L176.894 222.609C176.454 222.386 176.454 221.94 177.114 221.493L183.054 217.924C183.714 217.701 184.374 217.477 185.034 217.924L202.636 228.187C203.076 228.41 203.076 228.856 202.416 229.302L196.475 232.872C195.815 233.095 194.935 233.095 194.495 232.872Z" fill="#5793CE"/>
<path d="M157.533 223.055L151.593 219.485C151.153 219.262 151.153 218.816 151.813 218.37L158.853 214.131C159.513 213.908 160.173 213.684 160.834 214.131L166.774 217.7C167.214 217.923 167.214 218.37 166.554 218.816L159.293 223.055C158.853 223.501 157.973 223.501 157.533 223.055Z" fill="#5793CE"/>
<path d="M90.2082 183.789L80.5274 178.211C80.0873 177.988 80.0873 177.542 80.7474 177.096L87.788 172.857C88.448 172.634 89.1081 172.411 89.7681 172.857L99.4489 178.434C99.8889 178.658 99.8889 179.104 99.2289 179.55L92.1883 183.789C91.5283 184.012 90.6482 184.012 90.2082 183.789Z" fill="#5793CE"/>
<path d="M148.513 217.924L138.832 212.346C138.392 212.123 138.392 211.677 139.052 211.231L146.093 206.992C146.753 206.768 147.413 206.545 148.073 206.992L157.754 212.569C158.194 212.792 158.194 213.238 157.534 213.685L150.493 217.924C149.833 218.147 148.953 218.147 148.513 217.924Z" fill="#5793CE"/>
<path d="M103.628 191.597L93.9473 186.019C93.5073 185.796 93.5073 185.35 94.1673 184.904L101.208 180.665C101.868 180.442 102.528 180.219 103.188 180.665L112.869 186.243C113.309 186.466 113.309 186.912 112.649 187.358L105.608 191.597C104.948 191.82 104.068 191.82 103.628 191.597Z" fill="#5793CE"/>
<path d="M103.19 180.665L144.773 204.984C145.213 205.207 145.213 205.876 144.773 206.099L137.732 210.561C137.292 210.784 136.412 210.784 135.752 210.561L94.1689 186.02L103.19 180.665Z" fill="#5793CE"/>
<path d="M183.275 232.872L189.875 236.888C190.315 237.111 190.315 237.557 189.655 237.78L186.795 239.565C186.355 239.788 185.695 239.788 185.255 239.565L178.654 235.549C178.214 235.326 178.214 234.88 178.874 234.656L181.735 232.872C182.175 232.872 183.055 232.649 183.275 232.872Z" fill="#5793CE"/>
<path d="M174.035 227.517L180.636 231.533C181.076 231.756 181.076 232.203 180.416 232.426L177.556 234.211C177.116 234.434 176.456 234.434 176.016 234.211L169.415 230.195C168.975 229.972 168.975 229.525 169.635 229.302L172.495 227.517C172.935 227.294 173.595 227.294 174.035 227.517Z" fill="#5793CE"/>
<path d="M164.793 222.163L171.394 226.179C171.834 226.402 171.834 226.848 171.174 227.071L168.314 228.856C167.874 229.079 167.213 229.079 166.773 228.856L160.173 224.84C159.733 224.617 159.733 224.171 160.393 223.948L163.253 222.163C163.693 221.94 164.353 221.94 164.793 222.163Z" fill="#5793CE"/>
<path d="M179.095 224.617L185.696 228.632C186.136 228.856 186.136 229.302 185.476 229.525L182.615 231.31C182.175 231.533 181.515 231.533 181.075 231.31L174.475 227.294C174.035 227.071 174.035 226.624 174.695 226.401L177.555 224.617C177.995 224.393 178.655 224.393 179.095 224.617Z" fill="#5793CE"/>
<path d="M160.615 60.8568L145.434 52.1557L146.094 48.8091L161.275 57.7333L160.615 60.8568Z" fill="#D4ECFF"/>
<path d="M158.854 68.6654L143.893 59.7411L144.553 56.3945L159.514 65.3188L158.854 68.6654Z" fill="white"/>
<path d="M232.78 174.418L217.818 165.717L218.258 162.37L233.44 171.294L232.78 174.418Z" fill="#D4ECFF"/>
<path d="M155.554 83.8368L140.593 75.1357L141.253 71.7891L156.214 80.4902L155.554 83.8368Z" fill="#D4ECFF"/>
<path d="M186.135 100.123L170.954 91.1992C169.634 90.3068 168.754 88.5219 169.194 86.7371L172.494 71.7889C172.934 70.2272 174.254 69.5579 175.574 70.2272L190.755 79.1514C192.075 80.0439 192.955 81.8287 192.515 83.6136L189.215 98.5617C188.995 100.123 187.455 100.793 186.135 100.123Z" fill="#FF2C9C"/>
<path d="M212.758 115.518L197.577 106.593C196.257 105.701 195.377 103.916 195.817 102.131L199.117 87.183C199.557 85.6212 200.877 84.9519 202.197 85.6212L217.378 94.5455C218.698 95.4379 219.579 97.2228 219.138 99.0076L215.838 113.956C215.398 115.741 214.078 116.41 212.758 115.518Z" fill="#B3E0FF"/>
<path d="M180.415 126.673L165.234 117.749C163.914 116.856 163.034 115.071 163.474 113.286L166.774 98.3383C167.214 96.7765 168.534 96.1072 169.854 96.7765L185.036 105.701C186.356 106.593 187.236 108.378 186.796 110.163L183.495 125.111C183.055 126.896 181.735 127.565 180.415 126.673Z" fill="white"/>
<path d="M206.817 142.29L191.635 133.366C190.315 132.474 189.435 130.689 189.875 128.904L193.175 113.956C193.616 112.394 194.936 111.725 196.256 112.394L211.437 121.318C212.757 122.211 213.637 123.996 213.197 125.781L209.897 140.729C209.457 142.29 208.137 142.96 206.817 142.29Z" fill="#396CAA"/>
</svg>
