<svg width="310" height="274" viewBox="0 0 310 274" fill="none" xmlns="http://www.w3.org/2000/svg">
<circle opacity="0.65" cx="264.5" cy="72.5" r="45.5" fill="#D4ECFF"/>
<circle cx="264.5" cy="72.5" r="19.5" fill="#D4ECFF"/>
<path d="M117.717 220.243L280.827 124.666C282.406 123.778 283.103 122.554 283.031 121.424L283.038 115.446L281.087 117.93C280.685 117.694 280.36 117.323 279.824 117.009L182.215 59.8628C178.326 57.5864 172.586 57.3074 169.274 59.3565L6.31814 154.661L3.75547 152.255L3.82583 158.097C3.87693 159.577 4.88734 161.256 6.89852 162.434L104.642 219.658C108.53 221.934 114.271 222.214 117.717 220.243Z" fill="#396CAA"/>
<path d="M3.88404 158.312C3.93515 159.792 5.02296 161.335 7.16822 162.591L104.643 219.658C106.386 220.679 108.573 221.234 110.647 221.36L110.574 93.6952L6.24228 154.798L3.6796 152.391L3.88404 158.312Z" fill="#173D7A"/>
<path d="M6.17107 148.955L169.281 53.3787C172.728 51.408 178.468 51.687 182.356 53.9635L279.966 111.109C283.854 113.386 284.281 116.718 280.835 118.688L117.725 214.265C114.413 216.314 108.538 215.957 104.784 213.759L7.17443 156.613C3.28615 154.336 2.9365 150.869 6.17107 148.955Z" fill="#D4ECFF"/>
<path d="M117.47 215.023L280.715 119.525C282.082 118.693 282.835 117.684 282.841 116.419C282.511 117.313 281.912 118.05 280.834 118.688L117.723 214.265C114.411 216.314 108.537 215.956 104.783 213.758L7.17328 156.612C5.02803 155.356 3.88352 153.599 4.04391 152.061C3.38314 153.849 4.37282 155.879 7.05438 157.449L104.53 214.517C108.284 216.714 114.158 217.072 117.47 215.023Z" fill="white"/>
<path d="M9.15718 151.247L173.268 55.1685C174.424 54.3948 176.497 54.521 177.838 55.306L277.459 113.629C278.8 114.414 279.005 115.623 277.716 116.318L113.605 212.396C112.449 213.17 110.376 213.044 109.035 212.259L9.41422 153.935C8.07344 153.15 8.00159 152.021 9.15718 151.247Z" fill="#173D7A"/>
<path d="M144.884 134.344L155.588 128.102C156.589 127.601 158.183 127.627 159.256 128.255L169.445 134.221C170.518 134.849 170.667 135.843 169.667 136.345L158.962 142.586C157.961 143.088 156.368 143.061 155.295 142.433L145.105 136.467C144.166 135.918 143.94 135.06 144.884 134.344Z" fill="#FF2C9C"/>
<path d="M126.266 145.378L136.97 139.137C137.971 138.635 139.565 138.662 140.637 139.29L150.827 145.256C151.9 145.884 152.049 146.877 151.048 147.379L140.344 153.621C139.343 154.122 137.749 154.096 136.677 153.468L126.487 147.502C125.414 146.874 125.265 145.88 126.266 145.378Z" fill="#B3E0FF"/>
<path d="M126.917 123.825L137.622 117.584C138.622 117.082 140.216 117.109 141.289 117.737L151.479 123.702C152.551 124.33 152.701 125.324 151.7 125.826L140.995 132.067C139.995 132.569 138.401 132.543 137.328 131.915L127.138 125.949C126.066 125.321 125.839 124.463 126.917 123.825Z" fill="white"/>
<path d="M108.165 134.782L118.87 128.54C119.87 128.039 121.464 128.065 122.537 128.693L132.727 134.659C133.799 135.287 133.949 136.281 132.948 136.783L122.243 143.024C121.243 143.526 119.649 143.499 118.576 142.871L108.386 136.905C107.448 136.356 107.298 135.362 108.165 134.782Z" fill="#396CAA"/>
</svg>
