<svg width="306" height="295" viewBox="0 0 306 295" fill="none" xmlns="http://www.w3.org/2000/svg">
<path d="M81.9089 34.0264L223.875 116.497L305.438 128.224L163.472 47.2909L81.9089 34.0264Z" fill="url(#paint0_linear)"/>
<path d="M223.875 116.497V255.871L238.494 247.604V244.528L290.625 213.578L293.896 214.731L305.438 207.811V128.224L223.875 116.497Z" fill="url(#paint1_linear)"/>
<path d="M223.875 116.497V255.87L81.9089 173.208V34.0264L223.875 116.497Z" fill="url(#paint2_linear)"/>
<path d="M235.224 176.091L297.358 138.797V212.809L293.895 214.731L290.625 213.578L238.494 244.528V247.604L235.224 249.527V176.091Z" fill="#D1B4E3"/>
<path d="M290.625 213.578V146.679L238.494 178.014V244.528L290.625 213.578Z" fill="url(#paint3_linear)"/>
<path d="M290.625 151.677V146.679L238.494 178.014V182.627L290.625 151.677Z" fill="#E6E7E8"/>
<path d="M290.625 152.83V149.947L238.494 181.282V183.589L290.625 152.83Z" fill="#E6E7E8"/>
<path d="M290.625 158.021V155.33L238.494 186.665V188.971L290.625 158.021Z" fill="#E6E7E8"/>
<path d="M290.625 163.211V160.52L238.494 191.855V194.162L290.625 163.211Z" fill="#E6E7E8"/>
<path d="M290.625 168.594V165.903L238.494 197.238V199.352L290.625 168.594Z" fill="#E6E7E8"/>
<path d="M290.625 173.785V171.093L238.494 202.428V204.735L290.625 173.785Z" fill="#E6E7E8"/>
<path d="M290.625 179.167V176.476L238.494 207.811V209.925L290.625 179.167Z" fill="#E6E7E8"/>
<path d="M290.625 184.357V181.666L238.494 213.001V215.308L290.625 184.357Z" fill="#E6E7E8"/>
<path d="M290.625 189.74V187.049L238.494 218.192V220.498L290.625 189.74Z" fill="#E6E7E8"/>
<path d="M290.625 194.931V192.239L238.494 223.574V225.881L290.625 194.931Z" fill="#E6E7E8"/>
<path d="M290.625 200.313V197.43L238.494 228.765V231.072L290.625 200.313Z" fill="#E6E7E8"/>
<path d="M290.625 205.504V202.812L238.494 234.147V236.454L290.625 205.504Z" fill="#E6E7E8"/>
<path d="M290.625 210.694V208.003L238.494 239.338V241.645L290.625 210.694Z" fill="#E6E7E8"/>
<path d="M145.582 199.16V287.782L0.345703 204.927V115.728L145.582 199.16Z" fill="url(#paint4_linear)"/>
<path d="M145.582 199.929L213.679 82.8551L68.4431 0L0.345703 116.497L145.582 199.929Z" fill="url(#paint5_linear)"/>
<path d="M10.541 210.31V132.645L41.5118 150.716V228.38L10.541 210.31Z" fill="#F1E8F6"/>
<path d="M38.2417 152.638V222.421L13.8113 208.387V138.412L38.2417 152.638Z" fill="#D1B4E3"/>
<path d="M145.582 287.782V199.929L213.487 81.894V249.719L145.582 287.782Z" fill="url(#paint6_linear)"/>
<path d="M149.044 89.1992L86.1404 125.917V266.252L96.5281 260.292V171.478L149.044 89.1992Z" fill="url(#paint7_linear)"/>
<path d="M17.0815 206.849L38.2418 219.153V152.638L17.0815 140.334V206.849Z" fill="url(#paint8_linear)"/>
<path opacity="0.5" d="M17.0815 206.849L38.2418 152.638L17.0815 140.334V206.849Z" fill="url(#paint9_linear)"/>
<path opacity="0.5" d="M17.0815 140.334V206.849L38.2418 219.153V152.638L17.0815 140.334ZM36.5105 216.269L18.6205 205.888V143.218L36.5105 153.599V216.269Z" fill="url(#paint10_linear)"/>
<path d="M86.1407 125.917V266.251L37.4722 237.8V97.4653L86.1407 125.917Z" fill="url(#paint11_linear)"/>
<path d="M46.3213 242.606V164.941L77.2921 183.204V260.677L46.3213 242.606Z" fill="#F1E8F6"/>
<path d="M74.0212 185.127V254.909L49.5908 240.684V170.901L74.0212 185.127Z" fill="#D1B4E3"/>
<path d="M104.993 263.944V186.28L135.964 204.543V282.015L104.993 263.944Z" fill="#F1E8F6"/>
<path d="M132.693 206.465V276.248L108.455 262.022V192.239L132.693 206.465Z" fill="#D1B4E3"/>
<path d="M46.3213 154.752V112.844L77.2921 131.107V172.823L46.3213 154.752Z" fill="#F1E8F6"/>
<path d="M74.0212 133.029V167.056L49.5908 152.83V118.804L74.0212 133.029Z" fill="#D1B4E3"/>
<path d="M52.6692 239.146L74.0218 251.449V185.126L52.6692 172.631V239.146Z" fill="url(#paint12_linear)"/>
<path d="M52.6692 239.146L74.0218 185.126L52.6692 172.631V239.146Z" fill="url(#paint13_linear)"/>
<path d="M111.533 260.484L132.693 272.787V206.465L111.533 193.969V260.484Z" fill="url(#paint14_linear)"/>
<path opacity="0.5" d="M111.533 260.484L132.693 206.465L111.533 193.969V260.484Z" fill="url(#paint15_linear)"/>
<path d="M52.6692 151.292L74.0218 163.596V133.03L52.6692 120.534V151.292Z" fill="url(#paint16_linear)"/>
<path opacity="0.5" d="M111.533 193.969V260.484L132.693 272.787V206.273L111.533 193.969ZM130.962 269.904L113.072 259.523V196.853L130.962 207.234V269.904Z" fill="url(#paint17_linear)"/>
<path d="M52.6692 151.292L74.0218 133.03L52.6692 120.534V151.292Z" fill="url(#paint18_linear)"/>
<path opacity="0.5" d="M52.6692 120.534V151.292L73.8294 163.596V132.837L52.6692 120.534ZM72.2905 160.712L54.4005 150.331V123.418L72.2905 133.799V160.712Z" fill="url(#paint19_linear)"/>
<path opacity="0.5" d="M52.6692 172.631V239.146L73.8294 251.449V185.126L52.6692 172.631ZM72.2905 248.565L54.4005 238.184V175.707L72.2905 186.088V248.565Z" fill="url(#paint20_linear)"/>
<path d="M163.856 190.509L169.05 187.625L200.406 169.363V123.994L163.856 190.509Z" fill="#D1B4E3"/>
<path d="M172.705 181.474L196.943 167.44V137.451L172.705 181.474Z" fill="#F1E8F6"/>
<path d="M164.433 199.737L200.406 179.167V256.832L164.433 277.401V199.737Z" fill="#D1B4E3"/>
<path d="M167.704 201.851V271.442L196.943 254.909V185.126L167.704 201.851Z" fill="#F1E8F6"/>
<path d="M194.25 253.371V186.664L167.704 201.851V268.366L194.25 253.371Z" fill="url(#paint21_linear)"/>
<path d="M167.704 201.851V268.366L194.25 253.371V186.664L167.704 201.851ZM192.519 252.41L169.435 265.482V202.812L192.519 189.74V252.41Z" fill="#E6E7E8"/>
<path d="M194.25 142.642L175.398 176.86L194.25 165.903V142.642Z" fill="url(#paint22_linear)"/>
<path opacity="0.5" d="M175.398 176.86L194.25 165.903V142.642L175.398 176.86ZM192.519 164.941L179.63 172.439L192.519 149.178V164.941Z" fill="url(#paint23_linear)"/>
<path d="M86.1407 125.917L149.044 89.1991L100.183 60.9399L37.4722 97.4654L86.1407 125.917Z" fill="url(#paint24_linear)"/>
<path d="M156.354 289.897V294.126L223.874 255.678V251.641L156.354 289.897Z" fill="url(#paint25_linear)"/>
<path d="M156.354 289.897V294.126L145.582 287.782V283.745L156.354 289.897Z" fill="url(#paint26_linear)"/>
<path d="M145.582 283.745L156.354 289.897L223.874 251.641L213.487 245.489L145.582 283.745Z" fill="url(#paint27_linear)"/>
<path d="M173.86 228.765C173.86 229.918 173.09 231.264 172.128 231.84C171.167 232.417 170.397 232.033 170.397 230.879C170.397 229.726 171.167 228.38 172.128 227.803C173.09 227.227 173.86 227.803 173.86 228.765Z" fill="url(#paint28_linear)"/>
<path d="M145.582 283.745L223.874 251.641L213.487 245.489L145.582 283.745Z" fill="url(#paint29_linear)"/>
<path d="M290.625 146.678V213.578L293.896 214.731V144.948L290.625 146.678Z" fill="#F1E8F6"/>
<defs>
<linearGradient id="paint0_linear" x1="186.243" y1="90.3257" x2="237.78" y2="26.8054" gradientUnits="userSpaceOnUse">
<stop offset="0.0959596" stop-color="#45108A"/>
<stop offset="1" stop-color="#7C1DC9"/>
</linearGradient>
<linearGradient id="paint1_linear" x1="276.829" y1="219.293" x2="364.773" y2="416.762" gradientUnits="userSpaceOnUse">
<stop stop-color="#9F79C8"/>
<stop offset="0.1367" stop-color="#A580CB"/>
<stop offset="0.3288" stop-color="#B492D3"/>
<stop offset="0.5529" stop-color="#CDB0E1"/>
<stop offset="0.5808" stop-color="#D1B4E3"/>
<stop offset="0.7644" stop-color="#DBC4E9"/>
<stop offset="1" stop-color="#EBDEF3"/>
</linearGradient>
<linearGradient id="paint2_linear" x1="108.037" y1="120.343" x2="220.318" y2="181.922" gradientUnits="userSpaceOnUse">
<stop stop-color="#9F79C8"/>
<stop offset="0.1367" stop-color="#A580CB"/>
<stop offset="0.3288" stop-color="#B492D3"/>
<stop offset="0.5529" stop-color="#CDB0E1"/>
<stop offset="0.5808" stop-color="#D1B4E3"/>
<stop offset="0.7644" stop-color="#DBC4E9"/>
<stop offset="1" stop-color="#EBDEF3"/>
</linearGradient>
<linearGradient id="paint3_linear" x1="230.042" y1="212.747" x2="399.45" y2="128.386" gradientUnits="userSpaceOnUse">
<stop offset="0.0959596" stop-color="#45108A"/>
<stop offset="1" stop-color="#7C1DC9"/>
</linearGradient>
<linearGradient id="paint4_linear" x1="50.6087" y1="84.0518" x2="92.9162" y2="307.223" gradientUnits="userSpaceOnUse">
<stop stop-color="#9F79C8"/>
<stop offset="0.1367" stop-color="#A580CB"/>
<stop offset="0.3288" stop-color="#B492D3"/>
<stop offset="0.5529" stop-color="#CDB0E1"/>
<stop offset="0.5808" stop-color="#D1B4E3"/>
<stop offset="0.7644" stop-color="#DBC4E9"/>
<stop offset="1" stop-color="#EBDEF3"/>
</linearGradient>
<linearGradient id="paint5_linear" x1="76.9474" y1="308.686" x2="118.414" y2="20.4743" gradientUnits="userSpaceOnUse">
<stop offset="0.0959596" stop-color="#45108A"/>
<stop offset="1" stop-color="#7C1DC9"/>
</linearGradient>
<linearGradient id="paint6_linear" x1="138.534" y1="209.345" x2="318.358" y2="104.847" gradientUnits="userSpaceOnUse">
<stop stop-color="#9F79C8"/>
<stop offset="0.1367" stop-color="#A580CB"/>
<stop offset="0.3288" stop-color="#B492D3"/>
<stop offset="0.5529" stop-color="#CDB0E1"/>
<stop offset="0.5808" stop-color="#D1B4E3"/>
<stop offset="0.7644" stop-color="#DBC4E9"/>
<stop offset="1" stop-color="#EBDEF3"/>
</linearGradient>
<linearGradient id="paint7_linear" x1="91.9467" y1="192.484" x2="210.536" y2="74.2373" gradientUnits="userSpaceOnUse">
<stop stop-color="#9F79C8"/>
<stop offset="0.1367" stop-color="#A580CB"/>
<stop offset="0.3288" stop-color="#B492D3"/>
<stop offset="0.5529" stop-color="#CDB0E1"/>
<stop offset="0.5808" stop-color="#D1B4E3"/>
<stop offset="0.7644" stop-color="#DBC4E9"/>
<stop offset="1" stop-color="#EBDEF3"/>
</linearGradient>
<linearGradient id="paint8_linear" x1="-23.2643" y1="191.109" x2="80.6701" y2="167.795" gradientUnits="userSpaceOnUse">
<stop offset="0.0353535" stop-color="#138BBD"/>
<stop offset="0.2257" stop-color="#169AC7"/>
<stop offset="0.5946" stop-color="#1FC3DF"/>
<stop offset="1" stop-color="#2AF6FF"/>
</linearGradient>
<linearGradient id="paint9_linear" x1="61.7733" y1="116.98" x2="17.2038" y2="173.36" gradientUnits="userSpaceOnUse">
<stop offset="0.0353535" stop-color="#138BBD"/>
<stop offset="0.2257" stop-color="#169AC7"/>
<stop offset="0.5946" stop-color="#1FC3DF"/>
<stop offset="1" stop-color="#2AF6FF"/>
</linearGradient>
<linearGradient id="paint10_linear" x1="-23.2643" y1="191.109" x2="80.6701" y2="167.795" gradientUnits="userSpaceOnUse">
<stop offset="0.0959596" stop-color="#45108A"/>
<stop offset="1" stop-color="#7C1DC9"/>
</linearGradient>
<linearGradient id="paint11_linear" x1="5.58373" y1="170.066" x2="114.87" y2="192.885" gradientUnits="userSpaceOnUse">
<stop stop-color="#9F79C8"/>
<stop offset="0.1367" stop-color="#A580CB"/>
<stop offset="0.3288" stop-color="#B492D3"/>
<stop offset="0.5529" stop-color="#CDB0E1"/>
<stop offset="0.5808" stop-color="#D1B4E3"/>
<stop offset="0.7644" stop-color="#DBC4E9"/>
<stop offset="1" stop-color="#EBDEF3"/>
</linearGradient>
<linearGradient id="paint12_linear" x1="12.5046" y1="223.49" x2="116.438" y2="200.176" gradientUnits="userSpaceOnUse">
<stop offset="0.0353535" stop-color="#138BBD"/>
<stop offset="0.2257" stop-color="#169AC7"/>
<stop offset="0.5946" stop-color="#1FC3DF"/>
<stop offset="1" stop-color="#2AF6FF"/>
</linearGradient>
<linearGradient id="paint13_linear" x1="25.4087" y1="163.919" x2="73.9023" y2="225.628" gradientUnits="userSpaceOnUse">
<stop offset="0.0353535" stop-color="#138BBD"/>
<stop offset="0.2257" stop-color="#169AC7"/>
<stop offset="0.5946" stop-color="#1FC3DF"/>
<stop offset="1" stop-color="#2AF6FF"/>
</linearGradient>
<linearGradient id="paint14_linear" x1="71.2067" y1="244.797" x2="175.14" y2="221.483" gradientUnits="userSpaceOnUse">
<stop offset="0.0353535" stop-color="#138BBD"/>
<stop offset="0.2257" stop-color="#169AC7"/>
<stop offset="0.5946" stop-color="#1FC3DF"/>
<stop offset="1" stop-color="#2AF6FF"/>
</linearGradient>
<linearGradient id="paint15_linear" x1="155.498" y1="138.994" x2="102.532" y2="245.276" gradientUnits="userSpaceOnUse">
<stop offset="0.0353535" stop-color="#138BBD"/>
<stop offset="0.2257" stop-color="#169AC7"/>
<stop offset="0.5946" stop-color="#1FC3DF"/>
<stop offset="1" stop-color="#2AF6FF"/>
</linearGradient>
<linearGradient id="paint16_linear" x1="24.7331" y1="150.735" x2="103.669" y2="133.029" gradientUnits="userSpaceOnUse">
<stop offset="0.0353535" stop-color="#138BBD"/>
<stop offset="0.2257" stop-color="#169AC7"/>
<stop offset="0.5946" stop-color="#1FC3DF"/>
<stop offset="1" stop-color="#2AF6FF"/>
</linearGradient>
<linearGradient id="paint17_linear" x1="71.2067" y1="244.797" x2="175.14" y2="221.483" gradientUnits="userSpaceOnUse">
<stop offset="0.0959596" stop-color="#45108A"/>
<stop offset="1" stop-color="#7C1DC9"/>
</linearGradient>
<linearGradient id="paint18_linear" x1="32.7716" y1="142.71" x2="75.688" y2="128.114" gradientUnits="userSpaceOnUse">
<stop offset="0.0353535" stop-color="#138BBD"/>
<stop offset="0.2257" stop-color="#169AC7"/>
<stop offset="0.5946" stop-color="#1FC3DF"/>
<stop offset="1" stop-color="#2AF6FF"/>
</linearGradient>
<linearGradient id="paint19_linear" x1="24.7331" y1="150.735" x2="103.669" y2="133.029" gradientUnits="userSpaceOnUse">
<stop offset="0.0959596" stop-color="#45108A"/>
<stop offset="1" stop-color="#7C1DC9"/>
</linearGradient>
<linearGradient id="paint20_linear" x1="12.5046" y1="223.49" x2="116.438" y2="200.176" gradientUnits="userSpaceOnUse">
<stop offset="0.0959596" stop-color="#45108A"/>
<stop offset="1" stop-color="#7C1DC9"/>
</linearGradient>
<linearGradient id="paint21_linear" x1="167.715" y1="231.516" x2="257.423" y2="204.636" gradientUnits="userSpaceOnUse">
<stop offset="0.0959596" stop-color="#45108A"/>
<stop offset="1" stop-color="#7C1DC9"/>
</linearGradient>
<linearGradient id="paint22_linear" x1="177.177" y1="162.014" x2="228.553" y2="146.621" gradientUnits="userSpaceOnUse">
<stop offset="0.0353535" stop-color="#138BBD"/>
<stop offset="0.2257" stop-color="#169AC7"/>
<stop offset="0.5946" stop-color="#1FC3DF"/>
<stop offset="1" stop-color="#2AF6FF"/>
</linearGradient>
<linearGradient id="paint23_linear" x1="177.177" y1="162.014" x2="228.553" y2="146.62" gradientUnits="userSpaceOnUse">
<stop offset="0.0959596" stop-color="#45108A"/>
<stop offset="1" stop-color="#7C1DC9"/>
</linearGradient>
<linearGradient id="paint24_linear" x1="107.53" y1="259.956" x2="89.5985" y2="51.3719" gradientUnits="userSpaceOnUse">
<stop offset="0.0959596" stop-color="#45108A"/>
<stop offset="1" stop-color="#7C1DC9"/>
</linearGradient>
<linearGradient id="paint25_linear" x1="192.007" y1="277.031" x2="199.785" y2="294.497" gradientUnits="userSpaceOnUse">
<stop stop-color="#9F79C8"/>
<stop offset="0.1367" stop-color="#A580CB"/>
<stop offset="0.3288" stop-color="#B492D3"/>
<stop offset="0.5529" stop-color="#CDB0E1"/>
<stop offset="0.5808" stop-color="#D1B4E3"/>
<stop offset="0.7644" stop-color="#DBC4E9"/>
<stop offset="1" stop-color="#EBDEF3"/>
</linearGradient>
<linearGradient id="paint26_linear" x1="116.035" y1="134.287" x2="153.58" y2="300.547" gradientUnits="userSpaceOnUse">
<stop stop-color="#9F79C8"/>
<stop offset="0.1367" stop-color="#A580CB"/>
<stop offset="0.3288" stop-color="#B492D3"/>
<stop offset="0.5529" stop-color="#CDB0E1"/>
<stop offset="0.5808" stop-color="#D1B4E3"/>
<stop offset="0.7644" stop-color="#DBC4E9"/>
<stop offset="1" stop-color="#EBDEF3"/>
</linearGradient>
<linearGradient id="paint27_linear" x1="244.591" y1="153.704" x2="173.082" y2="290.074" gradientUnits="userSpaceOnUse">
<stop stop-color="#9F79C8"/>
<stop offset="0.1367" stop-color="#A580CB"/>
<stop offset="0.3288" stop-color="#B492D3"/>
<stop offset="0.5529" stop-color="#CDB0E1"/>
<stop offset="0.5808" stop-color="#D1B4E3"/>
<stop offset="0.7644" stop-color="#DBC4E9"/>
<stop offset="1" stop-color="#EBDEF3"/>
</linearGradient>
<linearGradient id="paint28_linear" x1="196.242" y1="215.105" x2="171.424" y2="230.258" gradientUnits="userSpaceOnUse">
<stop offset="0.020202" stop-color="#45108A"/>
<stop offset="0.2929" stop-color="#3D065F"/>
<stop offset="1" stop-color="#10054D"/>
</linearGradient>
<linearGradient id="paint29_linear" x1="186.159" y1="209.821" x2="184.197" y2="291.123" gradientUnits="userSpaceOnUse">
<stop stop-color="#9F79C8"/>
<stop offset="0.1367" stop-color="#A580CB"/>
<stop offset="0.3288" stop-color="#B492D3"/>
<stop offset="0.5529" stop-color="#CDB0E1"/>
<stop offset="0.5808" stop-color="#D1B4E3"/>
<stop offset="0.7644" stop-color="#DBC4E9"/>
<stop offset="1" stop-color="#EBDEF3"/>
</linearGradient>
</defs>
</svg>
