<svg id="outline-cloud_download-24px" xmlns="http://www.w3.org/2000/svg" width="24" height="24" viewBox="0 0 24 24">
  <g id="Bounding_Boxes">
    <path id="Path_2911" data-name="Path 2911" d="M0,0H24V24H0Z" fill="none"/>
  </g>
  <g id="Outline" transform="translate(0 4)">
    <g id="Group_231" data-name="Group 231">
      <path id="Path_2912" data-name="Path 2912" d="M19.35,10.04a7.492,7.492,0,0,0-14-2A6,6,0,0,0,6,20H19a4.986,4.986,0,0,0,.35-9.96ZM19,18H6a4,4,0,0,1-.44-7.97l1.07-.11.5-.95a5.487,5.487,0,0,1,10.26,1.46l.3,1.5,1.53.11A2.983,2.983,0,0,1,19,18Z" transform="translate(0 -4)" fill="#fff"/>
      <path id="Path_2913" data-name="Path 2913" d="M13.45,10h-2.9v3H8l4,4,4-4H13.45Z" transform="translate(0 -4)" fill="#fff"/>
    </g>
  </g>
</svg>
