<svg xmlns="http://www.w3.org/2000/svg" width="12.589" height="13" viewBox="0 0 12.589 13">
  <g id="outline-headset_mic-24px" transform="translate(70.701 68)">
    <g id="Outline" transform="translate(-70.701 -68)">
      <path id="Path_2938" data-name="Path 2938" d="M14.19,8.682v2.364h-1.4V8.682h1.4m-8.393,0v2.364H5.1a.654.654,0,0,1-.7-.591V8.682H5.8M9.294,1C5.819,1,3,3.381,3,6.318v4.136a1.953,1.953,0,0,0,2.1,1.773H7.2V7.5H4.4V6.318c0-2.287,2.189-4.136,4.9-4.136s4.9,1.85,4.9,4.136V7.5h-2.8v4.727h2.8v.591h-4.9V14h4.2a1.953,1.953,0,0,0,2.1-1.773V6.318C15.589,3.381,12.77,1,9.294,1Z" transform="translate(-3 -1)"/>
    </g>
  </g>
</svg>
