<svg xmlns="http://www.w3.org/2000/svg" width="79.133" height="115.002" viewBox="0 0 79.133 115.002">
  <path id="Path_3210" data-name="Path 3210" d="M277.781,145.733l.091-86.957-2.823-.091h-6.374l-.364,85.955-8.923-1.093a29.334,29.334,0,0,0-5.281.182c-2.732.364-26.588,3.824-26.588,3.824l-.182-90.508-4.553-.546-5.827.364.182,92.147-1.639.182.182,12.748,1.457.546v.911l4.917,1.093a2.7,2.7,0,0,0,2.914.364l24.4,4.735a1.821,1.821,0,0,0,1.821.911c1.457,0,2-.182,2.549-.728l30.958-6.01s1.639.364,2.367-.364l2.914-1.457,3.46-1.093.182-10.562s-.546-1.457-4.189-2.732l-11.655-1.639Z" transform="translate(-214.993 -55.998)" fill="none" stroke="#272626" stroke-miterlimit="10" stroke-width="1"/>
</svg>
