<svg id="outline-shopping_cart-24px" xmlns="http://www.w3.org/2000/svg" width="24" height="24" viewBox="0 0 24 24">
  <g id="Bounding_Boxes">
    <path id="Path_2478" data-name="Path 2478" d="M0,0H24V24H0Z" fill="none"/>
  </g>
  <g id="Outline">
    <g id="Group_103" data-name="Group 103">
      <path id="Path_2479" data-name="Path 2479" d="M15.55,13a1.991,1.991,0,0,0,1.75-1.03l3.58-6.49A1,1,0,0,0,20.01,4H5.21L4.27,2H1V4H3l3.6,7.59L5.25,14.03A2,2,0,0,0,7,17H19V15H7l1.1-2ZM6.16,6H18.31l-2.76,5H8.53Z"/>
      <path id="Path_2480" data-name="Path 2480" d="M7,18a2,2,0,1,0,2,2A2,2,0,0,0,7,18Z"/>
      <path id="Path_2481" data-name="Path 2481" d="M17,18a2,2,0,1,0,2,2A2,2,0,0,0,17,18Z"/>
    </g>
  </g>
</svg>
